<svg width="52" height="52" viewBox="0 0 52 52" fill="none" xmlns="http://www.w3.org/2000/svg">
<circle cx="26" cy="26" r="25.5" fill="#F3E8EF" stroke="#C4B2BE"/>
<path d="M26.0002 34.9991C25.3247 34.9991 24.7773 34.4517 24.7773 33.7762V18.2229C24.7773 17.5474 25.3247 17 26.0002 17C26.6758 17 27.2231 17.5474 27.2231 18.2229V33.7762C27.2231 34.4517 26.6758 34.9991 26.0002 34.9991Z" fill="#C4B2BE"/>
<path d="M33.7762 27.2231H18.2229C17.5474 27.2231 17 26.6758 17 26.0002C17 25.3247 17.5474 24.7773 18.2229 24.7773H33.7762C34.4517 24.7773 34.9991 25.3247 34.9991 26.0002C34.9991 26.6758 34.4517 27.2231 33.7762 27.2231Z" fill="#C4B2BE"/>
</svg>
