<svg width="24" height="23" viewBox="0 0 24 23" fill="none" xmlns="http://www.w3.org/2000/svg">
<path d="M17.3999 14.7918C16.9964 14.7918 16.6682 14.4636 16.6682 14.0601H15.9365C15.9365 14.7398 16.4048 15.308 17.0341 15.4715V16.2552H17.7658V15.5235H18.8633V14.0601C18.8633 13.2531 18.207 12.5967 17.3999 12.5967C16.9964 12.5967 16.6682 12.2685 16.6682 11.865V11.1333H17.3999C17.8035 11.1333 18.1316 11.4615 18.1316 11.865H18.8633C18.8633 11.1853 18.395 10.6171 17.7658 10.4536V9.66992H17.0341V10.4016H15.9365V11.865C15.9365 12.6721 16.5929 13.3284 17.3999 13.3284C17.8035 13.3284 18.1316 13.6566 18.1316 14.0601V14.7918H17.3999Z" fill="#9E2469"/>
<path d="M20.0495 7.34493C20.6792 6.5847 21.0582 5.61008 21.0582 4.54839C21.0582 2.12756 19.0888 0.158203 16.668 0.158203C14.2472 0.158203 12.2778 2.12756 12.2778 4.54839C12.2778 5.88373 12.8789 7.07932 13.8228 7.88529C12.1816 9.0443 11.1803 10.9427 11.1803 12.9629C11.1803 14.0784 11.4741 15.1532 12.032 16.1033C11.5761 16.2021 11.1104 16.2552 10.6443 16.2555C10.2331 14.6418 9.07482 13.3145 7.5218 12.7064V11.8654H8.45142C9.14653 11.8654 9.74981 11.3707 9.88628 10.6892L10.0407 9.91758L10.8576 9.50893L10.3966 6.9736L10.7742 6.72189C11.2575 6.39994 11.5461 5.86105 11.5461 5.28008C11.5461 3.26279 9.90493 1.6216 7.88764 1.6216L7.82399 1.62708C7.55765 1.67428 1.30237 2.81902 1.30237 6.37763C1.30237 9.93331 3.20003 11.3389 3.86331 11.7212V12.6772L2.58467 12.9969C1.61444 13.2395 0.936523 14.1076 0.936523 15.1079C0.936523 15.1807 0.940181 15.2538 0.947499 15.3266L1.33749 19.1823H1.9609L2.57223 21.1693C2.73211 21.6888 3.06942 22.1413 3.52197 22.4431C3.91233 22.7033 4.36635 22.8408 4.83537 22.8408H12.6437C13.2488 22.8408 13.7412 22.3484 13.7412 21.7433V21.3774C13.7412 20.9871 13.5352 20.6461 13.2276 20.4515C13.345 20.5019 13.4635 20.5499 13.5777 20.6069L13.6549 20.6457H15.5705V18.9061C16.1606 19.0879 16.7734 19.1823 17.3997 19.1823C20.8292 19.1823 23.6191 16.3924 23.6191 12.9629C23.6191 10.5556 22.2044 8.36309 20.0495 7.34493ZM14.3006 15.5238C13.705 14.8035 13.3754 13.902 13.3754 12.9629C13.3754 10.744 15.1808 8.93857 17.3997 8.93857C19.6186 8.93857 21.424 10.744 21.424 12.9629C21.424 15.1818 19.6186 16.9872 17.3997 16.9872C16.7598 16.9872 16.1346 16.8274 15.5705 16.5383V15.5238H14.3006ZM12.7911 19.5105C12.6232 19.3115 12.3751 19.1823 12.0949 19.1823H10.6418H10.0827C9.47762 19.1823 8.98519 18.6899 8.98519 18.0848C8.98519 17.4797 9.47762 16.9872 10.0827 16.9872H10.6418C11.5754 16.9872 12.5094 16.8028 13.3754 16.4535V19.7187C13.1833 19.6411 12.9887 19.5716 12.7911 19.5105ZM16.668 8.20687C15.7095 8.20687 14.8388 7.83334 14.1857 7.22823C14.4638 6.08897 15.4786 5.28008 16.668 5.28008C17.8574 5.28008 18.8722 6.08897 19.1503 7.22823C18.4973 7.83334 17.6265 8.20687 16.668 8.20687ZM15.5705 3.45084C15.5705 2.84573 16.0629 2.35329 16.668 2.35329C17.2731 2.35329 17.7656 2.84573 17.7656 3.45084C17.7656 4.05595 17.2731 4.54839 16.668 4.54839C16.0629 4.54839 15.5705 4.05595 15.5705 3.45084ZM16.668 0.8899C18.6853 0.8899 20.3265 2.5311 20.3265 4.54839C20.3265 5.30094 20.0975 6.00117 19.7064 6.58323C19.3687 5.76008 18.7157 5.11801 17.9046 4.79021C18.2664 4.45583 18.4973 3.98132 18.4973 3.45084C18.4973 2.4422 17.6767 1.6216 16.668 1.6216C15.6594 1.6216 14.8388 2.4422 14.8388 3.45084C14.8388 3.98132 15.0696 4.45583 15.4314 4.79021C14.6204 5.11801 13.9673 5.76008 13.6296 6.58323C13.2385 6.00117 13.0095 5.30094 13.0095 4.54839C13.0095 2.5311 14.6507 0.8899 16.668 0.8899ZM11.912 12.9629C11.912 11.0934 12.8848 9.34173 14.4616 8.33748C14.7199 8.48857 14.9935 8.61443 15.2818 8.71065C13.7207 9.49137 12.6437 11.1018 12.6437 12.9629C12.6437 13.9163 12.9323 14.8368 13.4588 15.6175C13.2338 15.7243 13.0026 15.8183 12.7666 15.8988C12.209 15.0212 11.912 14.0129 11.912 12.9629ZM9.89359 16.2746C8.97458 16.3708 8.25349 17.1409 8.25349 18.0848C8.25349 18.7378 8.60032 19.3078 9.11616 19.6312L8.83373 19.914H5.60475L4.21818 14.9224C4.05867 14.3473 3.67197 13.8808 3.17332 13.6042L4.13806 13.3631L6.57717 15.3958L7.35936 13.4407C8.58715 13.9591 9.51713 14.9992 9.89359 16.2746ZM9.39311 9.42295L9.16885 10.5454C9.10043 10.8863 8.79897 11.1337 8.45142 11.1337H6.0584V11.8654H6.7901V12.8923L6.27169 14.1889L4.59501 12.7917V11.6104L5.3267 10.5128V9.07832L4.99707 8.91332C4.74903 8.78967 4.59501 8.54016 4.59501 8.26285C4.59501 7.94931 4.79476 7.672 5.09219 7.57285L5.69255 7.3731V7.10932C5.69255 6.80933 5.86962 6.53677 6.14401 6.41494L8.63836 5.30642L8.96873 5.41654C9.23214 5.50435 9.4264 5.72861 9.47616 6.00153L10.0396 9.09991L9.39311 9.42295ZM2.03407 6.37763C2.03407 3.5412 7.4585 2.44183 7.92057 2.35329C9.51933 2.37122 10.8144 3.6773 10.8144 5.28008C10.8144 5.61556 10.6476 5.92727 10.3685 6.11312L10.254 6.18922L10.1958 5.8702C10.0981 5.33423 9.71652 4.89448 9.19994 4.7218L8.59995 4.52205L5.84621 5.74581C5.39256 5.94739 5.07427 6.3597 4.98537 6.83677L4.86025 6.87847C4.26428 7.07786 3.86331 7.63395 3.86331 8.26285C3.86331 8.79076 4.14172 9.2682 4.59501 9.52795V10.2911L4.11282 11.0144C3.50478 10.6204 2.03407 9.36076 2.03407 6.37763ZM1.66822 15.1079C1.66822 14.6999 1.83907 14.3261 2.11968 14.0604H2.12151C2.76796 14.0604 3.34015 14.4954 3.51319 15.1181L4.43879 18.4506H1.99895L1.67554 15.2535C1.67078 15.2052 1.66822 15.1565 1.66822 15.1079ZM13.0095 21.7433C13.0095 21.9448 12.8453 22.1091 12.6437 22.1091H4.83537C4.51123 22.1091 4.1977 22.014 3.92807 21.8344C3.61527 21.6258 3.38222 21.3134 3.27173 20.9541L2.72625 19.1823H4.64184L5.04829 20.6457H9.13628L9.81457 19.9674C9.84896 19.9334 9.89615 19.914 9.94408 19.914H10.0827H10.6418H12.0949C12.1959 19.914 12.2778 19.996 12.2778 20.0969C12.2778 20.1979 12.1959 20.2799 12.0949 20.2799H10.4486V21.0116H12.0949H12.6437C12.8453 21.0116 13.0095 21.1758 13.0095 21.3774V21.7433ZM14.8388 19.914H14.1071V16.2555H14.8388V19.914ZM17.3997 18.4506C16.7697 18.4506 16.1566 18.3394 15.5705 18.132V17.3531C16.147 17.5931 16.769 17.7189 17.3997 17.7189C20.0221 17.7189 22.1557 15.5853 22.1557 12.9629C22.1557 10.8132 20.7212 8.99418 18.7596 8.40736C19.0226 8.26431 19.2681 8.09346 19.4953 7.90139C21.532 8.74613 22.8874 10.751 22.8874 12.9629C22.8874 15.9888 20.4256 18.4506 17.3997 18.4506Z" fill="#9E2469"/>
</svg>
