<svg width="24" height="23" viewBox="0 0 24 23" fill="none" xmlns="http://www.w3.org/2000/svg">
<path d="M17.4009 14.7918C16.9974 14.7918 16.6692 14.4636 16.6692 14.0601H15.9375C15.9375 14.7398 16.4058 15.308 17.035 15.4715V16.2552H17.7667V15.5235H18.8643V14.0601C18.8643 13.2531 18.208 12.5967 17.4009 12.5967C16.9974 12.5967 16.6692 12.2685 16.6692 11.865V11.1333H17.4009C17.8044 11.1333 18.1326 11.4615 18.1326 11.865H18.8643C18.8643 11.1853 18.396 10.6171 17.7667 10.4536V9.66992H17.035V10.4016H15.9375V11.865C15.9375 12.6721 16.5938 13.3284 17.4009 13.3284C17.8044 13.3284 18.1326 13.6566 18.1326 14.0601V14.7918H17.4009Z" fill="white"/>
<path d="M20.0505 7.34493C20.6801 6.5847 21.0592 5.61008 21.0592 4.54839C21.0592 2.12756 19.0898 0.158203 16.669 0.158203C14.2482 0.158203 12.2788 2.12756 12.2788 4.54839C12.2788 5.88373 12.8799 7.07932 13.8238 7.88529C12.1826 9.0443 11.1813 10.9427 11.1813 12.9629C11.1813 14.0784 11.475 15.1532 12.033 16.1033C11.5771 16.2021 11.1114 16.2552 10.6453 16.2555C10.2341 14.6418 9.0758 13.3145 7.52277 12.7064V11.8654H8.45239C9.14751 11.8654 9.75079 11.3707 9.88725 10.6892L10.0416 9.91758L10.8586 9.50893L10.3976 6.9736L10.7752 6.72189C11.2585 6.39994 11.5471 5.86105 11.5471 5.28008C11.5471 3.26279 9.90591 1.6216 7.88862 1.6216L7.82496 1.62708C7.55863 1.67428 1.30335 2.81902 1.30335 6.37763C1.30335 9.93331 3.201 11.3389 3.86429 11.7212V12.6772L2.58565 12.9969C1.61542 13.2395 0.9375 14.1076 0.9375 15.1079C0.9375 15.1807 0.941157 15.2538 0.948476 15.3266L1.33847 19.1823H1.96187L2.57321 21.1693C2.73308 21.6888 3.0704 22.1413 3.52295 22.4431C3.91331 22.7033 4.36733 22.8408 4.83635 22.8408H12.6447C13.2498 22.8408 13.7422 22.3484 13.7422 21.7433V21.3774C13.7422 20.9871 13.5362 20.6461 13.2285 20.4515C13.346 20.5019 13.4645 20.5499 13.5787 20.6069L13.6559 20.6457H15.5714V18.9061C16.1616 19.0879 16.7744 19.1823 17.4007 19.1823C20.8301 19.1823 23.6201 16.3924 23.6201 12.9629C23.6201 10.5556 22.2054 8.36309 20.0505 7.34493ZM14.3016 15.5238C13.706 14.8035 13.3763 13.902 13.3763 12.9629C13.3763 10.744 15.1818 8.93857 17.4007 8.93857C19.6196 8.93857 21.425 10.744 21.425 12.9629C21.425 15.1818 19.6196 16.9872 17.4007 16.9872C16.7608 16.9872 16.1356 16.8274 15.5714 16.5383V15.5238H14.3016ZM12.7921 19.5105C12.6242 19.3115 12.3761 19.1823 12.0959 19.1823H10.6427H10.0837C9.4786 19.1823 8.98617 18.6899 8.98617 18.0848C8.98617 17.4797 9.4786 16.9872 10.0837 16.9872H10.6427C11.5764 16.9872 12.5104 16.8028 13.3763 16.4535V19.7187C13.1843 19.6411 12.9896 19.5716 12.7921 19.5105ZM16.669 8.20687C15.7105 8.20687 14.8397 7.83334 14.1867 7.22823C14.4647 6.08897 15.4796 5.28008 16.669 5.28008C17.8584 5.28008 18.8732 6.08897 19.1513 7.22823C18.4982 7.83334 17.6275 8.20687 16.669 8.20687ZM15.5714 3.45084C15.5714 2.84573 16.0639 2.35329 16.669 2.35329C17.2741 2.35329 17.7665 2.84573 17.7665 3.45084C17.7665 4.05595 17.2741 4.54839 16.669 4.54839C16.0639 4.54839 15.5714 4.05595 15.5714 3.45084ZM16.669 0.8899C18.6863 0.8899 20.3275 2.5311 20.3275 4.54839C20.3275 5.30094 20.0985 6.00117 19.7074 6.58323C19.3697 5.76008 18.7166 5.11801 17.9056 4.79021C18.2674 4.45583 18.4982 3.98132 18.4982 3.45084C18.4982 2.4422 17.6776 1.6216 16.669 1.6216C15.6603 1.6216 14.8397 2.4422 14.8397 3.45084C14.8397 3.98132 15.0706 4.45583 15.4324 4.79021C14.6213 5.11801 13.9683 5.76008 13.6306 6.58323C13.2395 6.00117 13.0105 5.30094 13.0105 4.54839C13.0105 2.5311 14.6517 0.8899 16.669 0.8899ZM11.913 12.9629C11.913 11.0934 12.8857 9.34173 14.4626 8.33748C14.7208 8.48857 14.9945 8.61443 15.2828 8.71065C13.7217 9.49137 12.6447 11.1018 12.6447 12.9629C12.6447 13.9163 12.9333 14.8368 13.4598 15.6175C13.2348 15.7243 13.0035 15.8183 12.7676 15.8988C12.21 15.0212 11.913 14.0129 11.913 12.9629ZM9.89457 16.2746C8.97556 16.3708 8.25447 17.1409 8.25447 18.0848C8.25447 18.7378 8.60129 19.3078 9.11714 19.6312L8.83471 19.914H5.60573L4.21916 14.9224C4.05965 14.3473 3.67295 13.8808 3.1743 13.6042L4.13904 13.3631L6.57815 15.3958L7.36033 13.4407C8.58812 13.9591 9.51811 14.9992 9.89457 16.2746ZM9.39409 9.42295L9.16982 10.5454C9.10141 10.8863 8.79995 11.1337 8.45239 11.1337H6.05938V11.8654H6.79107V12.8923L6.27267 14.1889L4.59598 12.7917V11.6104L5.32768 10.5128V9.07832L4.99805 8.91332C4.75001 8.78967 4.59598 8.54016 4.59598 8.26285C4.59598 7.94931 4.79574 7.672 5.09317 7.57285L5.69353 7.3731V7.10932C5.69353 6.80933 5.8706 6.53677 6.14499 6.41494L8.63934 5.30642L8.9697 5.41654C9.23311 5.50435 9.42738 5.72861 9.47713 6.00153L10.0405 9.09991L9.39409 9.42295ZM2.03504 6.37763C2.03504 3.5412 7.45948 2.44183 7.92155 2.35329C9.52031 2.37122 10.8154 3.6773 10.8154 5.28008C10.8154 5.61556 10.6486 5.92727 10.3694 6.11312L10.2549 6.18922L10.1968 5.8702C10.0991 5.33423 9.7175 4.89448 9.20092 4.7218L8.60093 4.52205L5.84719 5.74581C5.39353 5.94739 5.07525 6.3597 4.98635 6.83677L4.86122 6.87847C4.26526 7.07786 3.86429 7.63395 3.86429 8.26285C3.86429 8.79076 4.1427 9.2682 4.59598 9.52795V10.2911L4.1138 11.0144C3.50575 10.6204 2.03504 9.36076 2.03504 6.37763ZM1.6692 15.1079C1.6692 14.6999 1.84005 14.3261 2.12065 14.0604H2.12248C2.76894 14.0604 3.34112 14.4954 3.51417 15.1181L4.43977 18.4506H1.99992L1.67651 15.2535C1.67176 15.2052 1.6692 15.1565 1.6692 15.1079ZM13.0105 21.7433C13.0105 21.9448 12.8462 22.1091 12.6447 22.1091H4.83635C4.51221 22.1091 4.19867 22.014 3.92904 21.8344C3.61624 21.6258 3.3832 21.3134 3.27271 20.9541L2.72723 19.1823H4.64281L5.04927 20.6457H9.13726L9.81554 19.9674C9.84994 19.9334 9.89713 19.914 9.94506 19.914H10.0837H10.6427H12.0959C12.1969 19.914 12.2788 19.996 12.2788 20.0969C12.2788 20.1979 12.1969 20.2799 12.0959 20.2799H10.4496V21.0116H12.0959H12.6447C12.8462 21.0116 13.0105 21.1758 13.0105 21.3774V21.7433ZM14.8397 19.914H14.108V16.2555H14.8397V19.914ZM17.4007 18.4506C16.7707 18.4506 16.1575 18.3394 15.5714 18.132V17.3531C16.148 17.5931 16.77 17.7189 17.4007 17.7189C20.0231 17.7189 22.1567 15.5853 22.1567 12.9629C22.1567 10.8132 20.7222 8.99418 18.7605 8.40736C19.0236 8.26431 19.2691 8.09346 19.4963 7.90139C21.5329 8.74613 22.8884 10.751 22.8884 12.9629C22.8884 15.9888 20.4266 18.4506 17.4007 18.4506Z" fill="white"/>
</svg>
