<svg width="512" height="512" viewBox="0 0 512 512" fill="none" xmlns="http://www.w3.org/2000/svg">
<path d="M53.2812 95.68V382.24C53.3376 403.355 61.7505 423.589 76.6812 438.52C91.6119 453.451 111.846 461.864 132.961 461.92H240.801C242.336 450.843 245.518 440.057 250.241 429.92C263.162 401.422 286.529 378.971 315.521 367.2C305.074 359.971 296.542 350.31 290.66 339.048C284.779 327.787 281.725 315.264 281.761 302.56C281.782 281.561 290.133 261.429 304.981 246.58C319.83 231.732 339.963 223.381 360.961 223.36C368.608 223.331 376.215 224.464 383.521 226.72C395.514 230.268 406.486 236.632 415.521 245.28V95.68C415.519 74.5481 407.124 54.2823 392.181 39.3398C377.239 24.3974 356.973 16.0019 335.841 16H132.961C111.838 16.0291 91.5877 24.4333 76.6511 39.3699C61.7145 54.3064 53.3103 74.5565 53.2812 95.68ZM149.921 95.36H318.881C323.125 95.36 327.194 97.0457 330.195 100.046C333.196 103.047 334.881 107.117 334.881 111.36C334.881 115.603 333.196 119.673 330.195 122.674C327.194 125.674 323.125 127.36 318.881 127.36H149.921C145.678 127.36 141.608 125.674 138.608 122.674C135.607 119.673 133.921 115.603 133.921 111.36C133.921 107.117 135.607 103.047 138.608 100.046C141.608 97.0457 145.678 95.36 149.921 95.36ZM149.921 180.48H318.881C323.125 180.48 327.194 182.166 330.195 185.166C333.196 188.167 334.881 192.237 334.881 196.48C334.881 200.723 333.196 204.793 330.195 207.794C327.194 210.794 323.125 212.48 318.881 212.48H149.921C145.678 212.48 141.608 210.794 138.608 207.794C135.607 204.793 133.921 200.723 133.921 196.48C133.921 192.237 135.607 188.167 138.608 185.166C141.608 182.166 145.678 180.48 149.921 180.48ZM149.921 265.44H226.721C230.965 265.44 235.034 267.126 238.035 270.126C241.036 273.127 242.721 277.197 242.721 281.44C242.721 285.683 241.036 289.753 238.035 292.754C235.034 295.754 230.965 297.44 226.721 297.44H149.921C145.678 297.44 141.608 295.754 138.608 292.754C135.607 289.753 133.921 285.683 133.921 281.44C133.921 277.197 135.607 273.127 138.608 270.126C141.608 267.126 145.678 265.44 149.921 265.44Z" fill="#DB69A2"/>
<path d="M360.962 357.76C391.448 357.76 416.162 333.046 416.162 302.56C416.162 272.074 391.448 247.36 360.962 247.36C330.476 247.36 305.762 272.074 305.762 302.56C305.762 333.046 330.476 357.76 360.962 357.76Z" fill="#DB69A2"/>
<path d="M279.359 496H442.719C446.959 495.988 451.021 494.298 454.019 491.3C457.017 488.302 458.707 484.24 458.719 480C458.719 454.094 448.428 429.249 430.11 410.93C411.791 392.612 386.946 382.32 361.039 382.32C335.133 382.32 310.288 392.612 291.969 410.93C273.651 429.249 263.359 454.094 263.359 480C263.372 484.24 265.061 488.303 268.059 491.3C271.057 494.298 275.12 495.988 279.359 496Z" fill="#DB69A2"/>
</svg>
