<svg width="15" height="18" viewBox="0 0 15 18" fill="none" xmlns="http://www.w3.org/2000/svg">
<path d="M11.8056 17.2793V14.4608H14.0346V9.85191H8.38318V16.6897H10.9069V17.4303H10.1375H10.1304H7.64258V9.11133H14.7752V14.7987C14.7752 14.8203 14.7752 14.8419 14.7752 14.8634V14.9785L14.768 15.0072L14.7608 15.0216L14.7392 15.2013H14.6961C14.3006 16.2655 13.4306 17.0923 12.3449 17.4231L12.3233 17.4303C12.3233 17.4303 12.2443 17.4303 12.2227 17.4303C12.1795 17.4303 12.1436 17.4303 12.1077 17.4303H12.0214H11.9926L11.82 17.4878L11.8056 17.2793ZM12.5462 16.5459C13.1358 16.2655 13.6104 15.7837 13.8908 15.2013H12.5462V16.5459ZM9.13095 13.1162V12.3756H13.2868V13.1162H9.13095ZM9.13095 11.7788V11.0383H13.2868V11.7788H9.13095Z" fill="#91848C"/>
<path d="M0.539257 17.2359C0.244465 17.2359 0 16.9986 0 16.6966V15.2083C0 12.2316 1.80471 9.59282 4.59447 8.48554L4.93241 8.34893L4.64481 8.12603C3.59505 7.30636 2.99828 6.08405 2.99828 4.77545C2.99828 2.42429 4.91803 0.511719 7.29076 0.511719C9.65631 0.511719 11.5833 2.42429 11.5833 4.77545C11.5833 5.73892 11.2525 6.67363 10.6485 7.42141H9.07391C9.96548 6.83181 10.5047 5.84677 10.5047 4.77545C10.5047 3.01387 9.06672 1.58304 7.29795 1.58304C5.52919 1.58304 4.07679 3.01387 4.07679 4.77545C4.07679 5.95462 4.7239 7.02595 5.77365 7.58678V9.22612C2.99828 9.91637 1.07133 12.361 1.07133 15.2083V16.1574H5.70894V17.2287L0.539257 17.2359Z" fill="#91848C"/>
</svg>
