<svg width="16" height="16" viewBox="0 0 16 16" fill="none" xmlns="http://www.w3.org/2000/svg">
<path d="M0.5 5.28695H14.8608M3.6913 0.5V2.09565M11.6695 0.5V2.09565M2.89347 7.68042H4.48912M6.88259 7.68042H8.47824M10.8717 7.68042H12.4674M2.89347 10.0739H4.48912M6.88259 10.0739H8.47824M10.8717 10.0739H12.4674M2.89347 12.4674H4.48912M6.88259 12.4674H8.47824M10.8717 12.4674H12.4674M3.05304 14.8608H12.3078C13.2014 14.8608 13.6483 14.8608 13.9896 14.6869C14.2898 14.534 14.534 14.2898 14.6869 13.9896C14.8608 13.6483 14.8608 13.2014 14.8608 12.3078V4.64869C14.8608 3.75503 14.8608 3.30821 14.6869 2.96689C14.534 2.66664 14.2898 2.42254 13.9896 2.26957C13.6483 2.09565 13.2014 2.09565 12.3078 2.09565H3.05304C2.15939 2.09565 1.71256 2.09565 1.37124 2.26957C1.07099 2.42254 0.826892 2.66664 0.673918 2.96689C0.5 3.30821 0.5 3.75503 0.5 4.64869V12.3078C0.5 13.2014 0.5 13.6483 0.673918 13.9896C0.826892 14.2898 1.07099 14.534 1.37124 14.6869C1.71256 14.8608 2.15939 14.8608 3.05304 14.8608Z" stroke="#DB69A2" stroke-linecap="round"/>
</svg>
