<svg width="26" height="22" viewBox="0 0 26 22" fill="none" xmlns="http://www.w3.org/2000/svg">
<path d="M10.817 0.0327492C10.1403 0.152813 9.76915 0.392954 9.62726 0.807728C9.53993 1.08061 9.52902 1.47356 9.50718 4.93369L9.48535 8.76495H5.66502C3.43831 8.76495 1.67003 8.79769 1.44081 8.81953C0.60034 8.93959 0.22922 9.16881 0.0764084 9.62726C0.0218315 9.82373 0 10.7079 0 13.9279C0 17.6827 0.0109167 17.9992 0.098237 18.3158C0.22922 18.7197 0.469357 18.9925 0.796812 19.0908C0.938712 19.1344 1.61546 19.1781 2.61966 19.1999C3.80943 19.2218 4.2242 19.2545 4.27878 19.3091C4.35519 19.3855 4.3661 19.5274 4.37702 20.7062C4.38793 21.2411 4.39885 21.3393 4.51892 21.514C4.66082 21.7323 4.95552 21.8305 5.22841 21.7759C5.33756 21.7432 5.77417 21.3502 6.51641 20.6189C7.17132 19.964 7.73891 19.451 7.89173 19.3746C8.1537 19.2327 8.1537 19.2327 10.8498 19.1999C13.6222 19.1672 13.7314 19.1563 14.2007 18.9161C14.7683 18.6323 14.7793 18.5668 14.7793 14.4845V11.1008L15.8271 11.1226C17.1806 11.1554 17.1151 11.1117 18.4795 12.487C19.0471 13.0656 19.582 13.5677 19.6693 13.6113C20.0513 13.8078 20.5098 13.6113 20.6298 13.1856C20.6626 13.0656 20.6844 12.5962 20.6844 12.1378C20.6844 11.4173 20.6953 11.2864 20.7826 11.21C20.87 11.1335 21.1428 11.1226 22.7474 11.1008C24.8104 11.0681 25.0287 11.0462 25.4107 10.7079C25.7709 10.3913 25.76 10.4568 25.76 5.59953C25.76 1.54997 25.7491 1.17885 25.6618 0.884138C25.5417 0.48027 25.3016 0.196476 25.0068 0.087326C24.8213 0.0218334 23.6752 0 17.8792 0C14.0698 0.0109158 10.8934 0.0218334 10.817 0.0327492ZM24.6576 0.927801C24.8977 1.04786 24.9086 1.20068 24.9086 5.58861C24.9086 7.89173 24.8868 9.84556 24.8649 9.93289C24.7995 10.1948 24.5811 10.2276 22.4963 10.2603C20.4552 10.2931 20.4879 10.2931 20.1277 10.6315C19.8767 10.8825 19.7675 11.2536 19.7675 11.9522V12.5307L18.8616 11.6466C17.5299 10.3368 17.4972 10.3258 15.8926 10.2822L14.7465 10.2494L14.6701 9.92196C14.5937 9.56177 14.419 9.19065 14.2881 9.09241C14.2444 9.05966 14.0698 8.98325 13.8951 8.92868C13.6332 8.84135 13.2839 8.81953 11.9631 8.79769L10.3367 8.76495V5.33756C10.3477 2.34678 10.3804 1.13519 10.4786 1.03695C10.4896 1.01512 10.6424 0.971462 10.8061 0.938715C11.0462 0.884138 12.5089 0.873228 17.8246 0.873228C21.5358 0.884138 24.603 0.905968 24.6576 0.927801ZM13.524 9.72549C13.8951 9.79098 13.8842 9.74733 13.8842 14.0479C13.8842 16.1437 13.8624 17.9338 13.8405 18.0211C13.7641 18.294 13.6004 18.3158 10.6751 18.3485C7.28048 18.3922 7.60793 18.294 6.1562 19.7239L5.25024 20.608V19.9531C5.25024 19.3527 5.22841 19.2654 5.09742 18.9925C4.99918 18.7961 4.85729 18.6323 4.71539 18.5341L4.48617 18.3813L2.87071 18.3485C1.98658 18.3267 1.20068 18.294 1.13519 18.2721C0.87322 18.1848 0.862306 18.0211 0.862306 13.8733C0.862306 9.58359 0.829562 9.8783 1.23343 9.76915C1.46264 9.69275 13.1638 9.67091 13.524 9.72549Z" fill="white"/>
<path d="M13.7862 4.52963C13.3386 4.76978 13.0876 5.34828 13.2076 5.82856C13.3605 6.39615 13.7752 6.71268 14.3319 6.71268C14.8449 6.71268 15.2379 6.46165 15.4234 6.01412C15.6527 5.44652 15.4125 4.81344 14.8668 4.52963C14.5939 4.37684 14.0699 4.37684 13.7862 4.52963ZM14.583 5.41378C14.6703 5.54476 14.6703 5.56658 14.583 5.69757C14.5284 5.78488 14.4301 5.83946 14.3538 5.83946C14.1245 5.83946 13.9936 5.57749 14.1245 5.38103C14.2446 5.22821 14.4629 5.23913 14.583 5.41378Z" fill="white"/>
<path d="M16.7222 4.54033C16.5476 4.62763 16.4057 4.76954 16.2965 4.95511C15.9472 5.5227 16.1437 6.26494 16.7222 6.57056C16.9405 6.69062 17.0387 6.71246 17.3662 6.69062C17.6937 6.6688 17.781 6.64698 17.9665 6.49415C18.2831 6.23218 18.4468 5.92656 18.4468 5.55544C18.4468 5.1734 18.294 4.86777 17.9665 4.61673C17.781 4.46392 17.6937 4.44208 17.3662 4.42026C17.0496 4.40934 16.9405 4.42026 16.7222 4.54033ZM17.4972 5.36987C17.6172 5.48996 17.6172 5.62093 17.4863 5.75191C17.3007 5.9593 17.006 5.85016 17.006 5.56636C17.006 5.48996 17.0387 5.39172 17.0715 5.34805C17.1807 5.24982 17.388 5.26073 17.4972 5.36987Z" fill="white"/>
<path d="M19.7347 4.4973C19.5164 4.59554 19.2217 4.91208 19.1344 5.11949C19.0471 5.3487 19.058 5.81806 19.1562 6.03637C19.2545 6.25467 19.5601 6.56029 19.7784 6.64761C20.0076 6.73493 20.477 6.72401 20.6953 6.62578C20.9136 6.52754 21.2192 6.22191 21.3065 6.00362C21.3393 5.91629 21.372 5.71982 21.372 5.56701C21.372 5.41418 21.3393 5.21771 21.3065 5.13038C21.2301 4.91208 20.9245 4.60646 20.6953 4.50823C20.4661 4.38815 19.9639 4.39907 19.7347 4.4973ZM20.4224 5.37052C20.477 5.41418 20.5097 5.51243 20.5097 5.56701C20.5097 5.62159 20.4661 5.71982 20.4224 5.76348C20.3787 5.81806 20.2805 5.8508 20.2259 5.8508C20.1714 5.8508 20.0731 5.80712 20.0294 5.76348C19.9749 5.71982 19.9421 5.62159 19.9421 5.56701C19.9421 5.51243 19.9858 5.41418 20.0294 5.37052C20.0731 5.31595 20.1714 5.28321 20.2259 5.28321C20.2805 5.27228 20.3679 5.31595 20.4224 5.37052Z" fill="white"/>
<path d="M3.12143 12.5197C2.82671 12.6726 2.82671 13.1201 3.12143 13.2729C3.26332 13.3493 3.83092 13.3602 7.36747 13.3602C10.904 13.3602 11.4716 13.3493 11.6135 13.2729C11.9191 13.1201 11.9191 12.6835 11.6135 12.5307C11.4716 12.4543 10.904 12.4434 7.35654 12.4434C4.19112 12.4434 3.23058 12.4652 3.12143 12.5197Z" fill="white"/>
<path d="M3.02351 14.8116C2.85979 14.9863 2.85979 15.2264 3.04535 15.4011L3.18725 15.543H6.25443C7.94629 15.543 9.36528 15.5211 9.41985 15.5103C9.56176 15.4556 9.68182 15.1609 9.63815 14.9972C9.56176 14.6807 9.62724 14.6807 6.25443 14.6807H3.14358L3.02351 14.8116Z" fill="white"/>
</svg>
