<svg width="34" height="21" viewBox="0 0 34 21" fill="none" xmlns="http://www.w3.org/2000/svg">
<path d="M29.4864 20.8795H4.37398C1.95874 20.8795 0 18.9208 0 16.5055V4.37399C0 1.95875 1.95874 0 4.37398 0H29.4864C31.9017 0 33.8604 1.95875 33.8604 4.37399V16.5055C33.8604 18.9236 31.9044 20.8795 29.4864 20.8795Z" fill="url(#paint0_linear_2062_3021)"/>
<path d="M16.93 17.5732C14.6946 17.5732 12.877 15.7555 12.877 13.5201C12.877 12.3222 13.4026 11.2045 14.3045 10.4409C13.4026 9.67455 12.877 8.55684 12.877 7.36167C12.877 5.12626 14.6946 3.30859 16.93 3.30859C19.1654 3.30859 20.9831 5.12626 20.9831 7.36167C20.9831 8.55961 20.4574 9.67731 19.5555 10.4409C20.4574 11.2072 20.9831 12.3222 20.9831 13.5201C20.9831 15.7555 19.1654 17.5732 16.93 17.5732ZM16.93 4.07772C15.1207 4.07772 13.6461 5.54954 13.6461 7.3589C13.6461 8.47384 14.2105 9.50577 15.1566 10.1144L15.6602 10.4381L15.1566 10.7618C14.2105 11.3705 13.6461 12.4024 13.6461 13.5174C13.6461 15.3267 15.1179 16.8013 16.93 16.8013C18.7394 16.8013 20.214 15.3295 20.214 13.5174C20.214 12.4024 19.6496 11.3705 18.7034 10.7618L18.1999 10.4381L18.7034 10.1144C19.6496 9.50577 20.214 8.47384 20.214 7.3589C20.214 5.54954 18.7394 4.07772 16.93 4.07772Z" fill="#070A10"/>
<path d="M13.501 5.69141H0V6.46053H13.501V5.69141Z" fill="#070A10"/>
<path d="M33.8599 5.69141H20.5996V6.46053H33.8599V5.69141Z" fill="#070A10"/>
<path d="M13.5029 14.3203H0.00195312V15.0894H13.5029V14.3203Z" fill="#070A10"/>
<path d="M33.8599 14.3203H20.5996V15.0894H33.8599V14.3203Z" fill="#070A10"/>
<path d="M7.13631 0H6.36719V20.8795H7.13631V0Z" fill="#070A10"/>
<path d="M25.6617 6.07422H24.8926V14.706H25.6617V6.07422Z" fill="#070A10"/>
<path d="M28.7867 0H28.0176V6.07546H28.7867V0Z" fill="#070A10"/>
<path d="M28.7867 14.707H28.0176V20.8793H28.7867V14.707Z" fill="#070A10"/>
<defs>
<linearGradient id="paint0_linear_2062_3021" x1="16.9316" y1="20.8806" x2="16.9316" y2="0.000719343" gradientUnits="userSpaceOnUse">
<stop stop-color="#FFF08A"/>
<stop offset="0.0477" stop-color="#E6CC64"/>
<stop offset="0.099" stop-color="#D1AC42"/>
<stop offset="0.1517" stop-color="#C09328"/>
<stop offset="0.2056" stop-color="#B48116"/>
<stop offset="0.2616" stop-color="#AC760B"/>
<stop offset="0.3227" stop-color="#AA7307"/>
<stop offset="0.3935" stop-color="#AE790D"/>
<stop offset="0.4881" stop-color="#BA891E"/>
<stop offset="0.5957" stop-color="#CEA33A"/>
<stop offset="0.661" stop-color="#DCB64E"/>
<stop offset="0.6843" stop-color="#DFBC55"/>
<stop offset="0.8156" stop-color="#F1D975"/>
<stop offset="0.9255" stop-color="#FBEB89"/>
<stop offset="1" stop-color="#FFF290"/>
</linearGradient>
</defs>
</svg>
