<svg width="16" height="16" viewBox="0 0 16 16" fill="none" xmlns="http://www.w3.org/2000/svg">
<path d="M8 15.999C9.58225 15.999 11.129 15.5298 12.4446 14.6508C13.7602 13.7717 14.7855 12.5223 15.391 11.0605C15.9965 9.59868 16.155 7.99015 15.8463 6.4383C15.5376 4.88645 14.7757 3.46099 13.6569 2.34217C12.538 1.22335 11.1126 0.461426 9.56072 0.152744C8.00887 -0.155937 6.40034 0.00248909 4.93853 0.60799C3.47672 1.21349 2.22729 2.23887 1.34824 3.55446C0.46919 4.87006 -1.90735e-06 6.41677 -1.90735e-06 7.99902C0.00250053 10.12 0.846159 12.1534 2.34591 13.6531C3.84566 15.1529 5.87903 15.9965 8 15.999ZM4.91491 5.94157C4.84544 5.87448 4.79004 5.79423 4.75192 5.7055C4.71381 5.61677 4.69375 5.52134 4.69291 5.42477C4.69207 5.32821 4.71047 5.23244 4.74704 5.14306C4.7836 5.05368 4.83761 4.97248 4.90589 4.90419C4.97418 4.83591 5.05538 4.7819 5.14476 4.74534C5.23414 4.70877 5.3299 4.69037 5.42647 4.69121C5.52304 4.69205 5.61847 4.71211 5.7072 4.75022C5.79593 4.78834 5.87618 4.84375 5.94327 4.91321L8 6.97066L10.0567 4.91321C10.1939 4.78073 10.3776 4.70742 10.5683 4.70908C10.759 4.71074 10.9414 4.78722 11.0762 4.92207C11.2111 5.05691 11.2876 5.23932 11.2892 5.43001C11.2909 5.62069 11.2176 5.8044 11.0851 5.94157L9.02836 7.99902L11.0851 10.0565C11.1546 10.1236 11.21 10.2038 11.2481 10.2925C11.2862 10.3813 11.3062 10.4767 11.3071 10.5733C11.3079 10.6698 11.2895 10.7656 11.253 10.855C11.2164 10.9444 11.1624 11.0256 11.0941 11.0939C11.0258 11.1621 10.9446 11.2161 10.8552 11.2527C10.7659 11.2893 10.6701 11.3077 10.5735 11.3068C10.477 11.306 10.3815 11.2859 10.2928 11.2478C10.2041 11.2097 10.1238 11.1543 10.0567 11.0848L8 9.02739L5.94327 11.0848C5.87618 11.1543 5.79593 11.2097 5.7072 11.2478C5.61847 11.2859 5.52304 11.306 5.42647 11.3068C5.3299 11.3077 5.23414 11.2893 5.14476 11.2527C5.05538 11.2161 4.97418 11.1621 4.90589 11.0939C4.83761 11.0256 4.7836 10.9444 4.74704 10.855C4.71047 10.7656 4.69207 10.6698 4.69291 10.5733C4.69375 10.4767 4.71381 10.3813 4.75192 10.2925C4.79004 10.2038 4.84544 10.1236 4.91491 10.0565L6.97163 7.99902L4.91491 5.94157Z" fill="#91848C"/>
</svg>
