<svg width="13" height="13" viewBox="0 0 13 13" fill="none" xmlns="http://www.w3.org/2000/svg">
<path d="M6.46648 12.9362C7.74575 12.9362 8.99629 12.5568 10.06 11.8461C11.1236 11.1354 11.9527 10.1252 12.4422 8.9433C12.9318 7.76141 13.0599 6.4609 12.8103 5.20621C12.5607 3.95153 11.9447 2.79902 11.0401 1.89445C10.1355 0.989869 8.98303 0.373845 7.72834 0.124272C6.47366 -0.1253 5.17314 0.00278955 3.99125 0.492343C2.80937 0.981897 1.79919 1.81093 1.08847 2.8746C0.377746 3.93827 -0.00160089 5.18881 -0.00160089 6.46807C0.000422135 8.18289 0.682529 9.8269 1.89509 11.0395C3.10765 12.252 4.75166 12.9341 6.46648 12.9362ZM3.97215 4.8046C3.91599 4.75036 3.8712 4.68547 3.84038 4.61373C3.80957 4.542 3.79334 4.46484 3.79267 4.38676C3.79199 4.30869 3.80686 4.23126 3.83643 4.15899C3.866 4.08673 3.90966 4.02108 3.96487 3.96587C4.02008 3.91066 4.08573 3.867 4.15799 3.83743C4.23026 3.80787 4.30769 3.79299 4.38576 3.79367C4.46384 3.79435 4.54099 3.81057 4.61273 3.84138C4.68447 3.8722 4.74936 3.917 4.8036 3.97316L6.46648 5.63663L8.12937 3.97316C8.24027 3.86605 8.3888 3.80678 8.54297 3.80812C8.69715 3.80946 8.84463 3.8713 8.95365 3.98032C9.06267 4.08934 9.12451 4.23682 9.12585 4.39099C9.12719 4.54517 9.06792 4.6937 8.96081 4.8046L7.29793 6.46807L8.96081 8.13155C9.01697 8.18579 9.06177 8.25067 9.09259 8.32241C9.1234 8.39415 9.13962 8.47131 9.1403 8.54938C9.14098 8.62746 9.1261 8.70489 9.09654 8.77715C9.06697 8.84942 9.02331 8.91507 8.9681 8.97028C8.91289 9.02549 8.84724 9.06915 8.77497 9.09871C8.70271 9.12828 8.62528 9.14316 8.54721 9.14248C8.46913 9.1418 8.39197 9.12558 8.32023 9.09476C8.24849 9.06395 8.18361 9.01915 8.12937 8.96299L6.46648 7.29952L4.8036 8.96299C4.74936 9.01915 4.68447 9.06395 4.61273 9.09476C4.54099 9.12558 4.46384 9.1418 4.38576 9.14248C4.30769 9.14316 4.23026 9.12828 4.15799 9.09871C4.08573 9.06915 4.02008 9.02549 3.96487 8.97028C3.90966 8.91507 3.866 8.84942 3.83643 8.77715C3.80686 8.70489 3.79199 8.62746 3.79267 8.54938C3.79334 8.47131 3.80957 8.39415 3.84038 8.32241C3.8712 8.25067 3.91599 8.18579 3.97215 8.13155L5.63504 6.46807L3.97215 4.8046Z" fill="#9E2469"/>
</svg>
