<svg width="22" height="21" viewBox="0 0 22 21" fill="none" xmlns="http://www.w3.org/2000/svg">
<path d="M12 2C12 0.895431 12.8954 0 14 0H20C21.1046 0 22 0.895431 22 2V9C22 10.1046 21.1046 11 20 11H14C12.8954 11 12 10.1046 12 9V2Z" fill="#DB69A2"/>
<path d="M0 2C0 0.89543 0.895431 0 2 0H8C9.10457 0 10 0.895431 10 2V5C10 6.10457 9.10457 7 8 7H2C0.89543 7 0 6.10457 0 5V2Z" fill="#DB69A2"/>
<path d="M12 16C12 14.8954 12.8954 14 14 14H20C21.1046 14 22 14.8954 22 16V19C22 20.1046 21.1046 21 20 21H14C12.8954 21 12 20.1046 12 19V16Z" fill="#DB69A2"/>
<path d="M0 11C0 9.89543 0.895431 9 2 9H8C9.10457 9 10 9.89543 10 11V19C10 20.1046 9.10457 21 8 21H2C0.89543 21 0 20.1046 0 19V11Z" fill="#DB69A2"/>
</svg>
