<svg width="15" height="18" viewBox="0 0 15 18" fill="none" xmlns="http://www.w3.org/2000/svg">
<path d="M0.974722 2.00146H1.49161V14.7004C1.49161 15.544 2.17834 16.2307 3.02196 16.2307H8.25917H12.4238V16.7014C12.4238 17.2405 11.9863 17.678 11.4473 17.678H6.21192H0.976569C0.437527 17.678 3.52859e-05 17.2405 3.52859e-05 16.7014V2.97802C1.71661e-05 2.43898 0.43568 2.00146 0.974722 2.00146Z" fill="#DB69A2"/>
<path d="M8.25869 15.6765H3.02334C2.48429 15.6765 2.04678 15.239 2.04678 14.7V2.0011V0.976552C2.04678 0.43751 2.48429 0 3.02334 0H8.25869H9.9995V0.323056C9.99583 0.356285 9.99396 0.391359 9.99396 0.426434V2.55491V3.10134C9.99396 3.86006 10.6105 4.47663 11.3693 4.47663H11.9157H14.0442C14.0719 4.47663 14.1014 4.47479 14.1291 4.47294H14.4688V14.7C14.4688 15.239 14.0312 15.6765 13.4922 15.6765H12.4215H8.25869ZM8.06116 12.3574H11.4745C11.7292 12.3574 11.936 12.1506 11.936 11.8958C11.936 11.6411 11.7292 11.4343 11.4745 11.4343H8.05932C7.80457 11.4343 7.59781 11.6411 7.59781 11.8958C7.59781 12.1506 7.80641 12.3574 8.06116 12.3574ZM4.646 10.0018H11.4745C11.7292 10.0018 11.936 9.79506 11.936 9.54033C11.936 9.28555 11.7292 9.07882 11.4745 9.07882H4.646C4.39125 9.07882 4.18449 9.28555 4.18449 9.54033C4.18449 9.79506 4.39125 10.0018 4.646 10.0018ZM11.4745 6.57742H4.646C4.39125 6.57742 4.18449 6.78418 4.18449 7.03893C4.18449 7.29368 4.39125 7.50044 4.646 7.50044H11.4745C11.7292 7.50044 11.936 7.29368 11.936 7.03893C11.936 6.78418 11.7292 6.57742 11.4745 6.57742Z" fill="#DB69A2"/>
<path d="M14.0444 3.92466H11.3695C11.3676 3.92466 11.3639 3.92466 11.3621 3.92466C10.9153 3.92096 10.5535 3.55914 10.5498 3.1124C10.5498 3.11056 10.5498 3.10686 10.5498 3.10502V0.428267C10.5498 0.180899 10.7529 0.0166016 10.9633 0.0166016C11.0648 0.0166016 11.1664 0.0535223 11.2513 0.13844L14.336 3.22316C14.5945 3.48161 14.4117 3.92466 14.0444 3.92466Z" fill="#DB69A2"/>
</svg>
