<svg xmlns="http://www.w3.org/2000/svg" version="1.1" width="21" height="23" viewBox="0 0 21 23" fill-rule="evenodd">
    <g>
        <path d="M17.5 11.866a1 1 0 0 1 1.366-.366l1.732 1a1 1 0 0 1 .366 1.366l-3.882 6.724a.987.987 0 0 1-.315.334l-1.866 1.232a1 1 0 0 1-1.549-.894l.134-2.232a.989.989 0 0 1 .132-.44l3.882-6.724zM11.428 22a2.994 2.994 0 0 1-.073-.858l.134-2.232c.028-.465.164-.917.397-1.32l3.882-6.724a3 3 0 0 1 4.098-1.098l.134.077V5a3 3 0 0 0-3-3H7c-.796 0-1.559.316-2.121.879A2.996 2.996 0 0 0 4 5v14c0 .796.316 1.559.879 2.121A2.996 2.996 0 0 0 7 22zM8 16h2.175a1 1 0 0 0 0-2H8a1 1 0 0 0 0 2zm0-4h4.35a1 1 0 0 0 0-2H8a1 1 0 0 0 0 2zm0-4h6a1 1 0 0 0 0-2H8a1 1 0 0 0 0 2z" fill="#9E2469" opacity="1" data-original="#000000" class="">

        </path>
    </g>
</svg>