<svg width="13" height="14" viewBox="0 0 13 14" fill="none" xmlns="http://www.w3.org/2000/svg">
<path d="M10.1111 13.5H2.88888C2.11728 13.5 1.39183 13.1995 0.846151 12.6538C0.300501 12.1082 0 11.3827 0 10.6111V9.88884C0 9.48995 0.323333 9.16659 0.722226 9.16659C1.12112 9.16659 1.44445 9.48995 1.44445 9.88884V10.6111C1.44445 10.9969 1.59472 11.3596 1.86749 11.6324C2.14034 11.9053 2.50306 12.0555 2.88888 12.0555H10.1111C10.4969 12.0555 10.8596 11.9053 11.1324 11.6324C11.4053 11.3596 11.5555 10.9969 11.5555 10.6111V9.88884C11.5555 9.48995 11.8789 9.16659 12.2777 9.16659C12.6766 9.16659 13 9.48995 13 9.88884V10.6111C13 11.3827 12.6995 12.1081 12.1538 12.6538C11.6081 13.1995 10.8827 13.5 10.1111 13.5ZM6.49999 10.6111C6.40008 10.6111 6.30497 10.5908 6.21843 10.5541C6.1377 10.52 6.06184 10.4705 5.99546 10.4057C5.99544 10.4056 5.99544 10.4056 5.99541 10.4056C5.99493 10.4052 5.99445 10.4047 5.99397 10.4042C5.99385 10.4041 5.99369 10.4039 5.99357 10.4038C5.99316 10.4034 5.99281 10.4031 5.99243 10.4027C5.99218 10.4024 5.99195 10.4022 5.9917 10.4019C5.99145 10.4017 5.99112 10.4014 5.99089 10.4012C5.99039 10.4007 5.98983 10.4001 5.98933 10.3996L3.10042 7.51067C2.81839 7.22864 2.81839 6.77134 3.10042 6.48928C3.38246 6.20725 3.83978 6.20722 4.12181 6.48928L5.77779 8.14525V1.22223C5.77776 0.823333 6.10109 0.5 6.49999 0.5C6.89888 0.5 7.22224 0.823333 7.22224 1.22223V8.14523L8.87819 6.48928C9.16019 6.20725 9.61757 6.20725 9.89958 6.48928C10.1816 6.77131 10.1816 7.22864 9.89958 7.51067L7.01067 10.3996C7.01017 10.4001 7.00961 10.4006 7.00911 10.4011C7.00883 10.4014 7.00853 10.4017 7.0083 10.4019C7.00805 10.4022 7.00782 10.4024 7.00757 10.4026C7.00721 10.403 7.00681 10.4034 7.00646 10.4037C7.00633 10.4039 7.00615 10.404 7.00603 10.4041C7.00557 10.4046 7.00509 10.4051 7.00461 10.4056C7.00459 10.4056 7.00459 10.4056 7.00456 10.4056C6.99662 10.4134 6.98857 10.4209 6.98034 10.4282C6.91987 10.4821 6.85251 10.5242 6.78129 10.5542C6.78104 10.5543 6.78083 10.5544 6.78058 10.5545C6.7803 10.5546 6.78008 10.5548 6.7798 10.5548C6.69372 10.5911 6.59921 10.6111 6.49999 10.6111Z" fill="#91848C"/>
</svg>
