<svg width="13" height="14" viewBox="0 0 13 14" fill="none" xmlns="http://www.w3.org/2000/svg">
<path d="M6.02055 13.8135C4.89832 13.8135 3.77608 13.8135 2.65654 13.8135C1.11886 13.8108 0.0101163 12.7074 0.00202326 11.1697C-0.000674421 10.6329 -0.000674421 10.0961 0.00202326 9.55923C0.00472095 9.00621 0.339234 8.65011 0.854491 8.64742C1.36975 8.64472 1.70696 9.00081 1.71235 9.55384C1.71505 10.0988 1.70966 10.6464 1.71505 11.194C1.72045 11.7659 2.05496 12.1004 2.63226 12.1004H9.44931C10.0239 12.1004 10.3611 11.7659 10.3665 11.194C10.3692 10.6491 10.3638 10.1015 10.3692 9.55384C10.3719 9.00081 10.7091 8.64742 11.2244 8.64742C11.7396 8.64742 12.0795 9.00351 12.0742 9.55923C12.0688 10.2579 12.1065 10.9647 12.0202 11.6526C11.8583 12.9151 10.7847 13.8054 9.50596 13.8108C8.34056 13.8189 7.18056 13.8135 6.02055 13.8135Z" fill="white"/>
<path d="M5.17847 6.55478C5.04898 6.43339 4.97074 6.36595 4.9006 6.29581C4.35297 5.74278 3.81074 5.18706 3.26041 4.63943C2.86925 4.24826 2.32701 4.22129 1.97632 4.5612C1.62562 4.9011 1.63911 5.46222 2.02218 5.85069C3.13902 6.97292 4.25856 8.09246 5.38079 9.2093C5.77735 9.60317 6.29261 9.60317 6.68647 9.2093C7.8168 8.08707 8.94173 6.96213 10.064 5.8318C10.4336 5.45952 10.4363 4.89841 10.0909 4.56389C9.74564 4.22938 9.20071 4.24557 8.82573 4.61785C8.26731 5.17357 7.71968 5.73739 7.16666 6.29581C7.09652 6.36864 7.01829 6.43609 6.90498 6.5413C6.89689 6.38753 6.8888 6.28771 6.8888 6.1852C6.8888 4.42092 6.89149 2.65393 6.8861 0.889649C6.8834 0.226019 6.3034 -0.167842 5.69642 0.0695536C5.36191 0.199042 5.17847 0.490392 5.17847 0.916626C5.17577 2.66203 5.17577 4.40743 5.17847 6.15553V6.55478Z" fill="white"/>
</svg>
