<svg width="24" height="17" viewBox="0 0 24 17" fill="none" xmlns="http://www.w3.org/2000/svg">
<path d="M11.9995 12.1411C14.0401 12.1411 15.6943 10.4869 15.6943 8.44629C15.6943 6.4057 14.0401 4.75146 11.9995 4.75146C9.95892 4.75146 8.30469 6.4057 8.30469 8.44629C8.30469 10.4869 9.95892 12.1411 11.9995 12.1411Z" fill="#9E2469"/>
<path d="M23.6318 7.42268C20.7917 3.99065 16.4925 0.687012 12 0.687012C7.50662 0.687012 3.20644 3.99296 0.368213 7.42268C-0.122738 8.0157 -0.122738 8.8766 0.368213 9.46962C1.08178 10.3319 2.57772 11.9964 4.5757 13.4508C9.60755 17.1138 14.3814 17.1219 19.4243 13.4508C21.4223 11.9964 22.9182 10.3319 23.6318 9.46962C24.1213 8.87775 24.1238 8.01764 23.6318 7.42268ZM12 3.27339C14.8524 3.27339 17.1728 5.59374 17.1728 8.44615C17.1728 11.2986 14.8524 13.6189 12 13.6189C9.14759 13.6189 6.82724 11.2986 6.82724 8.44615C6.82724 5.59374 9.14759 3.27339 12 3.27339Z" fill="#9E2469"/>
</svg>
