<svg width="20" height="13" viewBox="0 0 20 13" fill="none" xmlns="http://www.w3.org/2000/svg">
<path d="M9.70215 9.26063C11.352 9.26063 12.6895 7.92316 12.6895 6.27332C12.6895 4.62347 11.352 3.28601 9.70215 3.28601C8.05231 3.28601 6.71484 4.62347 6.71484 6.27332C6.71484 7.92316 8.05231 9.26063 9.70215 9.26063Z" fill="#91848C"/>
<path d="M19.1065 5.44586C16.8103 2.67103 13.3344 0 9.70212 0C6.06918 0 2.59244 2.67289 0.297704 5.44586C-0.0992347 5.92533 -0.0992347 6.62137 0.297704 7.10083C0.874628 7.79799 2.08411 9.14378 3.6995 10.3197C7.7678 13.2813 11.6275 13.2878 15.7047 10.3197C17.3201 9.14378 18.5296 7.79799 19.1065 7.10083C19.5023 6.6223 19.5044 5.92689 19.1065 5.44586ZM9.70212 2.09112C12.0083 2.09112 13.8844 3.96714 13.8844 6.27335C13.8844 8.57955 12.0083 10.4556 9.70212 10.4556C7.39592 10.4556 5.51989 8.57955 5.51989 6.27335C5.51989 3.96714 7.39592 2.09112 9.70212 2.09112Z" fill="#91848C"/>
</svg>
