<svg width="19" height="19" viewBox="0 0 19 19" fill="none" xmlns="http://www.w3.org/2000/svg">
<path d="M9.96225 12.5847V13.7345C9.96225 13.8133 9.90712 13.8684 9.82837 13.8684H8.81245C8.7337 13.8684 8.67857 13.8133 8.67857 13.7345V12.5847C8.67857 12.506 8.7337 12.4508 8.81245 12.4508H9.82837C9.90712 12.4508 9.96225 12.506 9.96225 12.5847ZM11.8129 6.91451C11.8129 7.55241 11.5846 8.02492 11.1357 8.64707L10.2379 9.87562C9.97012 10.2379 9.89137 10.419 9.89137 10.8758V11.301C9.89137 11.3798 9.83624 11.4349 9.75749 11.4349H8.87546C8.7967 11.4349 8.74158 11.3798 8.74158 11.301V10.7577C8.74158 10.2221 8.85971 9.94649 9.14322 9.56061L10.0331 8.33206C10.4978 7.69416 10.6553 7.38703 10.6553 6.93026C10.6553 6.16636 10.1198 5.68596 9.36372 5.68596C8.61557 5.68596 8.13518 6.14273 7.97767 6.95389C7.96192 7.03264 7.91467 7.07201 7.82804 7.05626L6.98539 6.90663C6.90663 6.89088 6.86726 6.84363 6.87513 6.757C7.07989 5.47333 7.99343 4.63855 9.37948 4.63855C10.8443 4.64642 11.8129 5.59933 11.8129 6.91451ZM18.5857 9.29285C18.5857 10.9467 18.1447 12.5768 17.3099 13.9944C17.2075 14.1677 16.9791 14.2307 16.798 14.1283C16.6247 14.0259 16.5617 13.7975 16.6641 13.6164C17.4359 12.3091 17.8375 10.8128 17.8375 9.29285C17.8375 8.13518 17.6092 7.01689 17.1681 5.9616C16.735 4.94568 16.1207 4.03215 15.3332 3.24462C14.5457 2.45709 13.6321 1.84282 12.6162 1.40968C11.5609 0.960787 10.4426 0.740278 9.28497 0.740278C8.1273 0.740278 7.00901 0.968661 5.95372 1.40968C4.93781 1.84282 4.02427 2.45709 3.23675 3.24462C2.44922 4.03215 1.83494 4.94568 1.4018 5.9616C0.95291 7.01689 0.732402 8.13518 0.732402 9.29285C0.732402 10.4505 0.960787 11.5688 1.4018 12.6241C1.83494 13.64 2.44922 14.5535 3.23675 15.3411C4.02427 16.1286 4.93781 16.7429 5.95372 17.176C7.00901 17.6249 8.1273 17.8454 9.28497 17.8454C11.427 17.8454 13.4746 17.05 15.0497 15.6088C15.1993 15.4671 15.4356 15.4828 15.5773 15.6325C15.7191 15.7821 15.7033 16.0183 15.5537 16.1601C13.8448 17.7194 11.6161 18.5857 9.29285 18.5857C8.04068 18.5857 6.82 18.3416 5.67809 17.8533C4.56767 17.3886 3.57538 16.7192 2.72485 15.8608C1.87432 15.0103 1.20492 14.0101 0.732403 12.9076C0.244135 11.7578 0 10.545 0 9.29285C0 8.04067 0.244135 6.82 0.732403 5.67809C1.19705 4.56767 1.86645 3.57538 2.72485 2.72485C3.57538 1.86645 4.56767 1.19705 5.67809 0.732403C6.82788 0.244135 8.04068 0 9.29285 0C10.545 0 11.7657 0.244135 12.9076 0.732403C14.018 1.19704 15.0103 1.86645 15.8608 2.72485C16.7114 3.57538 17.3808 4.57554 17.8533 5.67809C18.3416 6.82 18.5857 8.04068 18.5857 9.29285Z" fill="white"/>
</svg>
