<svg width="19" height="18" viewBox="0 0 19 18" fill="none" xmlns="http://www.w3.org/2000/svg">
<path d="M14.0557 2.28223C14.2437 2.28223 14.3964 2.43505 14.3965 2.62305V2.83789C14.9343 2.9804 15.3126 3.46674 15.3135 4.02734L15.3066 4.09668C15.2748 4.25157 15.1379 4.36796 14.9736 4.36816C14.7855 4.36816 14.6328 4.21544 14.6328 4.02734L14.6221 3.91797C14.5719 3.67148 14.3565 3.48419 14.0957 3.47754C14.083 3.47906 14.0693 3.48047 14.0557 3.48047C14.049 3.48045 14.0427 3.47985 14.0371 3.47949C13.7431 3.50332 13.5197 3.75491 13.5312 4.0498L13.5469 4.15723C13.6052 4.39988 13.8233 4.57921 14.082 4.5791L14.1982 4.58398C14.775 4.63806 15.2432 5.09136 15.3066 5.67773L15.3135 5.79395C15.3215 6.35579 14.9449 6.85431 14.3965 6.99902V7.23926C14.3965 7.42735 14.2438 7.58008 14.0557 7.58008C13.8678 7.57983 13.7158 7.4272 13.7158 7.23926V6.98438C13.2036 6.82414 12.8513 6.35107 12.8506 5.81055L12.8574 5.74219C12.889 5.58689 13.0258 5.46986 13.1904 5.46973C13.3785 5.46973 13.5312 5.62245 13.5312 5.81055C13.5313 6.11449 13.7779 6.36133 14.082 6.36133C14.3861 6.36129 14.6327 6.11447 14.6328 5.81055C14.6328 5.5064 14.3861 5.25981 14.082 5.25977C13.5026 5.25977 13.0071 4.857 12.8809 4.30176L12.8604 4.18848C12.782 3.59211 13.1461 3.02969 13.7158 2.85254V2.62305C13.7159 2.4352 13.8678 2.28247 14.0557 2.28223Z" fill="#DB69A2" stroke="#DB69A2" stroke-width="0.13"/>
<path d="M14.0977 0.93457C16.2912 0.93457 18.0749 2.72288 18.0752 4.91602C18.0752 7.10937 16.291 8.89822 14.0977 8.89844C14.0484 8.89844 13.9982 8.89536 13.9492 8.89355V15.0303C13.9492 16.1835 13.0733 17.1325 11.9502 17.248L11.7227 17.2598H11.7168C11.6922 17.2598 11.6716 17.2585 11.6504 17.2568C11.6472 17.2566 11.6439 17.2561 11.6406 17.2559V17.2598H3.00195V17.248C1.84321 17.1636 0.938111 16.202 0.93457 15.0332V13.8066C0.93457 13.6121 1.1016 13.4785 1.2832 13.4785H3.16797L3.23242 3.875L3.24023 3.80762C3.272 3.65271 3.40576 3.52252 3.57324 3.52246H10.3701C10.9332 2.0388 12.3902 0.934685 14.0977 0.93457ZM1.61621 15.0303L1.625 15.1885C1.70766 15.9696 2.36778 16.5779 3.16992 16.5791H10.1123C9.70719 16.1639 9.47893 15.6073 9.47852 15.0264V14.1602H1.61621V15.0303ZM3.84863 13.4785H9.83203C9.9194 13.4762 10.0044 13.5094 10.0664 13.5713L10.1074 13.6221C10.1431 13.6763 10.161 13.7407 10.1592 13.8066V15.0264L10.168 15.1846C10.2508 15.9677 10.9134 16.5776 11.7178 16.5791H11.7227L11.8809 16.5703C12.6603 16.4895 13.2677 15.8309 13.2676 15.0303V8.80957C12.2454 8.58977 11.3517 7.97517 10.7822 7.09766H7.91504C7.72679 7.09766 7.57422 6.94491 7.57422 6.75684C7.57429 6.56882 7.72683 6.41602 7.91504 6.41602H10.4209C10.2229 5.93674 10.1196 5.42356 10.1201 4.9043L10.126 4.70801C10.1348 4.53904 10.1545 4.37089 10.1836 4.2041H3.91211L3.84863 13.4785ZM14.0977 1.62402C12.2771 1.62424 10.8018 3.10029 10.8018 4.9209L10.8057 5.08984C10.8937 6.83179 12.334 8.21666 14.0977 8.2168L14.2676 8.21289C16.0085 8.1228 17.3924 6.68362 17.3945 4.9209L17.3906 4.75098C17.3024 3.00914 15.8614 1.62402 14.0977 1.62402Z" fill="#DB69A2" stroke="#DB69A2" stroke-width="0.13"/>
<path d="M6.14551 8.24902C6.66587 8.24902 7.09277 8.66009 7.09277 9.16895C7.09256 9.67762 6.66573 10.0879 6.14551 10.0879C5.62538 10.0878 5.19846 9.67753 5.19824 9.16895C5.19824 8.66018 5.62525 8.24916 6.14551 8.24902ZM6.14551 8.93066C5.99352 8.93079 5.87988 9.04308 5.87988 9.16895C5.88012 9.29455 5.99358 9.40612 6.14551 9.40625C6.29748 9.40625 6.41188 9.29457 6.41211 9.16895C6.41211 9.04316 6.29764 8.93066 6.14551 8.93066Z" fill="#DB69A2" stroke="#DB69A2" stroke-width="0.13"/>
<path d="M11.5898 8.82715C11.7777 8.82734 11.9296 8.98008 11.9297 9.16797C11.9297 9.35595 11.7778 9.5086 11.5898 9.50879H7.91504C7.72688 9.50868 7.57422 9.35597 7.57422 9.16797C7.57433 8.98006 7.72695 8.82726 7.91504 8.82715H11.5898Z" fill="#DB69A2" stroke="#DB69A2" stroke-width="0.13"/>
<path d="M6.14551 5.85449C6.66588 5.85449 7.09277 6.26557 7.09277 6.77441C7.09263 7.28315 6.66578 7.69336 6.14551 7.69336C5.62534 7.69322 5.19838 7.28306 5.19824 6.77441C5.19824 6.26567 5.62524 5.85463 6.14551 5.85449ZM6.14551 6.53613C5.99358 6.53626 5.87988 6.64863 5.87988 6.77441C5.88004 6.90007 5.99353 7.01159 6.14551 7.01172H6.15527C6.30248 7.00716 6.41196 6.89749 6.41211 6.77441C6.41211 6.64848 6.29762 6.53613 6.14551 6.53613Z" fill="#DB69A2" stroke="#DB69A2" stroke-width="0.13"/>
<path d="M6.14551 10.6455C6.66587 10.6455 7.09277 11.0566 7.09277 11.5654C7.09256 12.0741 6.66573 12.4844 6.14551 12.4844C5.62538 12.4842 5.19846 12.074 5.19824 11.5654C5.19824 11.0567 5.62525 10.6456 6.14551 10.6455ZM6.14551 11.3271C5.99354 11.3273 5.87988 11.4397 5.87988 11.5654C5.88012 11.6912 5.99356 11.8026 6.14551 11.8027C6.29748 11.8027 6.41188 11.6911 6.41211 11.5654C6.41211 11.4396 6.29764 11.3271 6.14551 11.3271Z" fill="#DB69A2" stroke="#DB69A2" stroke-width="0.13"/>
<path d="M11.5898 11.2393C11.7777 11.2394 11.9296 11.3922 11.9297 11.5801C11.9297 11.7681 11.7778 11.9207 11.5898 11.9209H7.91504C7.72688 11.9208 7.57422 11.7681 7.57422 11.5801C7.57433 11.3922 7.72695 11.2394 7.91504 11.2393H11.5898Z" fill="#DB69A2" stroke="#DB69A2" stroke-width="0.13"/>
</svg>
