<svg width="16" height="11" viewBox="0 0 16 11" fill="none" xmlns="http://www.w3.org/2000/svg">
<path d="M15.1886 4.43555L15.1879 4.43478L10.9679 0.235184C10.6518 -0.0794369 10.1404 -0.078262 9.82574 0.237931C9.51111 0.554062 9.51231 1.06541 9.82846 1.38005L12.6617 4.1996H0.807617C0.361572 4.1996 0 4.56117 0 5.00722C0 5.45326 0.361572 5.81484 0.807617 5.81484H12.6617L9.82849 8.63438C9.51236 8.94904 9.51114 9.46039 9.82579 9.77652C10.1405 10.0927 10.6519 10.0938 10.968 9.77927L15.1879 5.57967L15.1887 5.57889C15.5049 5.2632 15.5039 4.7502 15.1886 4.43555Z" fill="#91848C"/>
</svg>
