<svg width="19" height="22" viewBox="0 0 19 22" fill="none" xmlns="http://www.w3.org/2000/svg">
<path d="M14.9911 21.2902V17.7114H17.8212V11.8593H10.6454V20.5415H13.8499V21.4819H12.873H12.8639H9.70508V10.9189H18.7616V18.1404C18.7616 18.1678 18.7616 18.1952 18.7616 18.2226V18.3687L18.7525 18.4052L18.7433 18.4235L18.716 18.6517H18.6612C18.1591 20.0029 17.0544 21.0528 15.6758 21.4727L15.6484 21.4819C15.6484 21.4819 15.548 21.4819 15.5206 21.4819C15.4658 21.4819 15.4202 21.4819 15.3745 21.4819H15.265H15.2285L15.0094 21.5549L14.9911 21.2902ZM15.9314 20.3589C16.6801 20.0029 17.2826 19.3912 17.6387 18.6517H15.9314V20.3589ZM11.5949 16.0041V15.0638H16.8718V16.0041H11.5949ZM11.5949 14.306V13.3657H16.8718V14.306H11.5949Z" fill="white"/>
<path d="M0.684717 21.2354C0.310408 21.2354 0 20.9341 0 20.5507V18.6609C0 14.8812 2.29152 11.5307 5.8338 10.1247L6.26288 9.95124L5.89771 9.66822C4.56479 8.62744 3.80704 7.07542 3.80704 5.41384C3.80704 2.42847 6.24463 0 9.25739 0C12.261 0 14.7077 2.42847 14.7077 5.41384C14.7077 6.6372 14.2878 7.82404 13.5209 8.77352H11.5215C12.6536 8.02489 13.3383 6.77414 13.3383 5.41384C13.3383 3.17709 11.5124 1.36031 9.26652 1.36031C7.02065 1.36031 5.17647 3.17709 5.17647 5.41384C5.17647 6.91109 5.99813 8.27139 7.33105 8.9835V11.065C3.80704 11.9415 1.36031 15.0455 1.36031 18.6609V19.8659H7.24889V21.2263L0.684717 21.2354Z" fill="white"/>
</svg>
