<svg width="16" height="16" viewBox="0 0 16 16" fill="none" xmlns="http://www.w3.org/2000/svg">
<path d="M12.4571 16H3.54286C2.6037 15.9985 1.70344 15.6247 1.03935 14.9607C0.375261 14.2966 0.00151112 13.3963 0 12.4571V3.54286C0.00151112 2.6037 0.375261 1.70344 1.03935 1.03935C1.70344 0.375261 2.6037 0.00151112 3.54286 0H12.4571C13.3963 0.00151112 14.2966 0.375261 14.9607 1.03935C15.6247 1.70344 15.9985 2.6037 16 3.54286V12.4571C15.9985 13.3963 15.6247 14.2966 14.9607 14.9607C14.2966 15.6247 13.3963 15.9985 12.4571 16ZM3.54286 1.14286C2.90634 1.14286 2.29589 1.39571 1.8458 1.8458C1.39571 2.29589 1.14286 2.90634 1.14286 3.54286V12.4571C1.14286 13.0937 1.39571 13.7041 1.8458 14.1542C2.29589 14.6043 2.90634 14.8571 3.54286 14.8571H12.4571C13.0937 14.8571 13.7041 14.6043 14.1542 14.1542C14.6043 13.7041 14.8571 13.0937 14.8571 12.4571V3.54286C14.8571 2.90634 14.6043 2.29589 14.1542 1.8458C13.7041 1.39571 13.0937 1.14286 12.4571 1.14286H3.54286Z" fill="#9E2469"/>
<path d="M7.99984 7.51445C7.5267 7.51444 7.06422 7.37391 6.67106 7.11068C6.27789 6.84746 5.97177 6.47339 5.79149 6.03594C5.61122 5.59849 5.56493 5.11735 5.6585 4.65355C5.75206 4.18975 5.98125 3.76419 6.31702 3.43083C6.65278 3.09748 7.07999 2.87135 7.54445 2.78113C8.00891 2.69091 8.4897 2.74067 8.92585 2.92408C9.36199 3.1075 9.73384 3.41632 9.99422 3.81136C10.2546 4.20641 10.3918 4.66989 10.3884 5.14302C10.3839 5.77353 10.1302 6.37668 9.68278 6.82092C9.23533 7.26517 8.63037 7.51446 7.99984 7.51445ZM7.99984 3.88588C7.75395 3.88589 7.51356 3.95867 7.30896 4.09505C7.10436 4.23143 6.94469 4.42532 6.85008 4.65228C6.75547 4.87923 6.73014 5.12912 6.77729 5.37045C6.82444 5.61177 6.94195 5.83375 7.11503 6.00841C7.2881 6.18308 7.509 6.30261 7.74988 6.35196C7.99077 6.40131 8.24087 6.37826 8.46869 6.28573C8.6965 6.19319 8.89183 6.03531 9.03008 5.83196C9.16832 5.62861 9.2433 5.3889 9.24555 5.14302C9.24706 4.97847 9.21596 4.81525 9.15403 4.6628C9.0921 4.51034 9.00058 4.37166 8.88476 4.25477C8.76893 4.13788 8.63109 4.0451 8.47921 3.98178C8.32732 3.91847 8.16439 3.88587 7.99984 3.88588Z" fill="#9E2469"/>
<path d="M10.8172 13.2572H5.18286C4.93285 13.2561 4.68662 13.196 4.4642 13.0818C4.24178 12.9676 4.04946 12.8026 3.90286 12.6C3.75951 12.401 3.66644 12.1702 3.63161 11.9274C3.59678 11.6846 3.62123 11.437 3.70286 11.2057C4.0276 10.3309 4.61231 9.57634 5.37843 9.04352C6.14455 8.51069 7.05539 8.2251 7.98858 8.2251C8.92177 8.2251 9.83261 8.51069 10.5987 9.04352C11.3649 9.57634 11.9496 10.3309 12.2743 11.2057C12.3559 11.437 12.3804 11.6846 12.3455 11.9274C12.3107 12.1702 12.2177 12.401 12.0743 12.6C11.93 12.7995 11.7413 12.9627 11.5231 13.0767C11.305 13.1908 11.0633 13.2525 10.8172 13.2572ZM8.00001 9.28574C7.29362 9.2889 6.60545 9.51018 6.0296 9.91931C5.45375 10.3284 5.01832 10.9055 4.78286 11.5715C4.76142 11.6311 4.7549 11.6951 4.76387 11.7578C4.77283 11.8206 4.79701 11.8802 4.83429 11.9314C4.87418 11.9865 4.92659 12.0313 4.9872 12.0621C5.04781 12.0929 5.11488 12.1088 5.18286 12.1086H10.8172C10.8851 12.1088 10.9522 12.0929 11.0128 12.0621C11.0734 12.0313 11.1258 11.9865 11.1657 11.9314C11.203 11.8802 11.2272 11.8206 11.2361 11.7578C11.2451 11.6951 11.2386 11.6311 11.2171 11.5715C10.9817 10.9055 10.5463 10.3284 9.97042 9.91931C9.39456 9.51018 8.7064 9.2889 8.00001 9.28574Z" fill="#9E2469"/>
</svg>
