<svg width="17" height="17" viewBox="0 0 17 17" fill="none" xmlns="http://www.w3.org/2000/svg">
<path d="M8.67743 17.0005C8.53789 17.0005 8.40189 16.9453 8.30202 16.8447C8.17594 16.7193 8.12211 16.5387 8.15681 16.3652L8.63139 13.9916C8.65193 13.8882 8.70293 13.794 8.77659 13.7203L13.9983 8.49861C14.4672 8.03041 15.2294 8.03041 15.6983 8.49861L16.6481 9.44846C17.117 9.91737 17.117 10.6802 16.6481 11.1491L11.4264 16.3708C11.3527 16.4452 11.2578 16.4955 11.1551 16.516L8.78155 16.9906C8.74684 16.997 8.71213 17.0005 8.67743 17.0005ZM9.64074 14.3578L9.35458 15.7921L10.7882 15.5053L15.8966 10.3976C15.9426 10.3509 15.9426 10.246 15.8966 10.1993L14.9467 9.25013C14.8929 9.1963 14.8029 9.19559 14.7491 9.25013L9.64074 14.3578Z" fill="#9E2469"/>
<path d="M8.67662 10.625H3.36425C3.071 10.625 2.83301 10.387 2.83301 10.0937C2.83301 9.80049 3.071 9.5625 3.36425 9.5625H8.67662C8.96986 9.5625 9.20786 9.80049 9.20786 10.0937C9.20786 10.387 8.96986 10.625 8.67662 10.625Z" fill="#9E2469"/>
<path d="M7.9683 12.75H3.36425C3.071 12.75 2.83301 12.512 2.83301 12.2187C2.83301 11.9255 3.071 11.6875 3.36425 11.6875H7.9683C8.26155 11.6875 8.49954 11.9255 8.49954 12.2187C8.49954 12.512 8.26155 12.75 7.9683 12.75Z" fill="#9E2469"/>
<path d="M6.02113 4.95827C5.23985 4.95827 4.60449 4.32291 4.60449 3.54163C4.60449 2.76036 5.23985 2.125 6.02113 2.125C6.8024 2.125 7.43776 2.76036 7.43776 3.54163C7.43776 4.32291 6.8024 4.95827 6.02113 4.95827ZM6.02113 3.18747C5.82634 3.18747 5.66697 3.34614 5.66697 3.54163C5.66697 3.73713 5.82634 3.89579 6.02113 3.89579C6.21591 3.89579 6.37528 3.73713 6.37528 3.54163C6.37528 3.34614 6.21591 3.18747 6.02113 3.18747Z" fill="#9E2469"/>
<path d="M8.3228 8.5027C8.02955 8.5027 7.79156 8.26471 7.79156 7.97146V7.6173C7.79156 7.12927 7.39419 6.73191 6.90616 6.73191H5.13537C4.64734 6.73191 4.24997 7.12927 4.24997 7.6173V7.97146C4.24997 8.26471 4.01198 8.5027 3.71874 8.5027C3.42549 8.5027 3.1875 8.26471 3.1875 7.97146V7.6173C3.1875 6.54279 4.06085 5.66943 5.13537 5.66943H6.90616C7.98068 5.66943 8.85403 6.54279 8.85403 7.6173V7.97146C8.85403 8.26471 8.61604 8.5027 8.3228 8.5027Z" fill="#9E2469"/>
<path d="M6.55193 14.8747H1.94787C0.873355 14.8747 0 14.0013 0 12.9268V1.94787C0 0.873355 0.873355 0 1.94787 0H10.0935C11.168 0 12.0414 0.873355 12.0414 1.94787V7.96856C12.0414 8.26181 11.8034 8.4998 11.5101 8.4998C11.2169 8.4998 10.9789 8.26181 10.9789 7.96856V1.94787C10.9789 1.45984 10.5815 1.06248 10.0935 1.06248H1.94787C1.45984 1.06248 1.06248 1.45984 1.06248 1.94787V12.9268C1.06248 13.4148 1.45984 13.8122 1.94787 13.8122H6.55193C6.84517 13.8122 7.08317 14.0502 7.08317 14.3434C7.08317 14.6367 6.84517 14.8747 6.55193 14.8747Z" fill="#9E2469"/>
</svg>
