<svg width="419" height="419" viewBox="0 0 419 419" fill="none" xmlns="http://www.w3.org/2000/svg">
<path fill-rule="evenodd" clip-rule="evenodd" d="M209.218 196.142C245.327 196.142 274.599 166.87 274.599 130.761C274.599 94.6526 245.327 65.3806 209.218 65.3806C173.11 65.3806 143.837 94.6526 143.837 130.761C143.837 166.87 173.11 196.142 209.218 196.142ZM98.9359 240.088C94.2222 242.112 91.5328 246.825 91.5328 251.955C91.5328 300.569 130.943 339.979 179.558 339.979H238.879C287.493 339.979 326.903 300.569 326.903 251.955C326.903 246.825 324.213 242.114 319.5 240.088C305.303 233.991 270.127 222.294 209.218 222.294C148.31 222.294 113.134 233.991 98.9359 240.088ZM286.002 180.605C295.331 166.263 300.751 149.145 300.751 130.761C300.751 123.691 299.949 116.807 298.431 110.197C304.944 106.635 312.419 104.609 320.365 104.609C345.641 104.609 366.132 125.099 366.132 150.375C366.132 175.652 345.641 196.142 320.365 196.142C306.676 196.142 294.389 190.131 286.002 180.605ZM137.579 187.742C130.114 193.032 120.993 196.142 111.147 196.142C85.871 196.142 65.3806 175.652 65.3806 150.375C65.3806 125.099 85.871 104.609 111.147 104.609C114.585 104.609 117.935 104.988 121.156 105.707C118.895 113.669 117.685 122.074 117.685 130.761C117.685 152.303 125.127 172.107 137.579 187.742ZM65.3807 244.898C65.3807 239.266 67.7263 233.911 72.3687 230.724C73.3709 230.035 74.4835 229.296 75.7081 228.514C46.7666 239.297 26.1523 267.181 26.1523 299.88C26.1523 304.28 28.4399 308.327 32.472 310.089C41.8683 314.194 62.0283 321.215 94.8491 324.126C76.4871 302.877 65.3807 275.184 65.3807 244.898ZM346.068 230.724C345.066 230.036 343.953 229.296 342.729 228.516C371.671 239.298 392.284 267.182 392.284 299.88C392.284 304.28 389.997 308.328 385.964 310.09C376.568 314.194 356.408 321.216 323.587 324.127C341.949 302.878 353.055 275.184 353.055 244.898C353.055 239.266 350.71 233.911 346.068 230.724Z" fill="white"/>
</svg>
