<svg width="26" height="18" viewBox="0 0 26 18" fill="none" xmlns="http://www.w3.org/2000/svg">
<path d="M20.936 12.7591C20.5807 12.4361 20.1824 12.1992 19.7625 11.9947C18.7074 11.4886 17.5769 11.2087 16.4249 11.0041C16.2096 10.9719 16.005 10.9395 15.7682 10.9073C15.822 10.8642 15.8435 10.8319 15.8758 10.8104C16.7264 10.0136 17.1893 9.04467 17.2001 7.87113C17.2108 6.57917 17.2001 5.27644 17.2001 3.98449C17.2001 3.84452 17.1893 3.70455 17.1678 3.57537C16.8448 1.33596 14.7884 -0.203618 12.5598 0.11938C10.5788 0.399302 9.10379 2.10038 9.09303 4.10293C9.09303 5.34104 9.09303 6.56842 9.09303 7.80654C9.09303 8.72169 9.37295 9.55068 9.94357 10.272C10.1158 10.4874 10.3204 10.6919 10.5142 10.9073C10.4819 10.918 10.4388 10.918 10.4065 10.9288C9.40525 11.058 8.41475 11.2733 7.45654 11.6071C6.7352 11.8654 6.04615 12.1777 5.454 12.6729C5.09871 12.9744 4.77572 13.3189 4.71112 13.8034C4.61423 14.5463 4.78649 15.2246 5.28174 15.8059C5.69086 16.2796 6.21841 16.5596 6.7998 16.7534C7.7903 17.0979 8.82387 17.2271 9.85744 17.2809C10.8264 17.3348 11.8061 17.3563 12.7751 17.3563C14.4331 17.367 16.0804 17.3455 17.7169 17.0764C18.4167 16.9687 19.1165 16.8072 19.7732 16.5165C20.29 16.2904 20.7637 15.9997 21.119 15.5475C21.5066 15.0415 21.6681 14.4709 21.5928 13.8357C21.5389 13.405 21.2698 13.0605 20.936 12.7591ZM10.5788 4.15675C10.5788 2.85403 11.4401 1.80969 12.7213 1.57283C14.0886 1.31443 15.4667 2.2834 15.682 3.66149C15.7143 3.8553 15.7251 4.05986 15.7251 4.26441C15.7251 4.83503 15.7251 5.39488 15.7251 5.9655C15.7251 6.56842 15.7251 7.17132 15.7251 7.77424C15.7251 9.05543 14.8638 10.0998 13.6041 10.3366C12.1937 10.6166 10.7618 9.57222 10.6003 8.15106C10.5896 8.02188 10.5788 7.88191 10.5788 7.75271C10.5788 6.54689 10.5788 5.35182 10.5788 4.15675ZM20.4192 14.4924C20.3008 14.7293 20.1178 14.9016 19.8917 15.0415C19.5364 15.2676 19.138 15.3861 18.7397 15.4937C17.9753 15.6875 17.1893 15.7736 16.4034 15.8167C15.2406 15.8705 14.0671 15.9028 12.9366 15.9351C11.7523 15.8921 10.6003 15.8705 9.44831 15.8059C8.64084 15.7629 7.84413 15.6767 7.07972 15.4076C6.7998 15.3107 6.53064 15.1707 6.28301 15.0092C6.02462 14.8477 5.86312 14.5893 5.80929 14.2771C5.75546 14.008 5.80929 13.7711 6.02462 13.6096C6.23994 13.4481 6.47681 13.2866 6.72443 13.1682C7.40271 12.856 8.13482 12.6945 8.86693 12.5653C10.8587 12.2207 12.8613 12.1562 14.8746 12.2746C16.1235 12.3499 17.3723 12.4899 18.5889 12.8237C18.9873 12.9313 19.3749 13.0928 19.7625 13.2543C19.924 13.3189 20.0747 13.4266 20.2147 13.545C20.5377 13.8034 20.6022 14.1048 20.4192 14.4924ZM1.68578 12.5114C1.45969 12.3607 1.28743 12.1669 1.22283 11.8977C1.15823 11.6501 1.21206 11.424 1.41662 11.2625C1.55659 11.1549 1.69655 11.058 1.84728 10.9826C2.29946 10.7565 2.77318 10.6273 3.26843 10.5196C4.79726 10.1967 6.34761 10.1105 7.90873 10.1321C7.95179 10.1321 8.00563 10.1321 8.04869 10.1321C8.04869 9.58297 8.04869 9.04466 8.04869 8.50636C7.65034 8.61402 7.26274 8.62478 6.87516 8.51713C5.90619 8.25872 5.24944 7.39741 5.24944 6.36384C5.24944 5.42718 5.24944 4.4905 5.24944 3.55383C5.24944 3.41386 5.24944 3.28468 5.27097 3.15548C5.37864 1.97119 6.55217 1.05604 7.7257 1.24983C7.83336 1.27137 7.94102 1.2929 8.05946 1.31443C8.05946 0.916072 8.05946 0.528483 8.05946 0.140895C8.05946 0.108592 8.00563 0.0655469 7.97333 0.0547589C7.61804 -0.00983154 7.27351 0.00092591 6.91822 0.0547589C5.29251 0.291636 4.02208 1.72355 4.01131 3.3708C4.00055 4.40437 4.00055 5.43794 4.01131 6.48228C4.01131 7.18209 4.22664 7.8173 4.63576 8.37716C4.80802 8.61402 5.01258 8.82934 5.20638 9.05543C5.04488 9.07696 4.86185 9.10928 4.68959 9.13079C3.74215 9.28154 2.81625 9.50762 1.94417 9.90597C1.45969 10.1213 1.0075 10.3905 0.65221 10.7996C0.426121 11.058 0.275391 11.3487 0.275391 11.6932C0.275391 12.533 0.63068 13.179 1.35202 13.6096C1.76115 13.8465 2.1918 14.008 2.65475 14.1048C3.07464 14.191 3.50529 14.2556 3.94671 14.3309C3.94671 13.9111 3.94671 13.5127 3.94671 13.1251C3.53759 13.0605 3.13924 12.9959 2.74088 12.9206C2.36406 12.8452 2.00877 12.7268 1.68578 12.5114ZM25.0272 10.5196C24.8334 10.3689 24.6181 10.2182 24.4028 10.0998C23.5522 9.62605 22.6371 9.37843 21.6897 9.1954C21.3667 9.13079 21.0544 9.08773 20.7099 9.0339C20.7422 9.00161 20.7637 8.98007 20.7853 8.95854C21.5282 8.2695 21.9157 7.42973 21.9265 6.41769C21.9373 5.40565 21.9265 4.39361 21.9265 3.38156C21.9265 3.2093 21.905 3.02629 21.8834 2.85403C21.5928 1.02374 19.8055 -0.257451 17.986 0.0440015C17.9107 0.0547589 17.8784 0.0870618 17.8891 0.162425C17.8891 0.43159 17.8891 0.700755 17.8891 0.969905C17.8891 1.07757 17.8891 1.19599 17.8891 1.31443C17.9322 1.30366 17.9645 1.30366 17.986 1.2929C19.3641 0.969905 20.6669 1.96041 20.6884 3.3708C20.6991 4.3936 20.6991 5.41641 20.6884 6.43922C20.6669 7.66658 19.6763 8.61402 18.449 8.58172C18.266 8.58172 18.0829 8.53865 17.8891 8.51713C17.8891 9.04466 17.8891 9.58299 17.8891 10.1321C17.9214 10.1321 17.9537 10.1321 17.9753 10.1321C19.2242 10.1105 20.4623 10.1644 21.7004 10.3474C22.411 10.4551 23.1108 10.595 23.7891 10.8534C24.0583 10.9611 24.3166 11.0795 24.5427 11.2841C24.6935 11.424 24.7688 11.5855 24.7365 11.8009C24.6935 12.1239 24.5104 12.3499 24.252 12.5114C23.929 12.7268 23.5738 12.8344 23.1969 12.9098C22.9278 12.9636 22.6479 13.0067 22.3679 13.0605C22.3679 13.4481 22.3679 13.8465 22.3679 14.2556C22.4433 14.2448 22.5187 14.2341 22.594 14.2233C23.2292 14.1264 23.8429 13.9864 24.4243 13.6957C24.9949 13.405 25.4148 12.9744 25.5978 12.3392C25.7916 11.6071 25.6301 10.9934 25.0272 10.5196Z" fill="#DB69A2"/>
</svg>
