<svg width="44" height="18" viewBox="0 0 44 18" fill="none" xmlns="http://www.w3.org/2000/svg">
<path d="M20.6979 8.37927V13.3534H19.125V1.07031H23.2948C24.3516 1.07031 25.2527 1.42388 25.99 2.13092C26.7437 2.83797 27.1205 3.70122 27.1205 4.72068C27.1205 5.76483 26.7437 6.62808 25.99 7.32689C25.2609 8.02571 24.3598 8.37104 23.2948 8.37104H20.6979V8.37927ZM20.6979 2.58308V6.8665H23.3276C23.9502 6.8665 24.4745 6.65277 24.8841 6.23344C25.3019 5.81412 25.5148 5.30444 25.5148 4.72891C25.5148 4.16161 25.3019 3.66007 24.8841 3.24083C24.4744 2.80505 23.9584 2.59131 23.3276 2.59131H20.6979V2.58308Z" fill="#383E41"/>
<path d="M31.2318 4.67188C32.3951 4.67188 33.3127 4.98429 33.9844 5.60912C34.6562 6.23394 34.992 7.08896 34.992 8.17426V13.3539H33.4928V12.1864H33.4273C32.7801 13.1484 31.9117 13.6252 30.8304 13.6252C29.9047 13.6252 29.1346 13.3539 28.512 12.803C27.8894 12.2522 27.5781 11.5697 27.5781 10.7476C27.5781 9.87616 27.9058 9.18557 28.5612 8.6758C29.2166 8.15789 30.0932 7.903 31.1827 7.903C32.1166 7.903 32.8867 8.07567 33.4847 8.42092V8.05921C33.4847 7.50837 33.2717 7.04798 32.8375 6.66158C32.4033 6.27518 31.8954 6.08605 31.3138 6.08605C30.4372 6.08605 29.7409 6.45599 29.2329 7.20419L27.8484 6.3327C28.6103 5.22271 29.7409 4.67188 31.2318 4.67188ZM29.2002 10.7722C29.2002 11.1833 29.3723 11.5287 29.7245 11.7999C30.0686 12.0713 30.4782 12.211 30.9451 12.211C31.6087 12.211 32.1985 11.9644 32.7147 11.4711C33.2308 10.9778 33.4929 10.4022 33.4929 9.73633C33.0014 9.34993 32.3214 9.15257 31.4449 9.15257C30.8059 9.15257 30.2734 9.30878 29.8474 9.61296C29.4132 9.9336 29.2002 10.3201 29.2002 10.7722Z" fill="#383E41"/>
<path d="M43.5443 4.94141L38.3013 17.0436H36.6792L38.6289 12.8094L35.1719 4.94141H36.884L39.3744 10.976H39.4073L41.8321 4.94141H43.5443Z" fill="#383E41"/>
<path d="M14.3098 5.89844H7.7168V8.61156L11.5138 8.6124C11.3599 9.51512 10.8642 10.2847 10.1048 10.7977V10.7982C10.1051 10.798 10.1054 10.7979 10.1057 10.7977L10.0373 12.4193L12.3659 12.5571C12.3656 12.5574 12.3652 12.5577 12.365 12.558C13.6847 11.3322 14.4409 9.52008 14.4409 7.37921C14.4409 6.86448 14.395 6.37201 14.3098 5.89844Z" fill="#0085F7"/>
<path d="M10.104 10.7981C10.1038 10.7983 10.1034 10.7984 10.1032 10.7986C9.47414 11.2241 8.66419 11.4731 7.71683 11.4731C5.88587 11.4731 4.33266 10.2349 3.77643 8.56594H3.77618C3.77626 8.5662 3.77635 8.56653 3.77643 8.56678L1.83242 8.25781L1.44531 10.3818C2.60054 12.6819 4.97442 14.2602 7.71691 14.2602C9.61205 14.2602 11.2043 13.6348 12.3634 12.5583C12.3637 12.558 12.3641 12.5578 12.3643 12.5574L10.104 10.7981Z" fill="#00A94B"/>
<path d="M3.55745 7.21754C3.55745 6.74892 3.63527 6.29592 3.77703 5.87004L3.17 4.05469H1.44549C0.96792 5.00595 0.699219 6.07966 0.699219 7.21754C0.699219 8.35541 0.968757 9.42912 1.44549 10.3804L1.44583 10.3801L3.77703 8.56503C3.77694 8.56478 3.77686 8.56452 3.77678 8.56419C3.63519 8.13865 3.55745 7.6859 3.55745 7.21754Z" fill="#FFBB00"/>
<path d="M7.71725 0.175781C4.97534 0.175781 2.60045 1.75431 1.44531 4.05474L3.77677 5.8701C4.333 4.20113 5.88621 2.96298 7.71716 2.96298C8.7518 2.96298 9.67841 3.32066 10.41 4.01947L12.413 2.01096C11.1965 0.873756 9.61046 0.175781 7.71725 0.175781Z" fill="#FF4031"/>
</svg>
