<svg width="49" height="13" viewBox="0 0 49 13" fill="none" xmlns="http://www.w3.org/2000/svg">
<path d="M37.5871 3.23438H34.9777C34.8242 3.23438 34.6707 3.38842 34.594 3.54247L33.5195 10.3205C33.5195 10.4745 33.5963 10.5515 33.7498 10.5515H35.1312C35.2847 10.5515 35.3615 10.4745 35.3615 10.3205L35.6685 8.3949C35.6685 8.24085 35.8219 8.08681 36.0522 8.08681H36.8964C38.6616 8.08681 39.6593 7.23956 39.8895 5.54506C40.043 4.85185 39.8895 4.23567 39.5826 3.85056C39.1221 3.46544 38.4313 3.23438 37.5871 3.23438ZM37.8941 5.77613C37.7406 6.7004 37.0499 6.7004 36.3592 6.7004H35.8987L36.2057 4.92888C36.2057 4.85185 36.2824 4.77483 36.4359 4.77483H36.5894C37.0499 4.77483 37.5104 4.77483 37.7406 5.08292C37.8941 5.15994 37.8941 5.39101 37.8941 5.77613Z" fill="#139AD6"/>
<path d="M18.7864 3.23438H16.1769C16.0235 3.23438 15.87 3.38842 15.7932 3.54247L14.7188 10.3205C14.7188 10.4745 14.7955 10.5515 14.949 10.5515H16.1769C16.3304 10.5515 16.4839 10.3975 16.5607 10.2434L16.8677 8.3949C16.8677 8.24085 17.0212 8.08681 17.2514 8.08681H18.0956C19.8608 8.08681 20.8585 7.23956 21.0888 5.54506C21.2423 4.85185 21.0888 4.23567 20.7818 3.85056C20.3213 3.46544 19.7073 3.23438 18.7864 3.23438ZM19.0933 5.77613C18.9398 6.7004 18.2491 6.7004 17.5584 6.7004H17.1747L17.4816 4.92888C17.4816 4.85185 17.5584 4.77483 17.7119 4.77483H17.8654C18.3259 4.77483 18.7863 4.77483 19.0166 5.08292C19.0933 5.15994 19.1701 5.39101 19.0933 5.77613Z" fill="#263B80"/>
<path d="M26.692 5.70092H25.464C25.3873 5.70092 25.2338 5.77794 25.2338 5.85497L25.157 6.24008L25.0803 6.08603C24.7733 5.70092 24.2361 5.54688 23.6221 5.54688C22.2407 5.54688 21.0127 6.62519 20.7825 8.08863C20.629 8.85885 20.8592 9.55206 21.2429 10.0142C21.6267 10.4763 22.1639 10.6304 22.8546 10.6304C24.0058 10.6304 24.6198 9.93717 24.6198 9.93717L24.5431 10.3223C24.5431 10.4763 24.6198 10.5534 24.7733 10.5534H25.9245C26.078 10.5534 26.2315 10.3993 26.3083 10.2453L26.999 5.93199C26.9222 5.85497 26.7687 5.70092 26.692 5.70092ZM24.9268 8.16565C24.7733 8.85885 24.2361 9.39801 23.4686 9.39801C23.0849 9.39801 22.7779 9.24397 22.6244 9.08992C22.4709 8.85885 22.3941 8.55076 22.3941 8.16565C22.4709 7.47244 23.0849 6.93329 23.7756 6.93329C24.1593 6.93329 24.3896 7.08733 24.6198 7.24137C24.8501 7.47244 24.9268 7.85756 24.9268 8.16565Z" fill="#263B80"/>
<path d="M45.4146 5.70092H44.1867C44.1099 5.70092 43.9564 5.77794 43.9564 5.85497L43.8797 6.24008L43.803 6.08603C43.496 5.70092 42.9587 5.54688 42.3448 5.54688C40.9633 5.54688 39.7354 6.62519 39.5051 8.08863C39.3516 8.85885 39.5819 9.55206 39.9656 10.0142C40.3493 10.4763 40.8866 10.6304 41.5773 10.6304C42.7285 10.6304 43.3425 9.93717 43.3425 9.93717L43.2657 10.3223C43.2657 10.4763 43.3425 10.5534 43.496 10.5534H44.6472C44.8007 10.5534 44.9542 10.3993 45.0309 10.2453L45.7216 5.93199C45.6449 5.85497 45.5681 5.70092 45.4146 5.70092ZM43.6495 8.16565C43.496 8.85885 42.9587 9.39801 42.1913 9.39801C41.8075 9.39801 41.5005 9.24397 41.347 9.08992C41.1935 8.85885 41.1168 8.55076 41.1168 8.16565C41.1935 7.47244 41.8075 6.93329 42.4982 6.93329C42.882 6.93329 43.1122 7.08733 43.3425 7.24137C43.6495 7.47244 43.7262 7.85756 43.6495 8.16565Z" fill="#139AD6"/>
<path d="M33.3666 5.69922H32.0619C31.9084 5.69922 31.8316 5.77624 31.7549 5.85326L30.0664 8.47204L29.299 6.00731C29.2222 5.85326 29.1455 5.77624 28.9152 5.77624H27.6873C27.5338 5.77624 27.457 5.93029 27.457 6.08433L28.8385 10.1665L27.5338 12.0151C27.457 12.1691 27.5338 12.4002 27.6873 12.4002H28.9152C29.0687 12.4002 29.1455 12.3232 29.2222 12.2461L33.4433 6.16136C33.6736 5.93029 33.5201 5.69922 33.3666 5.69922Z" fill="#263B80"/>
<path d="M46.8733 3.46551L45.7988 10.3976C45.7988 10.5516 45.8756 10.6286 46.0291 10.6286H47.1035C47.257 10.6286 47.4105 10.4746 47.4873 10.3205L48.5617 3.54253C48.5617 3.38849 48.485 3.31147 48.3315 3.31147H47.1035C47.0268 3.23444 46.95 3.31147 46.8733 3.46551Z" fill="#139AD6"/>
<path d="M9.03686 0.924272C8.49963 0.30809 7.50192 0 6.12047 0H2.28311C2.05287 0 1.82263 0.231067 1.74588 0.462135L0.210938 10.5521C0.210938 10.7832 0.364432 10.9372 0.517926 10.9372H2.89709L3.51107 7.16311V7.31716C3.58781 7.08609 3.81805 6.85502 4.0483 6.85502H5.1995C7.42517 6.85502 9.11361 5.93075 9.65084 3.389C9.65084 3.31198 9.65084 3.23495 9.65084 3.15793C9.57409 3.15793 9.57409 3.15793 9.65084 3.15793C9.72759 2.15664 9.57409 1.54045 9.03686 0.924272Z" fill="#263B80"/>
<path d="M9.57326 3.15625C9.57326 3.23327 9.57326 3.3103 9.57326 3.38732C9.03603 6.00609 7.34759 6.85334 5.12192 6.85334H3.97072C3.74048 6.85334 3.51023 7.08441 3.43349 7.31548L2.66602 12.0139C2.66602 12.1679 2.74276 12.322 2.973 12.322H4.96843C5.19867 12.322 5.42891 12.1679 5.42891 11.9368V11.8598L5.81265 9.47212V9.31807C5.81265 9.087 6.04289 8.93296 6.27313 8.93296H6.58012C8.4988 8.93296 10.0337 8.16273 10.4175 5.85205C10.571 4.92777 10.4942 4.08052 10.0337 3.54136C9.957 3.38732 9.8035 3.23327 9.57326 3.15625Z" fill="#139AD6"/>
<path d="M9.03751 2.92638C8.96077 2.92638 8.88402 2.84936 8.80727 2.84936C8.73053 2.84936 8.65378 2.84936 8.57703 2.77233C8.27004 2.69531 7.96305 2.69531 7.57932 2.69531H4.58618C4.50943 2.69531 4.43268 2.69531 4.35594 2.77233C4.20244 2.84936 4.1257 3.0034 4.1257 3.15745L3.51172 7.16263V7.31668C3.58847 7.08561 3.81871 6.85454 4.04895 6.85454H5.20016C7.42582 6.85454 9.11426 5.93027 9.65149 3.38852C9.65149 3.31149 9.65149 3.23447 9.72824 3.15745C9.57474 3.08043 9.498 3.0034 9.3445 3.0034C9.11426 2.92638 9.11426 2.92638 9.03751 2.92638Z" fill="#232C65"/>
</svg>
