<svg width="23" height="21" viewBox="0 0 23 21" fill="none" xmlns="http://www.w3.org/2000/svg">
<path d="M22.2812 13.8079C21.8845 13.8079 21.5625 14.1299 21.5625 14.5266V19.5579H1.4375V10.9329H9.34375C9.7405 10.9329 10.0625 10.6109 10.0625 10.2141C10.0625 9.81736 9.7405 9.49536 9.34375 9.49536H1.4375V6.62036H9.34375C9.7405 6.62036 10.0625 6.29836 10.0625 5.90161C10.0625 5.50486 9.7405 5.18286 9.34375 5.18286H1.4375C0.644 5.18286 0 5.82686 0 6.62036V19.5579C0 20.3514 0.644 20.9954 1.4375 20.9954H21.5625C22.356 20.9954 23 20.3514 23 19.5579V14.5266C23 14.1299 22.678 13.8079 22.2812 13.8079Z" fill="white"/>
<path d="M6.46983 13.8072H3.59483C3.19808 13.8072 2.87608 14.1292 2.87608 14.5259C2.87608 14.9227 3.19808 15.2447 3.59483 15.2447H6.46983C6.86658 15.2447 7.18858 14.9227 7.18858 14.5259C7.18858 14.1292 6.86658 13.8072 6.46983 13.8072Z" fill="white"/>
<path d="M22.5645 3.08253L17.5332 0.926281C17.3506 0.850094 17.148 0.850094 16.9654 0.926281L11.9341 3.08253C11.6711 3.19609 11.5 3.45628 11.5 3.74378V6.61878C11.5 10.5733 12.962 12.8848 16.8921 15.1489C17.0028 15.2122 17.1264 15.2438 17.25 15.2438C17.3736 15.2438 17.4973 15.2122 17.608 15.1489C21.5381 12.8906 23 10.5791 23 6.61878V3.74378C23 3.45628 22.829 3.19609 22.5645 3.08253ZM21.5625 6.61878C21.5625 9.93797 20.4643 11.765 17.25 13.6913C14.0358 11.7607 12.9375 9.93366 12.9375 6.61878V4.21816L17.25 2.36953L21.5625 4.21816V6.61878Z" fill="white"/>
<path d="M19.8563 5.34048C19.5472 5.0961 19.0958 5.14354 18.8457 5.45261L16.586 8.27873L15.6918 6.94186C15.469 6.61123 15.022 6.52354 14.6956 6.74204C14.3665 6.96198 14.2759 7.40904 14.4958 7.73823L15.9333 9.89448C16.0613 10.0857 16.2711 10.2035 16.5011 10.215C16.5112 10.215 16.5227 10.215 16.5313 10.215C16.7484 10.215 16.9554 10.1173 17.0934 9.94479L19.9684 6.35104C20.2156 6.04054 20.1668 5.58917 19.8563 5.34048Z" fill="white"/>
</svg>
