<svg width="40" height="25" viewBox="0 0 40 25" fill="none" xmlns="http://www.w3.org/2000/svg">
<path d="M5.84562 18.5359C5.79191 18.5667 5.73819 18.5744 5.6768 18.5667C5.61541 18.5513 5.56937 18.5205 5.531 18.4742C5.18568 17.9737 4.60248 17.681 3.99625 17.6964C2.82985 17.6964 2.10852 18.6283 2.10852 19.9529C2.10852 21.2775 2.83752 22.2248 4.0116 22.2248C4.31855 22.2325 4.61783 22.1632 4.88641 22.0168C5.15499 21.8782 5.3852 21.6703 5.54635 21.4084C5.57704 21.3622 5.63076 21.3237 5.68447 21.316C5.73819 21.3006 5.79958 21.3083 5.8533 21.3391L6.40581 21.6626C6.4365 21.678 6.45952 21.7011 6.48254 21.7242C6.50556 21.7473 6.52091 21.7781 6.52858 21.8166C6.53626 21.8474 6.53626 21.8859 6.52858 21.9167C6.52091 21.9475 6.50556 21.9783 6.49022 22.0091C5.93771 22.8409 5.00151 23.3261 4.00393 23.303C2.13921 23.303 0.873047 21.9398 0.873047 19.9606C0.873047 17.9814 2.13921 16.6336 3.98091 16.6336C4.95547 16.6105 5.88399 17.0726 6.45185 17.8658C6.47487 17.8889 6.48254 17.9198 6.49022 17.9583C6.49789 17.9891 6.49789 18.0199 6.49022 18.0584C6.48254 18.0892 6.47487 18.12 6.45185 18.1508C6.4365 18.1816 6.41348 18.2047 6.38278 18.2201L5.84562 18.5359Z" fill="#009735"/>
<path d="M9.93598 22.9488V22.6792C9.64437 23.0566 9.23766 23.2953 8.57772 23.2953C7.61083 23.2953 6.93555 22.764 6.93555 21.8321C6.93555 20.6692 7.9715 20.469 8.60842 20.3766C9.29138 20.2764 9.87458 20.2302 9.87458 19.7836C9.87458 19.3831 9.41416 19.283 9.03047 19.283C8.5854 19.2907 8.14799 19.3985 7.75663 19.6064C7.72594 19.6218 7.70292 19.6295 7.67223 19.6372C7.64153 19.6372 7.61083 19.6372 7.58014 19.6295C7.54944 19.6218 7.52642 19.6064 7.5034 19.5833C7.48038 19.5602 7.45736 19.5371 7.44969 19.5063L7.25017 19.0904C7.22715 19.0365 7.21947 18.9749 7.23482 18.9133C7.25017 18.8594 7.28854 18.8055 7.34225 18.7747C7.89476 18.482 8.50866 18.3203 9.13791 18.3203C10.2506 18.3203 11.041 18.7824 11.041 19.8914V22.9565C11.041 23.0874 10.9412 23.1875 10.8108 23.1875C10.8108 23.1875 10.8108 23.1875 10.8031 23.1875H10.1892C10.1585 23.1875 10.1278 23.1875 10.0971 23.1721C10.0664 23.1567 10.0434 23.1413 10.0204 23.1259C9.99736 23.1028 9.98202 23.0797 9.96667 23.0489C9.94365 23.0104 9.93598 22.9796 9.93598 22.9488ZM9.87458 20.8309C9.65972 20.9927 9.26069 21.0466 8.83863 21.1236C8.41658 21.2006 8.06358 21.3161 8.06358 21.7705C8.06358 22.1941 8.37053 22.3943 8.80794 22.3943C9.35277 22.3943 9.86691 22.0862 9.86691 21.3777V20.8309H9.87458Z" fill="#009735"/>
<path d="M12.0321 21.9707C12.1165 21.8706 12.2547 21.8629 12.3544 21.9399C12.7458 22.2325 13.2216 22.3943 13.7127 22.3789C14.2191 22.3789 14.5875 22.2171 14.5875 21.8167C14.5875 21.4547 14.2422 21.3854 13.4211 21.2391C12.5463 21.0928 11.7022 20.8001 11.7022 19.7912C11.7022 18.7439 12.6 18.3049 13.6283 18.3049C14.2729 18.2972 14.8944 18.5051 15.4086 18.8902C15.4623 18.9287 15.493 18.9903 15.493 19.0519C15.493 19.0827 15.493 19.1135 15.4853 19.1443C15.4776 19.1751 15.4623 19.2059 15.4393 19.229L15.1477 19.5756C15.1093 19.6218 15.0556 19.6526 14.9942 19.6603C14.9328 19.668 14.8714 19.6526 14.8254 19.6141C14.4647 19.3523 14.0273 19.2136 13.5822 19.2136C13.1525 19.2136 12.7765 19.3369 12.7765 19.6834C12.7765 20.0608 13.306 20.1378 13.8355 20.2225C14.9712 20.4227 15.6848 20.7462 15.6848 21.6858C15.6848 22.6792 14.8944 23.2876 13.6359 23.2876C12.953 23.3107 12.2777 23.0874 11.7328 22.6638C11.6868 22.6253 11.6561 22.5637 11.6484 22.5021C11.6484 22.4713 11.6484 22.4405 11.6561 22.4097C11.6638 22.3789 11.6791 22.3481 11.7022 22.325L12.0321 21.9707Z" fill="#009735"/>
<path d="M16.3828 22.9495V16.981C16.3828 16.8501 16.4826 16.75 16.613 16.75H17.2883C17.4188 16.75 17.5185 16.8578 17.5185 16.981V19.0219C17.8562 18.5675 18.401 18.3057 18.9689 18.3211C19.9664 18.3211 20.5496 19.0296 20.5496 20.0538V22.9572C20.5496 23.0882 20.4499 23.1883 20.3194 23.1883H19.6441C19.5137 23.1883 19.4139 23.0882 19.4139 22.9649C19.4139 22.9649 19.4139 22.9649 19.4139 22.9572V20.3157C19.4139 19.8074 19.2528 19.353 18.6082 19.353C17.9943 19.353 17.5262 19.7843 17.5262 20.5082V22.9649C17.5262 23.0265 17.5032 23.0882 17.4571 23.1267C17.4111 23.1729 17.3574 23.196 17.296 23.196H16.6207C16.59 23.196 16.5593 23.1883 16.5286 23.1806C16.4749 23.1575 16.4289 23.1113 16.4058 23.0496C16.3905 23.0111 16.3828 22.9803 16.3828 22.9495Z" fill="#009735"/>
<path d="M27.9714 23.0268L27.4879 21.5866H25.0323L24.5489 23.0268C24.5335 23.073 24.5028 23.1115 24.4645 23.1423C24.4261 23.1731 24.3801 23.1885 24.3264 23.1885H23.536C23.4592 23.1885 23.3902 23.15 23.3441 23.0884C23.3211 23.0576 23.3057 23.0191 23.3057 22.9883C23.2981 22.9498 23.3057 22.9113 23.3211 22.8804L25.5311 16.912C25.5695 16.8195 25.6539 16.7656 25.7537 16.7656H26.8357C26.8817 16.7656 26.9277 16.781 26.9738 16.8041C27.0122 16.8349 27.0428 16.8734 27.0582 16.9197L29.2606 22.8881C29.2759 22.9267 29.2759 22.9652 29.2759 22.996C29.2682 23.0345 29.2606 23.073 29.2375 23.1038C29.2145 23.1346 29.1838 23.1577 29.1531 23.1808C29.1224 23.1962 29.0841 23.2039 29.0457 23.2039H28.2093C28.0865 23.1885 28.0021 23.1269 27.9714 23.0268ZM26.2755 17.7899L25.3316 20.5855H27.181L26.2755 17.7899Z" fill="#009735"/>
<path d="M30.9424 18.6597V19.0294C31.28 18.5596 31.8248 18.2977 32.4004 18.3131C33.6972 18.3131 34.5337 19.3913 34.5337 20.793C34.5337 22.1946 33.6972 23.2882 32.4004 23.2882C31.8248 23.3113 31.28 23.034 30.9424 22.5643V24.505C30.9424 24.6359 30.8426 24.736 30.7198 24.736C30.7198 24.736 30.7198 24.736 30.7121 24.736H30.0369C29.9064 24.736 29.8066 24.6359 29.8066 24.505C29.8066 24.505 29.8066 24.505 29.8066 24.4973V18.6289C29.8066 18.498 29.9064 18.3979 30.0369 18.3979H30.7121C30.7428 18.3979 30.7735 18.4056 30.8042 18.4133C30.8349 18.4287 30.8579 18.4441 30.881 18.4672C30.904 18.4903 30.9193 18.5134 30.9347 18.5442C30.9347 18.5981 30.9424 18.6289 30.9424 18.6597ZM32.1625 22.2947C32.9529 22.2947 33.3289 21.617 33.3289 20.8007C33.3289 19.9843 32.9452 19.322 32.1625 19.322C31.3798 19.322 30.9424 19.9766 30.9424 20.8007C30.9424 21.617 31.3567 22.2947 32.1625 22.2947Z" fill="#009735"/>
<path d="M36.3759 18.6597V19.0294C36.7136 18.5596 37.2584 18.2977 37.834 18.3131C39.1308 18.3131 39.9672 19.3913 39.9672 20.793C39.9672 22.1946 39.1308 23.2882 37.834 23.2882C37.2584 23.3113 36.7136 23.034 36.3759 22.5643V24.505C36.3759 24.6359 36.2762 24.736 36.1534 24.736C36.1534 24.736 36.1534 24.736 36.1457 24.736H35.4704C35.34 24.736 35.2402 24.6282 35.2402 24.505V18.6366C35.2402 18.5134 35.3477 18.4056 35.4704 18.4056H36.1457C36.1764 18.4056 36.2071 18.4133 36.2378 18.421C36.2685 18.4364 36.2915 18.4518 36.3146 18.4749C36.3376 18.498 36.3529 18.5211 36.3683 18.5519C36.3759 18.5981 36.3836 18.6289 36.3759 18.6597ZM37.6037 22.2947C38.3941 22.2947 38.7701 21.617 38.7701 20.793C38.7701 19.9689 38.3865 19.3143 37.6037 19.3143C36.821 19.3143 36.3836 19.9766 36.3836 20.793C36.3759 21.617 36.798 22.2947 37.6037 22.2947Z" fill="#009735"/>
<path d="M16.942 0H23.6258C25.2219 0 26.5111 1.29381 26.5111 2.89568V9.67281C26.5111 11.2747 25.2219 12.5685 23.6258 12.5685H16.942C15.3458 12.5685 14.0566 11.2747 14.0566 9.67281V2.89568C14.0566 1.29381 15.3535 0 16.942 0Z" fill="#009735"/>
<path d="M22.3125 4.6806C21.8367 4.28013 21.2305 4.0568 20.6089 4.0568C20.0948 4.0568 19.5806 4.22622 19.5806 4.7037C19.5806 5.13498 20.0411 5.3044 20.6013 5.51234L20.7701 5.57395C21.8828 5.95131 22.8036 6.41339 22.8036 7.50697C22.8036 8.70067 21.8828 9.50931 20.3787 9.60172L20.2406 10.2409C20.2176 10.3564 20.1101 10.4412 19.995 10.4412H19.0435C18.9667 10.4412 18.89 10.4027 18.844 10.341C18.7979 10.2794 18.7749 10.2024 18.7903 10.1254L18.9361 9.4477C18.3682 9.30137 17.8464 9.01642 17.4167 8.61596C17.3169 8.51584 17.3092 8.35411 17.409 8.254L17.4167 8.24629L17.9385 7.73031C18.0382 7.63019 18.1994 7.63019 18.2991 7.73031C18.7826 8.19239 19.4195 8.44653 20.0871 8.43113C20.7701 8.43113 21.2382 8.13848 21.2382 7.6764C21.2382 7.26053 20.8545 7.12191 20.1332 6.85236L19.8953 6.75995C18.9667 6.42879 18.0843 5.95131 18.0843 4.85003C18.0843 3.57162 19.1509 2.94781 20.4017 2.8862L20.5322 2.23929C20.5552 2.12377 20.6626 2.03906 20.7854 2.03906H21.7293C21.8674 2.03906 21.9825 2.15458 21.9825 2.2932C21.9825 2.30861 21.9825 2.33171 21.9749 2.34711L21.8291 3.07103C22.3125 3.22506 22.7576 3.4792 23.1413 3.81036C23.195 3.85657 23.2257 3.91818 23.2257 3.99519C23.2257 4.0645 23.2026 4.13381 23.1489 4.18002L22.6578 4.6729C22.5657 4.76532 22.4123 4.76532 22.3125 4.6806Z" fill="#F3E8EF"/>
</svg>
