<svg width="49" height="15" viewBox="0 0 49 15" fill="none" xmlns="http://www.w3.org/2000/svg">
<path d="M19.1346 0.263763L12.8739 14.7707H8.78753L5.7088 3.19459C5.51922 2.48062 5.35721 2.22091 4.78892 1.9178C3.85805 1.42899 2.3267 0.970472 0.974609 0.684951L1.06918 0.263869H7.64358C8.48207 0.263869 9.23588 0.806966 9.42546 1.7432L11.0534 10.1395L15.0743 0.263869L19.1346 0.263763ZM35.1409 10.032C35.159 6.2054 29.6881 5.9971 29.7274 4.28515C29.738 3.76264 30.2481 3.20962 31.3652 3.07001C31.9198 2.99834 33.4464 2.94586 35.1765 3.7171L35.8546 0.642288C34.9238 0.314211 33.7272 0 32.24 0C28.4204 0 25.7314 1.97283 25.7088 4.79561C25.6837 6.8831 27.6272 8.0479 29.0932 8.74309C30.5985 9.45449 31.1018 9.90863 31.0965 10.5465C31.0866 11.5202 29.8954 11.9458 28.7844 11.9649C26.841 11.9943 25.7137 11.4548 24.8135 11.0477L24.1138 14.2283C25.0155 14.6303 26.685 14.9794 28.4129 15C32.4723 14.9999 35.1281 13.0481 35.1409 10.032ZM45.2277 14.7706H48.8029L45.6833 0.263656H42.3828C41.6412 0.263656 41.016 0.68367 40.7374 1.32702L34.9418 14.7705H38.9983L39.8035 12.604H44.7621L45.2277 14.7706ZM40.9153 9.63079L42.9503 4.18372L44.1211 9.63079H40.9153ZM24.6575 0.263763L21.46 14.7706H17.5946L20.7929 0.263656H24.6575V0.263763Z" fill="#21246E"/>
</svg>
