<svg width="46" height="10" viewBox="0 0 46 10" fill="none" xmlns="http://www.w3.org/2000/svg">
<g clip-path="url(#clip0_2062_3532)">
<path d="M25.2974 0.154496H28.051L26.6648 9.68835H23.9112L25.2974 0.154496ZM21.8252 0.154496L19.9666 5.64711L19.1591 0.154496H17.2333L14.8 5.63023L14.4958 0.154496H11.8217L12.7517 9.68835H14.9655L17.7029 3.65829L18.6652 9.68835H20.8455L24.4442 0.153197L21.8252 0.154496ZM44.9479 5.69255H38.4085C38.4421 6.93101 39.216 7.74627 40.3438 7.74627C41.197 7.74627 41.8726 7.30619 42.3962 6.46626L44.6033 7.43471C43.8443 8.87699 42.2454 9.81558 40.2752 9.81558C37.5835 9.81558 35.8057 8.07212 35.8057 5.27194C35.8057 2.19135 37.9011 0.00780064 40.8579 0.00780064C43.4607 0.00780064 45.0986 1.70323 45.0986 4.34373C45.0964 4.79713 45.0459 5.24912 44.9479 5.69255ZM42.4985 3.87509C42.4985 2.76774 41.8565 2.06672 40.8256 2.06672C39.761 2.06672 38.8822 2.80019 38.6454 3.87509H42.4985ZM3.21378 3.03257L0.402344 6.20144H5.42228L5.98618 4.70723H3.83285L5.14638 3.24158V3.20263L4.29178 1.78372H8.13681L5.15715 9.69484H7.19608L10.7948 0.15969H1.50458L3.21378 3.03257ZM32.5286 2.05763C33.5003 2.05763 34.3508 2.56133 35.0951 3.42592L35.4854 0.737379C34.7936 0.285611 33.8556 0.00390625 32.6134 0.00390625C30.1465 0.00390625 28.7603 1.39816 28.7603 3.16628C28.7603 4.39307 29.4695 5.14212 30.6363 5.63283L31.1935 5.87689C32.2325 6.30529 32.5111 6.51689 32.5111 6.96866C32.5111 7.42043 32.0427 7.73459 31.3281 7.73459C30.1492 7.73459 29.195 7.1556 28.4763 6.16249L28.0725 8.90166C28.8908 9.50272 29.9392 9.82207 31.3214 9.82207C33.6658 9.82207 35.1058 8.52388 35.1058 6.70643C35.1058 5.47575 34.5406 4.68516 33.1127 4.06592L32.5044 3.78811C31.6592 3.42592 31.3725 3.226 31.3725 2.82616C31.3792 2.39516 31.7682 2.05763 32.5286 2.05763Z" fill="#163300"/>
</g>
<defs>
<clipPath id="clip0_2062_3532">
<rect width="44.6976" height="9.81167" fill="white" transform="translate(0.402344 0.0078125)"/>
</clipPath>
</defs>
</svg>
