<svg width="51" height="18" viewBox="0 0 51 18" fill="none" xmlns="http://www.w3.org/2000/svg">
<path d="M4.81641 4.32959H6.57299L5.69493 2.08594L4.81641 4.32959Z" fill="#306FC5"/>
<path d="M14.1582 11.8594V12.9012H17.1125V14.0233H14.1582V15.2255H17.4317L18.9487 13.5424L17.5116 11.8594H14.1582Z" fill="#306FC5"/>
<path d="M37.2297 2.08594L36.2715 4.32959H38.1081L37.2297 2.08594Z" fill="#306FC5"/>
<path d="M22.6991 15.8642V11.2969L20.623 13.5406L22.6991 15.8642Z" fill="#306FC5"/>
<path d="M26.6138 12.5809C26.5339 12.1001 26.2142 11.8594 25.7349 11.8594H24.0586V13.3017H25.8153C26.2942 13.3018 26.6138 13.0615 26.6138 12.5809Z" fill="#306FC5"/>
<path d="M32.2023 13.1434C32.362 13.0631 32.4422 12.8225 32.4422 12.5826C32.5221 12.2623 32.362 12.1018 32.2023 12.0216C32.043 11.9414 31.8032 11.9414 31.564 11.9414H29.9668V13.2236H31.5639C31.8031 13.2236 32.0429 13.2236 32.2023 13.1434Z" fill="#306FC5"/>
<path d="M43.6984 0V0.961534L43.2197 0H39.4675V0.961534L38.9882 0H33.8783C33.0001 0 32.2812 0.16041 31.6428 0.480882V0H28.0501V0.0802044V0.480882C27.651 0.160525 27.1719 0 26.5331 0H13.6786L12.7999 2.00327L11.9219 0H9.04772H7.84999V0.961534L7.45075 0H7.37083H3.9377L2.34061 3.76593L0.504461 7.85244L0.470703 7.93276H0.504461H4.57647H4.62745L4.65639 7.85244L5.13566 6.65075H6.17356L6.6526 7.93276H11.283V7.85244V6.97123L11.6825 7.93264H13.9977L14.3967 6.97123V7.85244V7.93276H16.2331H25.415H25.4949V5.84929H25.655C25.8145 5.84929 25.8145 5.84929 25.8145 6.08978V7.85256H31.5631V7.37179C32.0422 7.61252 32.7603 7.85256 33.7185 7.85256H36.1141L36.5931 6.57078H37.7106L38.1896 7.85256H42.8203V7.05143V6.65087L43.5392 7.85256H43.6984H43.7786H47.2916V0H43.6987H43.6984ZM16.6325 6.73107H15.8339H15.355V6.25065V2.32386L15.2751 2.50766V2.50547L13.4177 6.73107H13.3589H12.9319H12.241L10.3249 2.32386V6.73107H7.61047L7.05162 5.52916H4.33672L3.77775 6.73107H2.37426L4.73619 1.12194H6.73206L8.96757 6.49046V1.12194H9.44651H11.0829L11.1205 1.20226H11.1233L12.1306 3.40259L12.854 5.05116L12.8796 4.96807L14.4764 1.12206H16.6324V6.73107H16.6325ZM22.1418 2.32386H19.0279V3.36548H22.0619V4.48719H19.0279V5.60936H22.1418V6.81093H17.6707V1.12206H22.1418V2.32386ZM27.8365 4.39005C27.8386 4.39189 27.8412 4.39316 27.8437 4.39489C27.8739 4.42692 27.8998 4.45907 27.9218 4.48984C28.0748 4.69104 28.1984 4.99031 28.2046 5.42913C28.2051 5.43674 28.2054 5.44423 28.2059 5.45183C28.2059 5.45621 28.2067 5.46002 28.2067 5.46451C28.2067 5.46705 28.2065 5.469 28.2065 5.47142C28.2083 5.51556 28.2095 5.56062 28.2095 5.60936V6.73119H27.0121V6.0899C27.0121 5.76943 27.0121 5.28854 26.7722 4.96807C26.6968 4.89236 26.6204 4.84246 26.5373 4.80697C26.4176 4.72919 26.1908 4.72792 25.8145 4.72792H24.3769V6.73119H23.0199V1.12206H26.0541C26.7722 1.12206 27.2515 1.12206 27.6508 1.36244C28.042 1.59821 28.2784 1.98921 28.2873 2.60838C28.2688 3.46112 27.7234 3.92899 27.3313 4.08674C27.3313 4.08674 27.5977 4.14056 27.8365 4.39005ZM30.5251 6.73107H29.1677V1.12194H30.5251V6.73107ZM46.0944 6.73107H44.3375L41.7827 2.48404V6.00969L41.7743 6.0014V6.73453H40.4255V6.73119H39.068L38.589 5.52927H35.7943L35.3152 6.81105H33.7983C33.16 6.81105 32.361 6.65099 31.8822 6.17022C31.4032 5.68945 31.1639 5.04839 31.1639 4.00688C31.1639 3.20565 31.3234 2.40383 31.8822 1.763C32.2811 1.28189 33 1.12206 33.8781 1.12206H35.1559V2.32386H33.8781C33.399 2.32386 33.16 2.40372 32.84 2.64456C32.6009 2.88483 32.4411 3.36548 32.4411 3.92634C32.4411 4.56751 32.521 4.96807 32.84 5.28855C33.0801 5.52927 33.3992 5.60948 33.7983 5.60948H34.3571L36.1933 1.20249H36.9921H38.1895L40.4254 6.57101V6.29721V4.48742V4.32736V1.20261H42.4212L44.7362 5.12871V1.20261H46.0941V6.7313H46.0944V6.73107Z" fill="#306FC5"/>
<path d="M26.6982 3.45849C26.7215 3.43348 26.7427 3.40514 26.7606 3.37264C26.8329 3.25775 26.9158 3.05078 26.8712 2.76834C26.8693 2.74241 26.8646 2.71844 26.8591 2.69528C26.8576 2.68883 26.8578 2.68318 26.8561 2.67673L26.8553 2.67684C26.8156 2.5396 26.7142 2.45524 26.613 2.40408C26.453 2.32422 26.2134 2.32422 25.974 2.32422H24.377V3.60645H25.974C26.2134 3.60645 26.4531 3.60646 26.613 3.52614C26.637 3.51392 26.6584 3.49733 26.6789 3.47854L26.6792 3.47958C26.6792 3.47958 26.6874 3.47094 26.6982 3.45849Z" fill="#306FC5"/>
<path d="M50.8037 14.7441C50.8037 14.1832 50.6442 13.6222 50.4048 13.2216V9.61596H50.4011V9.37523C50.4011 9.37523 47.0545 9.37523 46.5564 9.37523C46.0586 9.37523 45.4544 9.85588 45.4544 9.85588V9.37523H41.7818C41.2226 9.37523 40.5045 9.53564 40.1847 9.85588V9.37523H33.6379V9.61596V9.85577C33.1592 9.45543 32.2802 9.37512 31.8813 9.37512H27.5698V9.61584V9.85565C27.1707 9.45532 26.2121 9.375 25.7329 9.375H20.9431L19.825 10.577L18.787 9.375H18.4528H17.9089H11.6016V9.61573V10.2487V17.4684H18.6276L19.7821 16.3095L20.7828 17.4684H20.8629H24.9114H25.0949H25.1748H25.2543V16.6672V15.6255H25.6537C26.2121 15.6255 26.931 15.6255 27.4899 15.3848V17.3878V17.5485H31.0828V17.3878V15.465H31.2421C31.482 15.465 31.482 15.465 31.482 15.7054V17.3878V17.5485H42.3401C43.0592 17.5485 43.7773 17.3878 44.1765 17.0674V17.3878V17.5485H47.6099C48.3281 17.5485 49.0472 17.4684 49.5262 17.1477C50.2613 16.7051 50.7247 15.9216 50.7936 14.9871C50.7968 14.9595 50.8008 14.9318 50.8033 14.904L50.7986 14.8995C50.8016 14.8477 50.8037 14.7964 50.8037 14.7441ZM25.6539 14.2634H24.0566V14.5032V14.9842V15.4651V16.3466H21.4323L19.905 14.5836L19.8997 14.5894L19.825 14.5032L18.0686 16.3466H12.9588V10.7377H18.1485L19.5663 12.2962L19.8644 12.6226L19.9048 12.5805L21.5817 10.7378H25.8132C26.6344 10.7378 27.5541 10.9412 27.9026 11.7798C27.9445 11.9458 27.9688 12.1304 27.9688 12.3401C27.9688 13.9426 26.851 14.2634 25.6539 14.2634ZM33.6379 14.1831C33.7974 14.4229 33.8773 14.744 33.8773 15.225V16.3465H32.5202V15.6255C32.5202 15.3045 32.5202 14.744 32.2804 14.5032C32.1211 14.2634 31.8013 14.2634 31.3226 14.2634H29.8856V16.3466H28.5284V10.6575H31.5621C32.2004 10.6575 32.7593 10.6575 33.1592 10.8976C33.5581 11.1382 33.8773 11.5389 33.8773 12.18C33.8773 13.0612 33.3187 13.5419 32.9193 13.7025C33.3187 13.8621 33.5581 14.0228 33.6379 14.1831ZM39.1472 11.8589H36.0329V12.9007H39.067V14.0227H36.0329V15.1447H39.1472V16.3465H34.676V10.6573H39.1472V11.8589ZM42.5003 16.3466H39.9452V15.1448H42.5003C42.7393 15.1448 42.8994 15.1448 43.0595 14.9844C43.1394 14.904 43.2187 14.7441 43.2187 14.5837C43.2187 14.423 43.1394 14.2636 43.0595 14.1832C42.9793 14.1032 42.8194 14.0229 42.58 14.0229C41.3024 13.9427 39.7855 14.0229 39.7855 12.2603C39.7855 11.4589 40.2645 10.5774 41.7018 10.5774H44.3364V11.9394H41.8615C41.6221 11.9394 41.4621 11.9394 41.3023 12.0196C41.1431 12.0999 41.1431 12.2603 41.1431 12.4204C41.1431 12.6609 41.3023 12.7411 41.462 12.8206C41.6221 12.9009 41.7816 12.9009 41.9411 12.9009H42.6598C43.3784 12.9009 43.8574 13.0612 44.1767 13.3818C44.4163 13.6223 44.5761 14.0229 44.5761 14.5837C44.5761 15.7853 43.8575 16.3466 42.5003 16.3466ZM49.3666 15.7853C49.0477 16.1062 48.4885 16.3466 47.6897 16.3466H45.1354V15.1448H47.6896C47.9293 15.1448 48.0893 15.1448 48.2488 14.9844C48.3284 14.904 48.4085 14.7441 48.4085 14.5837C48.4085 14.423 48.3284 14.2636 48.2488 14.1832C48.1689 14.1032 48.0094 14.0229 47.7698 14.0229C46.4927 13.9427 44.9753 14.0229 44.9753 12.2604C44.9753 11.4988 45.4095 10.8108 46.4802 10.6065C46.6082 10.5888 46.7435 10.5774 46.8916 10.5774H49.5266V11.9394H47.7698H47.1312H47.0513C46.8117 11.9394 46.6522 11.9394 46.4927 12.0196C46.4123 12.0999 46.3324 12.2603 46.3324 12.4204C46.3324 12.6609 46.4123 12.7411 46.6522 12.8206C46.8117 12.9009 46.9714 12.9009 47.1312 12.9009H47.2106H47.8496C48.1985 12.9009 48.4624 12.9441 48.7039 13.0293C48.925 13.1096 49.6571 13.4382 49.8209 14.2962C49.8351 14.3861 49.8456 14.4799 49.8456 14.5837C49.8456 15.0646 49.6858 15.4651 49.3666 15.7853Z" fill="#306FC5"/>
</svg>
