<svg width="41" height="24" viewBox="0 0 41 24" fill="none" xmlns="http://www.w3.org/2000/svg">
<path d="M12.4637 0C5.96689 0.0416624 0.705078 5.35361 0.705078 11.905C0.705078 18.4773 6.0084 23.7996 12.5364 23.7996C15.598 23.7996 18.3897 22.6227 20.4965 20.6958C20.9324 20.3 21.3268 19.8729 21.7004 19.4251H19.2719C18.9502 19.0293 18.6492 18.6231 18.3897 18.196H22.5722C22.8317 17.7898 23.06 17.3628 23.2572 16.9253H17.6944C17.5076 16.5191 17.3415 16.1025 17.1962 15.6755H23.745C24.1393 14.4881 24.3573 13.2174 24.3573 11.905C24.3573 11.0301 24.2639 10.176 24.0874 9.3532H16.8538C16.9472 8.92616 17.0613 8.50954 17.1859 8.10333H23.7346C23.5893 7.66587 23.4129 7.23884 23.226 6.83263H17.684C17.8812 6.40559 18.1095 5.98896 18.3586 5.58276H22.5411C22.2609 5.13489 21.9599 4.70785 21.6278 4.31205H19.303C19.6663 3.88502 20.0607 3.47881 20.4862 3.11426C18.3794 1.18738 15.5876 0.0104146 12.526 0.0104146C12.5156 -9.53731e-07 12.4949 0 12.4637 0Z" fill="#931B1D"/>
<path d="M40.2446 11.9024C40.2446 18.4747 34.9517 23.8075 28.4133 23.8075C21.875 23.8075 16.582 18.4851 16.582 11.9128C16.582 5.34061 21.875 0.00782776 28.4133 0.00782776C34.9413 -0.00258783 40.2446 5.31978 40.2446 11.9024Z" fill="#F16622"/>
<path d="M40.2446 12.0456C40.2446 18.6179 34.9517 23.9507 28.4133 23.9507C21.875 23.9507 16.582 18.6283 16.582 12.0561V12.0456C16.582 5.47341 21.875 0.140625 28.4133 0.140625C34.9413 0.140625 40.2446 5.46299 40.2446 12.0456C40.2446 12.0352 40.2446 12.0352 40.2446 12.0456Z" fill="#F7981D"/>
<path d="M12.4637 0.140625C5.96689 0.182287 0.705078 5.49424 0.705078 12.0456C0.705078 18.6179 6.0084 23.9507 12.5364 23.9507C15.598 23.9507 18.3897 22.7737 20.4965 20.8468C20.9324 20.451 21.3268 20.024 21.7004 19.5761H19.2719C18.9502 19.1803 18.6492 18.7741 18.3897 18.3471H22.5722C22.8317 17.9409 23.06 17.5138 23.2572 17.0764H17.6944C17.5076 16.6702 17.3415 16.2535 17.1962 15.8265H23.745C24.1393 14.6391 24.3573 13.3684 24.3573 12.0561C24.3573 11.1812 24.2639 10.3271 24.0874 9.50424H16.8538C16.9472 9.0772 17.0613 8.66058 17.1859 8.25437H23.7346C23.5893 7.81692 23.4129 7.38988 23.226 6.98367H17.684C17.8812 6.55663 18.1095 6.14001 18.3586 5.7338H22.5411C22.2609 5.28593 21.9599 4.85889 21.6278 4.4631H19.303C19.6663 4.03606 20.0607 3.62985 20.4862 3.2653C18.3794 1.33842 15.5876 0.161457 12.526 0.161457C12.5156 0.140626 12.4949 0.140625 12.4637 0.140625Z" fill="#CB2026"/>
<path d="M16.789 15.0736L16.9447 14.0008C16.8617 14.0008 16.7267 14.0425 16.623 14.0425C16.1871 14.0425 16.1352 13.8134 16.1663 13.6363L16.5192 11.4386H17.1834L17.3391 10.2512H16.706L16.8305 9.51172H15.5851C15.554 9.54297 14.8379 13.678 14.8379 14.1779C14.8379 14.9278 15.253 15.2611 15.8446 15.2507C16.3116 15.2299 16.6645 15.1049 16.789 15.0736Z" fill="white"/>
<path d="M17.1973 13.0179C17.1973 14.8094 18.37 15.2364 19.3767 15.2364C20.3004 15.2364 20.7051 15.0281 20.7051 15.0281L20.9231 13.8095C20.9231 13.8095 20.2174 14.122 19.5843 14.122C18.2351 14.122 18.4738 13.1117 18.4738 13.1117H21.0372C21.0372 13.1117 21.2033 12.2888 21.2033 11.9555C21.2033 11.1223 20.7882 10.1016 19.4078 10.1016C18.1313 10.1016 17.1973 11.466 17.1973 13.0179ZM19.4078 11.2369C20.1136 11.2369 19.989 12.0389 19.989 12.1014H18.588C18.588 12.018 18.7229 11.2369 19.4078 11.2369Z" fill="white"/>
<path d="M27.3749 15.0749L27.6032 13.6896C27.6032 13.6896 26.9805 14.0021 26.5654 14.0021C25.6729 14.0021 25.3096 13.3147 25.3096 12.5751C25.3096 11.0753 26.0776 10.2525 26.939 10.2525C27.5825 10.2525 28.091 10.617 28.091 10.617L28.2986 9.27341C28.2986 9.27341 27.5306 8.96094 26.8767 8.96094C25.4238 8.96094 24.002 10.2316 24.002 12.6168C24.002 14.2 24.7699 15.2415 26.2748 15.2415C26.7003 15.2415 27.3749 15.0749 27.3749 15.0749Z" fill="white"/>
<path d="M9.86894 10.1172C9.00754 10.1172 8.34332 10.3984 8.34332 10.3984L8.15651 11.492C8.15651 11.492 8.70657 11.2733 9.52645 11.2733C9.99348 11.2733 10.336 11.3254 10.336 11.7108C10.336 11.9399 10.2945 12.0337 10.2945 12.0337C10.2945 12.0337 9.92083 12.0024 9.75478 12.0024C8.66505 12.0024 7.52344 12.4711 7.52344 13.8772C7.52344 14.9917 8.27068 15.2417 8.7377 15.2417C9.63024 15.2417 10.0039 14.6584 10.035 14.6584L9.99348 15.1479H11.104L11.6021 11.6587C11.6021 10.1589 10.3152 10.1172 9.86894 10.1172ZM10.1388 12.9502C10.1595 13.169 10.0039 14.1584 9.24624 14.1584C8.85186 14.1584 8.74808 13.8564 8.74808 13.6793C8.74808 13.3356 8.93489 12.919 9.85856 12.919C10.0765 12.919 10.0973 12.9502 10.1388 12.9502Z" fill="white"/>
<path d="M12.7747 15.2013C13.0549 15.2013 14.6843 15.2742 14.6843 13.5869C14.6843 12.0141 13.1795 12.3266 13.1795 11.6912C13.1795 11.3788 13.4286 11.2746 13.8748 11.2746C14.0513 11.2746 14.7362 11.3371 14.7362 11.3371L14.8919 10.2226C14.8919 10.2226 14.4456 10.1289 13.7295 10.1289C12.7955 10.1289 11.8511 10.5039 11.8511 11.785C11.8511 13.2328 13.4286 13.0869 13.4286 13.7015C13.4286 14.1077 12.9927 14.1389 12.6502 14.1389C12.0586 14.1389 11.5293 13.941 11.5293 13.941L11.3633 15.0451C11.3944 15.0555 11.7161 15.2013 12.7747 15.2013Z" fill="white"/>
<path d="M37.8142 9.10547L37.5443 10.8032C37.5443 10.8032 37.0669 10.147 36.3301 10.147C35.1781 10.147 34.2129 11.5427 34.2129 13.1571C34.2129 14.1987 34.7214 15.209 35.78 15.209C36.5376 15.209 36.9528 14.6778 36.9528 14.6778L36.9009 15.1257H38.1255L39.0907 9.10547H37.8142ZM37.233 12.4176C37.233 13.0842 36.9009 13.98 36.2159 13.98C35.7593 13.98 35.5517 13.5946 35.5517 13.0009C35.5517 12.0218 35.9876 11.3657 36.548 11.3657C36.9943 11.3657 37.233 11.6781 37.233 12.4176Z" fill="white"/>
<path d="M3.0463 15.1361L3.81429 10.5845L3.92845 15.1361H4.80023L6.41925 10.5845L5.70315 15.1361H6.99006L7.98638 9.10547H5.99374L4.74834 12.803L4.67569 9.10547H2.83873L1.83203 15.1361H3.0463Z" fill="white"/>
<path d="M22.4574 15.1505C22.8207 13.057 22.8933 11.3488 23.7651 11.6613C23.9208 10.8489 24.0661 10.5364 24.2321 10.1927C24.2321 10.1927 24.1491 10.1719 23.9934 10.1719C23.433 10.1719 23.0075 10.9426 23.0075 10.9426L23.1217 10.2344H21.9489L21.1602 15.1401H22.4574V15.1505Z" fill="white"/>
<path d="M30.2947 10.1172C29.4333 10.1172 28.7691 10.3984 28.7691 10.3984L28.5823 11.492C28.5823 11.492 29.1323 11.2733 29.9522 11.2733C30.4193 11.2733 30.7617 11.3254 30.7617 11.7108C30.7617 11.9399 30.7202 12.0337 30.7202 12.0337C30.7202 12.0337 30.3466 12.0024 30.1806 12.0024C29.0908 12.0024 27.9492 12.4711 27.9492 13.8772C27.9492 14.9917 28.6965 15.2417 29.1635 15.2417C30.056 15.2417 30.44 14.6584 30.4504 14.6584L30.4089 15.1479H31.5194L32.0175 11.6587C32.0175 10.1589 30.741 10.1172 30.2947 10.1172ZM30.5646 12.9502C30.5853 13.169 30.4296 14.1584 29.672 14.1584C29.2776 14.1584 29.1842 13.8564 29.1842 13.6793C29.1842 13.3356 29.3711 12.919 30.2947 12.919C30.5023 12.919 30.523 12.9502 30.5646 12.9502Z" fill="white"/>
<path d="M33.0317 15.1505C33.3949 13.057 33.4676 11.3488 34.3393 11.6613C34.495 10.8489 34.6403 10.5364 34.8064 10.1927C34.8064 10.1927 34.7233 10.1719 34.5677 10.1719C34.0072 10.1719 33.5817 10.9426 33.5817 10.9426L33.6959 10.2344H32.5231L31.7344 15.1401H33.0317V15.1505Z" fill="white"/>
</svg>
