<svg width="44" height="19" viewBox="0 0 44 19" fill="none" xmlns="http://www.w3.org/2000/svg">
<path d="M6.54839 3.40707C6.4406 2.56839 6.85786 1.6762 7.3296 1.13065C7.85465 0.492042 8.7622 0.0372231 9.50631 0C9.59672 0.874742 9.25248 1.73087 8.74365 2.36832C8.21744 2.98831 7.38408 3.47919 6.54839 3.40707Z" fill="black"/>
<path d="M12.5723 10.8594C12.5538 10.914 12.2652 11.9132 11.5593 12.9485C10.9439 13.857 10.311 14.7468 9.29801 14.7655C8.32092 14.7841 7.99523 14.1838 6.87326 14.1838C5.75129 14.1838 5.38966 14.7468 4.46705 14.7841C3.48996 14.8201 2.74933 13.8198 2.13387 12.9124C0.867014 11.0769 -0.091527 7.73495 1.21125 5.48179C1.8441 4.35579 3.002 3.64739 4.25031 3.62878C5.20885 3.61133 6.09553 4.26506 6.67506 4.26506C7.25343 4.26506 8.28383 3.50199 9.49621 3.57527C9.96678 3.61133 11.324 3.75673 12.1922 5.04558C12.1203 5.10142 10.5822 5.99128 10.6008 7.86174C10.6182 10.0963 12.5538 10.8407 12.5723 10.8594Z" fill="black"/>
<path d="M20.0535 1.03906H14.9629V14.6662H17.0701V10.011H19.9874C22.6509 10.011 24.5228 8.17891 24.5228 5.51513C24.5228 2.86183 22.6892 1.03906 20.0535 1.03906ZM19.489 8.23474H17.0701V2.82344H19.4983C21.3238 2.82344 22.3681 3.80636 22.3681 5.52444C22.3681 7.24368 21.3238 8.23474 19.489 8.23474Z" fill="black"/>
<path d="M29.5528 4.55469C27.106 4.55469 25.5819 5.87727 25.4695 7.67096H27.3889C27.5674 6.78342 28.301 6.21693 29.4775 6.21693C30.72 6.21693 31.4629 6.87764 31.4629 7.9827V8.7481L28.7531 8.90862C26.4002 9.04123 25.0742 10.1079 25.0742 11.8458C25.0742 13.6301 26.4292 14.8399 28.3671 14.8399C29.6664 14.8399 30.9182 14.1408 31.4919 13.0357H31.5383V14.6689H33.4867V7.82217C33.4867 5.82958 31.9532 4.55469 29.5528 4.55469ZM31.4629 10.9489C31.4629 12.2424 30.3526 13.2242 28.9316 13.2242C27.8409 13.2242 27.1258 12.6577 27.1258 11.7888C27.1258 10.9396 27.8119 10.401 29.0254 10.3161L31.4629 10.1649V10.9489Z" fill="black"/>
<path d="M41.5921 4.73438H43.7376L40.0297 15.1894C39.1825 17.5973 38.2042 18.372 36.1527 18.372C35.9835 18.372 35.4746 18.3534 35.3251 18.3254V16.6725C35.4746 16.7097 35.8131 16.7097 35.9834 16.7097C36.9246 16.7097 37.4323 16.3131 37.7429 15.2929C37.7429 15.2743 37.9214 14.6892 37.9214 14.6799L34.3457 4.73438H36.5479L39.0515 12.8188H39.0886L41.5921 4.73438Z" fill="black"/>
<path d="M6.54839 3.40707C6.4406 2.56839 6.85786 1.6762 7.3296 1.13065C7.85465 0.492042 8.7622 0.0372231 9.50631 0C9.59672 0.874742 9.25248 1.73087 8.74365 2.36832C8.21744 2.98831 7.38408 3.47919 6.54839 3.40707Z" fill="black"/>
<path d="M12.5723 10.8594C12.5538 10.914 12.2652 11.9132 11.5593 12.9485C10.9439 13.857 10.311 14.7468 9.29801 14.7655C8.32092 14.7841 7.99523 14.1838 6.87326 14.1838C5.75129 14.1838 5.38966 14.7468 4.46705 14.7841C3.48996 14.8201 2.74933 13.8198 2.13387 12.9124C0.867014 11.0769 -0.091527 7.73495 1.21125 5.48179C1.8441 4.35579 3.002 3.64739 4.25031 3.62878C5.20885 3.61133 6.09553 4.26506 6.67506 4.26506C7.25343 4.26506 8.28383 3.50199 9.49621 3.57527C9.96678 3.61133 11.324 3.75673 12.1922 5.04558C12.1203 5.10142 10.5822 5.99128 10.6008 7.86174C10.6182 10.0963 12.5538 10.8407 12.5723 10.8594Z" fill="black"/>
<path d="M20.0535 1.03906H14.9629V14.6662H17.0701V10.011H19.9874C22.6509 10.011 24.5228 8.17891 24.5228 5.51513C24.5228 2.86183 22.6892 1.03906 20.0535 1.03906ZM19.489 8.23474H17.0701V2.82344H19.4983C21.3238 2.82344 22.3681 3.80636 22.3681 5.52444C22.3681 7.24368 21.3238 8.23474 19.489 8.23474Z" fill="black"/>
<path d="M29.5528 4.55469C27.106 4.55469 25.5819 5.87727 25.4695 7.67096H27.3889C27.5674 6.78342 28.301 6.21693 29.4775 6.21693C30.72 6.21693 31.4629 6.87764 31.4629 7.9827V8.7481L28.7531 8.90862C26.4002 9.04123 25.0742 10.1079 25.0742 11.8458C25.0742 13.6301 26.4292 14.8399 28.3671 14.8399C29.6664 14.8399 30.9182 14.1408 31.4919 13.0357H31.5383V14.6689H33.4867V7.82217C33.4867 5.82958 31.9532 4.55469 29.5528 4.55469ZM31.4629 10.9489C31.4629 12.2424 30.3526 13.2242 28.9316 13.2242C27.8409 13.2242 27.1258 12.6577 27.1258 11.7888C27.1258 10.9396 27.8119 10.401 29.0254 10.3161L31.4629 10.1649V10.9489Z" fill="black"/>
<path d="M43.7376 4.73438L40.0297 15.1894C39.1825 17.5973 38.2042 18.372 36.1527 18.372C35.9835 18.372 35.4746 18.3534 35.3251 18.3254V16.6725C35.4746 16.7097 35.8131 16.7097 35.9834 16.7097C36.9246 16.7097 37.4323 16.3131 37.7429 15.2929C37.7429 15.2743 37.9214 14.6892 37.9214 14.6799L34.3457 4.73438H36.5479L39.0515 12.8188H39.0886L41.5921 4.73438H43.7376Z" fill="black"/>
<path d="M8.7456 2.36832C8.21939 2.98831 7.38603 3.47919 6.55035 3.40707C6.44256 2.56839 6.85982 1.6762 7.33155 1.13065C7.85661 0.492042 8.76415 0.0372231 9.50827 0C9.59867 0.874742 9.25443 1.73087 8.7456 2.36832Z" fill="black"/>
<path d="M12.5723 10.8555C12.5538 10.9101 12.2652 11.9093 11.5593 12.9446C10.9439 13.8531 10.311 14.7429 9.29801 14.7615C8.32092 14.7802 7.99523 14.1799 6.87326 14.1799C5.75129 14.1799 5.38966 14.7429 4.46705 14.7802C3.48996 14.8162 2.74933 13.8158 2.13387 12.9085C0.867014 11.073 -0.091527 7.73104 1.21125 5.47788C1.8441 4.35189 3.002 3.64348 4.25031 3.62487C5.20885 3.60742 6.09553 4.26115 6.67506 4.26115C7.25343 4.26115 8.28383 3.49808 9.49621 3.57137C9.96678 3.60743 11.324 3.75283 12.1922 5.04168C12.1203 5.09751 10.5822 5.98737 10.6008 7.85783C10.6182 10.0924 12.5538 10.8368 12.5723 10.8555Z" fill="black"/>
<path d="M20.0496 1.03906H14.959V14.6662H17.0662V10.011H19.9835C22.647 10.011 24.5189 8.17891 24.5189 5.51513C24.5189 2.86183 22.6853 1.03906 20.0496 1.03906ZM19.4851 8.23474H17.0662V2.82344H19.4944C21.3199 2.82344 22.3642 3.80636 22.3642 5.52444C22.3642 7.24368 21.3199 8.23474 19.4851 8.23474Z" fill="black"/>
<path d="M29.5489 4.55469C27.1021 4.55469 25.578 5.87727 25.4655 7.67096H27.3849C27.5634 6.78342 28.2971 6.21693 29.4736 6.21693C30.7161 6.21693 31.459 6.87764 31.459 7.9827V8.7481L28.7492 8.90862C26.3963 9.04123 25.0703 10.1079 25.0703 11.8458C25.0703 13.6301 26.4252 14.8399 28.3632 14.8399C29.6625 14.8399 30.9143 14.1408 31.488 13.0357H31.5344V14.6689H33.4828V7.82217C33.4828 5.82958 31.9493 4.55469 29.5489 4.55469ZM31.459 10.9489C31.459 12.2424 30.3487 13.2242 28.9277 13.2242C27.837 13.2242 27.1218 12.6577 27.1218 11.7888C27.1218 10.9396 27.808 10.401 29.0215 10.3161L31.459 10.1649V10.9489Z" fill="black"/>
<path d="M41.5882 4.73438L39.0847 12.8188H39.0476L36.544 4.73438H34.3418L37.9175 14.6799C37.9175 14.6892 37.739 15.2743 37.739 15.2929C37.4284 16.3131 36.9207 16.7097 35.9795 16.7097C35.8092 16.7097 35.4707 16.7097 35.3212 16.6725V18.3254C35.4707 18.3534 35.9795 18.372 36.1488 18.372C38.2003 18.372 39.1785 17.5973 40.0258 15.1894L43.7336 4.73438H41.5882Z" fill="black"/>
</svg>
