<svg width="512" height="512" viewBox="0 0 512 512" fill="none" xmlns="http://www.w3.org/2000/svg">
<path d="M48 176V152C48.0233 132.912 55.6165 114.612 69.114 101.114C82.6116 87.6165 100.912 80.0233 120 80H144V104C144 112.487 147.371 120.626 153.373 126.627C159.374 132.629 167.513 136 176 136C184.487 136 192.626 132.629 198.627 126.627C204.629 120.626 208 112.487 208 104V80H304V104C304 112.487 307.371 120.626 313.373 126.627C319.374 132.629 327.513 136 336 136C344.487 136 352.626 132.629 358.627 126.627C364.629 120.626 368 112.487 368 104V80H392C411.088 80.0233 429.388 87.6165 442.886 101.114C456.384 114.612 463.977 132.912 464 152V176H48ZM160 104C160 108.243 161.686 112.313 164.686 115.314C167.687 118.314 171.757 120 176 120C180.243 120 184.313 118.314 187.314 115.314C190.314 112.313 192 108.243 192 104V64C192 59.7565 190.314 55.6869 187.314 52.6863C184.313 49.6857 180.243 48 176 48C171.757 48 167.687 49.6857 164.686 52.6863C161.686 55.6869 160 59.7565 160 64V104ZM320 64V104C320 108.243 321.686 112.313 324.686 115.314C327.687 118.314 331.757 120 336 120C340.243 120 344.313 118.314 347.314 115.314C350.314 112.313 352 108.243 352 104V64C352 59.7565 350.314 55.6869 347.314 52.6863C344.313 49.6857 340.243 48 336 48C331.757 48 327.687 49.6857 324.686 52.6863C321.686 55.6869 320 59.7565 320 64ZM464 192V360C463.977 379.088 456.384 397.388 442.886 410.886C429.388 424.384 411.088 431.977 392 432H120C100.912 431.977 82.6116 424.384 69.114 410.886C55.6165 397.388 48.0233 379.088 48 360V192H464ZM314.456 282.472H281.424L271.2 251.056C270.148 247.855 268.112 245.068 265.383 243.092C262.653 241.116 259.37 240.052 256 240.052C252.63 240.052 249.347 241.116 246.617 243.092C243.888 245.068 241.852 247.855 240.8 251.056L230.592 282.472H197.544C194.165 282.471 190.872 283.541 188.138 285.526C185.404 287.512 183.369 290.312 182.325 293.526C181.28 296.74 181.28 300.201 182.324 303.415C183.368 306.629 185.402 309.43 188.136 311.416L214.864 330.832L204.656 362.248C203.611 365.462 203.611 368.924 204.655 372.138C205.7 375.352 207.735 378.153 210.469 380.139C213.203 382.125 216.495 383.194 219.875 383.194C223.254 383.193 226.547 382.123 229.28 380.136L256 360.72L282.72 380.136C285.453 382.123 288.746 383.193 292.125 383.194C295.505 383.194 298.797 382.125 301.531 380.139C304.265 378.153 306.3 375.352 307.345 372.138C308.389 368.924 308.389 365.462 307.344 362.248L297.136 330.832L323.864 311.416C326.598 309.43 328.632 306.629 329.676 303.415C330.72 300.201 330.72 296.74 329.675 293.526C328.631 290.312 326.596 287.512 323.862 285.526C321.128 283.541 317.835 282.471 314.456 282.472Z" fill="white"/>
</svg>
