<svg width="21" height="21" viewBox="0 0 21 21" fill="none" xmlns="http://www.w3.org/2000/svg">
<path d="M6.03775 8.61052C5.96507 8.53784 5.86435 8.49609 5.7616 8.49609C5.65894 8.49609 5.55818 8.53784 5.4855 8.61052C5.4129 8.68317 5.37109 8.78394 5.37109 8.8866C5.37109 8.98929 5.4129 9.09007 5.4855 9.16269C5.55815 9.23529 5.65894 9.27715 5.7616 9.27715C5.86435 9.27715 5.96507 9.23537 6.03775 9.16269C6.11035 9.09007 6.15213 8.98929 6.15213 8.8866C6.15213 8.78394 6.11035 8.68317 6.03775 8.61052Z" fill="#DB69A2"/>
<path d="M18.9425 0.451172H3.39947C2.75346 0.451172 2.22788 0.976746 2.22788 1.62276V8.10555C2.22788 8.75156 2.75346 9.27713 3.39947 9.27713H4.10242C4.31811 9.27713 4.49295 9.10225 4.49295 8.8866C4.49295 8.67095 4.31811 8.49607 4.10242 8.49607H3.39947C3.18413 8.49607 3.00894 8.32088 3.00894 8.10555V1.62276C3.00894 1.40742 3.18413 1.23223 3.39947 1.23223H18.9425C19.1579 1.23223 19.3331 1.40742 19.3331 1.62276V8.10555C19.3331 8.32088 19.1579 8.49607 18.9425 8.49607H16.3304C16.2268 8.49607 16.1275 8.53724 16.0543 8.61046L14.7683 9.89643L13.4823 8.61046C13.4091 8.53724 13.3097 8.49607 13.2062 8.49607H10.1606C10.1319 8.42234 10.0995 8.34959 10.0627 8.2782C9.7831 7.73493 9.30712 7.33788 8.72258 7.16015L8.15795 6.98848C7.95917 6.92794 7.74782 7.03386 7.67713 7.22924L6.78993 9.68133C6.54385 10.3614 6.0585 10.9265 5.42335 11.2723L4.59051 11.7258C4.38583 11.4774 4.07594 11.3187 3.72966 11.3187H1.23418C0.619331 11.3187 0.119141 11.8189 0.119141 12.4338V19.3312C0.119065 19.946 0.619294 20.4463 1.23414 20.4463H3.72963C4.11836 20.4463 4.46105 20.2462 4.66069 19.9437L5.05918 20.1C5.64505 20.3299 6.26127 20.4464 6.89069 20.4464H12.16C12.9506 20.4464 13.5938 19.8031 13.5938 19.0125C13.5938 18.7508 13.523 18.5055 13.4001 18.2941C13.9817 18.1113 14.4049 17.5671 14.4049 16.9259C14.4049 16.6576 14.3306 16.4063 14.2018 16.1913C14.7587 15.9944 15.1588 15.4628 15.1588 14.8393C15.1588 14.1898 14.7246 13.6402 14.1314 13.4645C14.252 13.2546 14.3214 13.0116 14.3214 12.7526C14.3214 11.962 13.6782 11.3188 12.8876 11.3188H9.756L10.1939 10.0186C10.2758 9.77549 10.3145 9.52555 10.3119 9.27717H13.0444L14.4921 10.7249C14.5684 10.8011 14.6684 10.8393 14.7683 10.8393C14.8682 10.8393 14.9682 10.8011 15.0444 10.7249L16.4922 9.27713H18.9425C19.5886 9.27713 20.1141 8.75156 20.1141 8.10555V1.62276C20.1141 0.976746 19.5886 0.451172 18.9425 0.451172ZM4.06365 19.3312C4.06361 19.5154 3.9138 19.6652 3.72963 19.6652H1.23414C1.04997 19.6652 0.900163 19.5154 0.900163 19.3312V12.4338C0.900163 12.2496 1.04997 12.0998 1.23414 12.0998H2.09136V16.908C2.09136 17.1237 2.2662 17.2986 2.48188 17.2986C2.69757 17.2986 2.87241 17.1237 2.87241 16.908V12.0998H3.72963C3.87549 12.0998 3.99948 12.194 4.0449 12.3246C4.04814 12.3435 4.05283 12.3622 4.059 12.3807C4.06177 12.3981 4.06365 12.4157 4.06365 12.4338L4.06365 19.3312ZM12.8876 12.0998C13.2476 12.0998 13.5404 12.3926 13.5404 12.7526C13.5404 13.1125 13.2476 13.4054 12.8876 13.4054H10.769C10.5533 13.4054 10.3784 13.5803 10.3784 13.7959C10.3784 14.0116 10.5533 14.1864 10.769 14.1864L13.725 14.1865C14.085 14.1865 14.3778 14.4793 14.3778 14.8393C14.3778 15.1992 14.085 15.4921 13.725 15.4921H10.769C10.5533 15.4921 10.3784 15.667 10.3784 15.8826C10.3784 16.0983 10.5533 16.2732 10.769 16.2732H12.9711C13.331 16.2732 13.6238 16.566 13.6238 16.9259C13.6238 17.2859 13.331 17.5787 12.9711 17.5787H10.769C10.5533 17.5787 10.3784 17.7536 10.3784 17.9692C10.3784 18.1849 10.5533 18.3598 10.769 18.3598H12.1601C12.52 18.3598 12.8128 18.6526 12.8128 19.0126C12.8128 19.3725 12.52 19.6653 12.1601 19.6653H6.89069C6.35929 19.6653 5.83903 19.5669 5.34435 19.3729L4.84466 19.177V12.4768L5.79681 11.9583C6.59978 11.5211 7.21326 10.8068 7.52432 9.94709L8.28542 7.84362L8.49537 7.90743C8.87614 8.02322 9.18614 8.28183 9.36828 8.63565C9.55042 8.98947 9.58077 9.39207 9.45373 9.7692L8.84228 11.5846C8.80213 11.7038 8.82185 11.835 8.8952 11.9371C8.96858 12.0392 9.08659 12.0998 9.21238 12.0998H12.8876Z" fill="#DB69A2"/>
<path d="M18.3253 4.23827C18.2513 4.01082 18.0583 3.84815 17.8215 3.81384L17.1308 3.71366L16.8217 3.08784C16.7159 2.87341 16.5015 2.74023 16.2624 2.74023C16.0232 2.7403 15.8086 2.8736 15.7029 3.08811L15.3941 3.71414L14.7034 3.8147C14.4667 3.84918 14.2737 4.01192 14.1999 4.23943C14.126 4.46693 14.1866 4.71198 14.3579 4.87894L14.8579 5.366L14.7401 6.05399C14.6997 6.28979 14.7948 6.52352 14.9884 6.66412C15.0977 6.7435 15.2256 6.78381 15.3544 6.78381C15.4536 6.78381 15.5533 6.75987 15.6455 6.71141L16.2632 6.38641L16.8811 6.71107C17.0929 6.82227 17.3447 6.80404 17.5382 6.66337C17.7316 6.52271 17.8266 6.28889 17.7861 6.05314L17.668 5.36522L18.1677 4.87784C18.3388 4.71076 18.3992 4.46571 18.3253 4.23827ZM17.0633 4.86378C16.9163 5.00714 16.8493 5.21362 16.8841 5.41603L16.9624 5.87146L16.5531 5.65643C16.3713 5.56107 16.1542 5.56107 15.9725 5.65667L15.5636 5.87185L15.6416 5.41637C15.6763 5.21388 15.6092 5.00745 15.4621 4.86416L15.131 4.54166L15.5883 4.47508C15.7916 4.44551 15.9672 4.31789 16.058 4.13372L16.2624 3.71925L16.467 4.1336C16.558 4.31774 16.7336 4.44524 16.9369 4.47473L17.3941 4.54105L17.0633 4.86378Z" fill="#DB69A2"/>
<path d="M13.3575 4.23827C13.2835 4.01082 13.0905 3.84821 12.8538 3.81384L12.163 3.71366L11.8539 3.08784C11.748 2.87341 11.5337 2.74023 11.2946 2.74023C11.0554 2.7403 10.8408 2.8736 10.7351 3.08817L10.4264 3.71414L9.73555 3.8147C9.49892 3.84918 9.30593 4.01192 9.23213 4.23943C9.15825 4.46693 9.2188 4.71198 9.39019 4.87894L9.89012 5.366L9.7723 6.05399C9.73192 6.28979 9.82711 6.52355 10.0206 6.66412C10.1299 6.7435 10.2578 6.78381 10.3866 6.78381C10.4858 6.78381 10.5855 6.75987 10.6776 6.71141L11.2954 6.38641L11.9134 6.71107C12.1251 6.82227 12.3768 6.80404 12.5704 6.66337C12.7638 6.52271 12.8588 6.28889 12.8183 6.05314L12.7002 5.36522L13.1999 4.87784C13.3711 4.71076 13.4315 4.46576 13.3575 4.23827ZM12.0956 4.86378C11.9486 5.00714 11.8816 5.21362 11.9163 5.41603L11.9946 5.87146L11.5853 5.65647C11.4035 5.56097 11.1865 5.5611 11.0048 5.65667L10.5958 5.87185L10.6738 5.41637C10.7085 5.21388 10.6413 5.00745 10.4943 4.86416L10.1631 4.54166L10.6205 4.47508C10.8237 4.44551 10.9993 4.31793 11.0902 4.13368L11.2946 3.71921L11.4992 4.13351C11.59 4.3177 11.7657 4.44524 11.969 4.47473L12.4263 4.54105L12.0956 4.86378Z" fill="#DB69A2"/>
<path d="M8.38976 4.23827C8.31575 4.01082 8.12276 3.84815 7.88608 3.81384L7.1953 3.71366L6.88618 3.08784C6.78027 2.87341 6.56599 2.74023 6.32683 2.74023C6.3268 2.74023 6.32689 2.74023 6.32683 2.74023C6.08765 2.7403 5.87311 2.8736 5.76732 3.08817L5.45862 3.71414L4.76784 3.8147C4.53111 3.84918 4.33823 4.01195 4.26434 4.23948C4.19048 4.46696 4.25106 4.71201 4.42239 4.87894L4.92234 5.366L4.8045 6.05399C4.76414 6.28979 4.85931 6.52355 5.05284 6.66412C5.16215 6.7435 5.29005 6.78381 5.41883 6.78381C5.51799 6.78381 5.61771 6.75987 5.70984 6.71141L6.32762 6.38641L6.94556 6.71107C7.15729 6.82227 7.40904 6.80404 7.60254 6.66337C7.796 6.52271 7.89102 6.28889 7.85052 6.05314L7.73236 5.36522L8.23212 4.87784C8.40335 4.71076 8.46374 4.46576 8.38976 4.23827ZM7.12784 4.86378C6.98081 5.00714 6.91385 5.21362 6.9486 5.41603L7.0268 5.87146L6.61757 5.65647C6.43575 5.56097 6.21866 5.5611 6.03706 5.65667L5.62807 5.87185L5.70608 5.41626C5.74068 5.21384 5.67355 5.0075 5.52648 4.86416L5.19542 4.54166L5.65272 4.47508C5.85598 4.44551 6.03152 4.31793 6.12244 4.13368L6.32683 3.71921L6.53144 4.13351C6.62234 4.3177 6.798 4.44524 7.00129 4.47473L7.45866 4.54105L7.12784 4.86378Z" fill="#DB69A2"/>
<path d="M2.48232 17.9219C2.26663 17.9219 2.0918 18.0968 2.0918 18.3124V18.3185C2.0918 18.5341 2.26663 18.709 2.48232 18.709C2.69801 18.709 2.87285 18.5341 2.87285 18.3185V18.3124C2.87285 18.0968 2.69801 17.9219 2.48232 17.9219Z" fill="#DB69A2"/>
</svg>
