<svg width="34" height="34" viewBox="0 0 34 34" fill="none" xmlns="http://www.w3.org/2000/svg">
<path d="M32.3 0H11.9C10.9611 0 10.2 0.761116 10.2 1.7V9.06667H8.5C8.18704 9.06667 7.93333 9.32037 7.93333 9.63333V12.4667H1.7C0.761116 12.4667 -2.38419e-07 13.2278 0 14.1667V32.3C0 33.2389 0.761116 34 1.7 34H32.3C33.2389 34 34 33.2389 34 32.3V1.7C34 0.761116 33.2389 0 32.3 0ZM11.3333 10.2H20.4V12.4667H11.3333V10.2ZM9.06667 10.2H10.2V12.4667H9.06667V10.2ZM28.3333 32.3C28.3333 32.613 28.0796 32.8667 27.7667 32.8667H1.7C1.38704 32.8667 1.13333 32.613 1.13333 32.3V20.4H4.53333V22.1C4.53333 22.413 4.78704 22.6667 5.1 22.6667H7.36667C7.67963 22.6667 7.93333 22.413 7.93333 22.1V20.4H9.66733C9.93291 22.7662 11.8005 24.6338 14.1667 24.8993L14.1667 26.0667H13.6C13.287 26.0667 13.0333 26.3204 13.0333 26.6333V30.0333C13.0333 30.9722 13.7944 31.7333 14.7333 31.7333C15.6722 31.7333 16.4333 30.9722 16.4333 30.0333V26.6333C16.4333 26.3204 16.1796 26.0667 15.8667 26.0667H15.3V24.8993C17.6662 24.6338 19.5338 22.7662 19.7993 20.4H21.5333V22.1C21.5333 22.413 21.787 22.6667 22.1 22.6667H24.3667C24.6796 22.6667 24.9333 22.413 24.9333 22.1V20.4H28.3333V32.3ZM5.66667 21.5333V18.1333H6.8V21.5333H5.66667ZM14.7333 23.8C12.5426 23.8 10.7667 22.0241 10.7667 19.8333C10.7667 17.6426 12.5426 15.8667 14.7333 15.8667C16.9241 15.8667 18.7 17.6426 18.7 19.8333C18.7 22.0241 16.9241 23.8 14.7333 23.8ZM15.3 27.2V30.0333C15.3 30.3463 15.0463 30.6 14.7333 30.6C14.4204 30.6 14.1667 30.3463 14.1667 30.0333V27.2H15.3ZM22.6667 21.5333V18.1333H23.8V21.5333H22.6667ZM28.3333 19.2667H24.9333V17.5667C24.9333 17.2537 24.6796 17 24.3667 17H22.1C21.787 17 21.5333 17.2537 21.5333 17.5667V19.2667H19.7993C19.5009 16.6947 17.3225 14.7546 14.7333 14.7546C12.1441 14.7546 9.96581 16.6947 9.66733 19.2667H7.93333V17.5667C7.93333 17.2537 7.67963 17 7.36667 17H5.1C4.78704 17 4.53333 17.2537 4.53333 17.5667V19.2667H1.13333V14.1667C1.13333 13.8537 1.38704 13.6 1.7 13.6H27.7667C28.0796 13.6 28.3333 13.8537 28.3333 14.1667V19.2667ZM32.8667 32.3C32.8667 32.613 32.613 32.8667 32.3 32.8667H29.3647C29.4306 32.6849 29.4651 32.4933 29.4667 32.3L29.4667 14.1667C29.4667 13.2278 28.7055 12.4667 27.7667 12.4667H21.5333V9.63333C21.5333 9.32037 21.2796 9.06667 20.9667 9.06667H11.3333V1.7C11.3333 1.38704 11.587 1.13333 11.9 1.13333H32.3C32.613 1.13333 32.8667 1.38704 32.8667 1.7V32.3Z" fill="white"/>
<path d="M17 2.2666H27.2V3.39993H17V2.2666Z" fill="white"/>
<path d="M12.4668 4.5332H31.7335V5.66654H12.4668V4.5332Z" fill="white"/>
<path d="M12.4668 6.7998H31.7335V7.93314H12.4668V6.7998Z" fill="white"/>
<path d="M14.1102 20.6491L13.4246 19.9918L12.6426 20.8078L13.8212 21.9411C13.9263 22.0424 14.0663 22.0992 14.2122 22.0998H14.2802C14.4464 22.081 14.5957 21.9897 14.6882 21.8505L16.9096 18.4505L15.9576 17.8271L14.1102 20.6491Z" fill="white"/>
</svg>
