<svg width="30" height="30" viewBox="0 0 30 30" fill="none" xmlns="http://www.w3.org/2000/svg">
<path d="M2.08496 6.5625C1.80371 6.5625 1.61621 6.375 1.61621 6.09375V1.875C1.61621 0.84375 2.50684 0 3.53809 0H10.9912C11.1318 0 11.2725 0.09375 11.3662 0.1875L13.5693 3.1875H18.4443C18.7256 3.1875 18.9131 3.375 18.9131 3.65625C18.9131 3.9375 18.7256 4.125 18.4443 4.125H13.335C13.1943 4.125 13.0537 4.03125 12.96 3.9375L10.7568 0.9375H3.53809C3.02246 0.9375 2.55371 1.35938 2.55371 1.875V6.09375C2.55371 6.375 2.36621 6.5625 2.08496 6.5625Z" fill="white"/>
<path d="M26.3196 24.7969H22.429C22.1477 24.7969 21.9602 24.6094 21.9602 24.3281C21.9602 24.0469 22.1477 23.8594 22.429 23.8594H26.3196C26.8352 23.8594 27.2571 23.4844 27.304 22.9688L29.0383 3.46875C29.0852 3.1875 28.9915 2.95313 28.804 2.76563C28.6165 2.53125 28.3352 2.4375 28.054 2.4375H19.9446L17.3196 6.375C17.2258 6.51563 17.0852 6.5625 16.9446 6.5625H1.94458C1.66333 6.5625 1.42895 6.65625 1.24145 6.89062C1.05395 7.07812 0.960204 7.35938 0.960204 7.64063L2.31958 22.9688C2.36645 23.4844 2.78833 23.8594 3.30395 23.8594H7.56958C7.85083 23.8594 8.03833 24.0469 8.03833 24.3281C8.03833 24.6094 7.85083 24.7969 7.56958 24.7969H3.30395C2.2727 24.7969 1.42895 24.0469 1.38208 23.0625L0.0227038 7.6875C-0.0241712 7.125 0.163329 6.60938 0.538329 6.23438C0.913329 5.85938 1.42895 5.625 1.94458 5.625H16.7102L19.3352 1.6875C19.429 1.54687 19.5696 1.5 19.7102 1.5H28.054C28.6165 1.5 29.1321 1.73437 29.5071 2.15625C29.8821 2.53125 30.0227 3.04688 29.9758 3.5625L29.6477 7.3125L28.2415 23.0625C28.1008 24.0938 27.304 24.7969 26.3196 24.7969Z" fill="white"/>
<path d="M26.9287 7.96875H26.8818C26.6475 7.92188 26.46 7.6875 26.46 7.45313L26.7881 4.5H21.9131C21.6318 4.5 21.4443 4.3125 21.4443 4.03125C21.4443 3.75 21.6318 3.5625 21.9131 3.5625H27.3037C27.4443 3.5625 27.585 3.60938 27.6318 3.70313C27.6787 3.79688 27.7725 3.9375 27.7256 4.07813L27.3506 7.54688C27.3506 7.78125 27.1631 7.96875 26.9287 7.96875Z" fill="white"/>
<path d="M11.0381 21.4688C10.7568 21.4688 10.5693 21.2812 10.5693 21C10.5693 20.7188 10.7568 20.5312 11.0381 20.5312C11.3193 20.5312 11.5068 20.7188 11.5068 21C11.5068 21.2812 11.3193 21.4688 11.0381 21.4688Z" fill="white"/>
<path d="M14.8818 27.4688C14.7412 27.4688 14.6475 27.4219 14.5537 27.3282L13.2881 26.0157C13.1943 25.9219 13.1475 25.7344 13.1475 25.5938L13.8975 22.4063C13.9443 22.1719 14.2256 21.9844 14.46 22.0782C14.6943 22.1251 14.8818 22.4063 14.7881 22.6407L14.085 25.5938L14.8818 26.4376L15.8662 25.6407L14.9756 22.6407C14.8818 22.4063 15.0225 22.1251 15.2568 22.0313C15.4912 21.9376 15.7725 22.0782 15.8662 22.3126L16.9443 25.5469C16.9912 25.7344 16.9443 25.9219 16.8037 26.0626L15.21 27.3282C15.0693 27.4219 14.9756 27.4688 14.8818 27.4688Z" fill="white"/>
<path d="M15.0225 18.375C12.4912 18.375 10.5693 15.4688 10.5693 12.9375C10.5693 10.4531 12.5381 8.48438 15.0225 8.48438C17.46 8.48438 19.4756 10.5 19.4756 12.9375C19.4756 15.4219 17.5068 18.375 15.0225 18.375ZM15.0225 9.42188C13.0537 9.42188 11.5068 10.9688 11.5068 12.9375C11.5068 14.9531 13.1475 17.4375 15.0225 17.4375C16.8975 17.4375 18.5381 14.9531 18.5381 12.9375C18.5381 11.0156 16.9443 9.42188 15.0225 9.42188Z" fill="white"/>
<path d="M12.6784 20.2969C12.5846 20.2969 12.4909 20.25 12.3971 20.2031C12.2096 20.0625 12.1159 19.7812 12.3034 19.5469C12.4909 19.3125 12.5846 18.9844 12.5846 18.6562V17.1562C12.5846 16.875 12.7721 16.6875 13.0534 16.6875C13.3346 16.6875 13.5221 16.875 13.5221 17.1562V18.6562C13.5221 19.1719 13.3346 19.6875 13.0534 20.1094C12.9596 20.25 12.819 20.2969 12.6784 20.2969Z" fill="white"/>
<path d="M16.9912 24C16.8975 24 16.8037 23.9531 16.71 23.9062L14.6943 22.5C14.6006 22.4062 14.5068 22.3125 14.5068 22.1719C14.5068 22.0312 14.5537 21.8906 14.6475 21.7969L16.8975 19.5469C16.9912 19.4531 17.1318 19.4062 17.2725 19.4062C17.4131 19.4062 17.5537 19.5 17.6006 19.6406C17.7412 19.875 17.9287 20.0625 18.21 20.2031L19.0068 20.625C19.1475 20.6719 19.1943 20.8125 19.2412 20.9531C19.2881 21.0938 19.2412 21.2344 19.1475 21.3281L17.3193 23.8125C17.2725 23.9531 17.1318 24 16.9912 24ZM15.7256 22.0781L16.8975 22.9219L18.1162 21.2344L17.7881 21.0469C17.5537 20.9063 17.3193 20.7656 17.1787 20.5781L15.7256 22.0781Z" fill="white"/>
<path d="M17.2725 20.3438C17.1318 20.3438 16.9443 20.25 16.8975 20.1094C16.6162 19.6875 16.4756 19.2188 16.4756 18.75V17.25C16.4756 16.9688 16.6631 16.7812 16.9443 16.7812C17.2256 16.7812 17.4131 16.9688 17.4131 17.25V18.75C17.4131 19.0781 17.5068 19.3594 17.6475 19.6406C17.7881 19.875 17.6943 20.1562 17.5068 20.2969C17.46 20.3438 17.3662 20.3438 17.2725 20.3438Z" fill="white"/>
<path d="M12.8662 23.9531C12.7256 23.9531 12.585 23.9063 12.4912 23.7656L10.6631 21.2812C10.5693 21.1875 10.5693 21.0469 10.5693 20.9063C10.6162 20.7656 10.71 20.6719 10.8037 20.5781L11.6943 20.1094C11.9287 19.9688 12.1162 19.7812 12.2568 19.5469C12.3506 19.4531 12.4443 19.3594 12.585 19.3594C12.7256 19.3594 12.8662 19.4062 12.96 19.5L15.2568 21.7969C15.3506 21.8906 15.3975 22.0312 15.3975 22.1719C15.3975 22.3125 15.3037 22.4531 15.1631 22.5L14.5537 22.875L13.1006 23.8594C13.0537 23.9062 12.96 23.9531 12.8662 23.9531ZM11.7412 21.1406L12.96 22.8281L14.2256 22.0312L12.7256 20.5312C12.585 20.6719 12.3975 20.8125 12.1631 20.9531L11.7412 21.1406Z" fill="white"/>
<path d="M12.6787 20.2968C12.5381 20.2968 12.4443 20.2499 12.3506 20.1562C12.2568 20.0624 12.21 19.9687 12.21 19.8281C12.21 19.6874 12.2568 19.5937 12.3506 19.4999C12.4912 19.3593 12.6787 19.3124 12.8662 19.4062C12.9131 19.4062 12.96 19.4531 13.0068 19.4999C13.1006 19.5937 13.1475 19.7343 13.1475 19.8281C13.1475 19.9687 13.1006 20.0624 13.0068 20.1562C12.9131 20.2499 12.8193 20.2968 12.6787 20.2968Z" fill="white"/>
<path d="M17.2256 20.3437C17.085 20.3437 16.9912 20.2968 16.8975 20.2031C16.8037 20.1093 16.7568 20.0156 16.7568 19.8749C16.7568 19.7343 16.8037 19.6406 16.8975 19.5468C17.0381 19.4062 17.2256 19.3593 17.4131 19.4531C17.46 19.4999 17.5068 19.4999 17.5537 19.5468C17.6475 19.6406 17.6943 19.7812 17.6943 19.8749C17.6943 20.0156 17.6475 20.1093 17.5537 20.2031C17.46 20.2968 17.3662 20.3437 17.2256 20.3437Z" fill="white"/>
<path d="M14.9756 29.9997C12.7725 29.9997 10.6162 29.3903 8.83496 28.2184C7.70996 27.5622 7.00684 26.2965 7.00684 24.9372V24.8434C7.00684 23.484 7.80371 22.2184 8.97559 21.5622L10.8037 20.5778C11.0381 20.4372 11.3193 20.5309 11.46 20.7653C11.6006 20.9997 11.5068 21.2809 11.2725 21.4215L9.44434 22.4059C8.55371 22.8747 7.94434 23.859 7.94434 24.8434V24.9372C7.94434 26.0153 8.45996 26.9528 9.30371 27.4215C10.9912 28.4997 12.9131 29.0622 14.9756 29.0622C16.9912 29.0622 18.96 28.4997 20.6943 27.4684C21.5381 26.9528 22.0537 25.9684 22.0537 24.9372C22.0537 23.9059 21.4912 22.9684 20.5537 22.4997L18.6318 21.4684C18.3975 21.3278 18.3037 21.0465 18.4443 20.8122C18.585 20.5778 18.8662 20.484 19.1006 20.6247L21.0225 21.6559C22.2412 22.2653 22.9912 23.5778 22.9912 24.9372C22.9912 26.2965 22.2881 27.5622 21.1631 28.2184C19.335 29.3903 17.1787 29.9997 14.9756 29.9997Z" fill="white"/>
<path d="M19.053 13.0781C19.0061 13.0781 18.9124 13.0781 18.8655 13.0312C13.9436 11.0156 11.4124 12.8906 11.3186 12.9843C11.1311 13.1249 10.803 13.1249 10.6624 12.8906C10.5218 12.7031 10.5218 12.3749 10.7561 12.2343C10.8968 12.1406 13.7561 9.93743 19.2405 12.1874C19.4749 12.2812 19.6155 12.5624 19.4749 12.7968C19.428 12.9843 19.2405 13.0781 19.053 13.0781Z" fill="white"/>
<path d="M25.9443 10.3594H21.585C21.3037 10.3594 21.1162 10.1719 21.1162 9.89062C21.1162 9.60938 21.3037 9.42188 21.585 9.42188H25.9443C26.2256 9.42188 26.4131 9.60938 26.4131 9.89062C26.4131 10.1719 26.2256 10.3594 25.9443 10.3594Z" fill="white"/>
<path d="M25.4756 13.0781H22.0537C21.7725 13.0781 21.585 12.8906 21.585 12.6094C21.585 12.3281 21.7725 12.1406 22.0537 12.1406H25.4756C25.7568 12.1406 25.9443 12.3281 25.9443 12.6094C25.9443 12.8906 25.7568 13.0781 25.4756 13.0781Z" fill="white"/>
<path d="M8.36621 10.3594H4.00684C3.72559 10.3594 3.53809 10.1719 3.53809 9.89062C3.53809 9.60938 3.72559 9.42188 4.00684 9.42188H8.36621C8.64746 9.42188 8.83496 9.60938 8.83496 9.89062C8.83496 10.1719 8.64746 10.3594 8.36621 10.3594Z" fill="white"/>
<path d="M7.89746 13.0781H4.47559C4.19434 13.0781 4.00684 12.8906 4.00684 12.6094C4.00684 12.3281 4.19434 12.1406 4.47559 12.1406H7.89746C8.17871 12.1406 8.36621 12.3281 8.36621 12.6094C8.36621 12.8906 8.17871 13.0781 7.89746 13.0781Z" fill="white"/>
</svg>
