<svg width="32" height="32" viewBox="0 0 32 32" fill="none" xmlns="http://www.w3.org/2000/svg">
<path d="M29.5938 1H8.96875C8.17188 1 7.5625 1.60938 7.5625 2.40625V6.15625C7.5625 6.4375 7.75 6.625 8.03125 6.625C8.3125 6.625 8.5 6.4375 8.5 6.15625V2.40625C8.5 2.125 8.6875 1.9375 8.96875 1.9375H29.5938C29.875 1.9375 30.0625 2.125 30.0625 2.40625V23.9688C30.0625 24.25 29.875 24.4375 29.5938 24.4375H18.3438C18.0625 24.4375 17.875 24.625 17.875 24.9062C17.875 25.1875 18.0625 25.375 18.3438 25.375H29.5938C30.3906 25.375 31 24.7656 31 23.9688V2.40625C31 1.60938 30.3906 1 29.5938 1Z" fill="white" stroke="white" stroke-width="0.22"/>
<path d="M8.03125 17.875C10.0938 17.875 11.7812 16.1875 11.7812 14.125V11.7812C11.7812 11.5 11.5938 11.3125 11.3125 11.3125C11.0312 11.3125 10.8438 11.5 10.8438 11.7812V14.125C10.8438 15.6719 9.57812 16.9375 8.03125 16.9375C6.48438 16.9375 5.21875 15.6719 5.21875 14.125V12.7188C5.21875 12.4375 5.03125 12.25 4.75 12.25C4.46875 12.25 4.28125 12.4375 4.28125 12.7188V14.125C4.28125 16.1875 5.96875 17.875 8.03125 17.875Z" fill="white" stroke="white" stroke-width="0.22"/>
<path d="M4.75 11.3125H9.4375C10.75 11.3125 11.7812 10.2812 11.7812 8.96875V8.03125C11.7812 7.75 11.5938 7.5625 11.3125 7.5625H6.625C5.3125 7.5625 4.28125 8.59375 4.28125 9.90625V10.8438C4.28125 11.125 4.46875 11.3125 4.75 11.3125ZM5.21875 9.90625C5.21875 9.10938 5.82812 8.5 6.625 8.5H10.8438V8.96875C10.8438 9.76562 10.2344 10.375 9.4375 10.375H5.21875V9.90625Z" fill="white" stroke="white" stroke-width="0.22"/>
<path d="M9.57786 19.0003C9.20286 19.469 8.64036 19.7034 8.07786 19.7034C7.51536 19.7034 6.95286 19.4221 6.57786 19.0003C6.43723 18.8128 6.10911 18.7659 5.92161 18.9065C5.73411 19.0471 5.68723 19.3753 5.82786 19.5628C6.39036 20.2659 7.18723 20.6409 8.07786 20.6409C8.96848 20.6409 9.76536 20.2659 10.3279 19.5628C10.4685 19.3753 10.4685 19.0471 10.2341 18.9065C9.99973 18.7659 9.71848 18.7659 9.57786 19.0003Z" fill="white" stroke="white" stroke-width="0.22"/>
<path d="M15.5312 21.625H15.0625C14.8281 20.0312 13.4688 18.8125 11.8281 18.8125C11.5469 18.8125 11.3594 19 11.3594 19.2812C11.3594 19.5625 11.5469 19.75 11.8281 19.75C12.9531 19.75 13.8906 20.5469 14.125 21.625H7.09375C6.29688 21.625 5.6875 22.2344 5.6875 23.0312V27.25H4.28125C4 27.25 3.8125 27.4375 3.8125 27.7188C3.8125 28 4 28.1875 4.28125 28.1875H5.6875V30.0625H1.9375V22.0938C1.9375 20.7812 2.96875 19.75 4.28125 19.75C4.5625 19.75 4.75 19.5625 4.75 19.2812C4.75 19 4.5625 18.8125 4.28125 18.8125C2.45312 18.8125 1 20.2656 1 22.0938V30.5312C1 30.8125 1.1875 31 1.46875 31H6.15625H16.4688C16.75 31 16.9375 30.8125 16.9375 30.5312V23.0312C16.9375 22.2344 16.3281 21.625 15.5312 21.625ZM16 30.0625H6.625V23.0312C6.625 22.75 6.8125 22.5625 7.09375 22.5625H15.5312C15.8125 22.5625 16 22.75 16 23.0312V30.0625Z" fill="white" stroke="white" stroke-width="0.22"/>
<path d="M11.3125 23.7344C9.90625 23.7344 8.73438 24.9062 8.73438 26.3125C8.73438 27.7188 9.90625 28.8906 11.3125 28.8906C12.7188 28.8906 13.8906 27.7188 13.8906 26.3125C13.8906 24.9062 12.7188 23.7344 11.3125 23.7344ZM11.3125 27.9531C10.4219 27.9531 9.67188 27.2031 9.67188 26.3125C9.67188 25.4219 10.4219 24.6719 11.3125 24.6719C12.2031 24.6719 12.9531 25.4219 12.9531 26.3125C12.9531 27.2031 12.2031 27.9531 11.3125 27.9531Z" fill="white" stroke="white" stroke-width="0.22"/>
<path d="M26.6406 7L23.4531 3.8125C23.2656 3.625 23.0312 3.53125 22.7969 3.53125H16.4688C15.9531 3.53125 15.5312 3.95312 15.5312 4.46875V17.5938C15.5312 18.1094 15.9531 18.5312 16.4688 18.5312H20.2188C20.3125 20.7344 22.1875 22.5156 24.4375 22.5156C26.7812 22.5156 28.6562 20.6406 28.6562 18.2969C28.6562 16.8906 27.9531 15.6719 26.9219 14.9219V7.65625C26.875 7.42188 26.7812 7.1875 26.6406 7ZM25.2812 6.95312H23.5V5.17188L25.2812 6.95312ZM16.4688 4.51562H22.5156V7C22.5156 7.51563 22.9375 7.9375 23.4531 7.9375H25.9375V14.4531C25.4688 14.2656 24.9531 14.1719 24.3906 14.1719C22.3281 14.1719 20.5938 15.6719 20.2188 17.6875H16.4688V4.51562ZM27.6719 18.3438C27.6719 20.1719 26.2188 21.625 24.3906 21.625C22.5625 21.625 21.1094 20.1719 21.1094 18.3438C21.1094 16.5156 22.5625 15.0625 24.3906 15.0625C26.2188 15.0625 27.6719 16.5156 27.6719 18.3438Z" fill="white" stroke="white" stroke-width="0.22"/>
<path d="M25.6563 17.0781C25.4688 16.8906 25.1875 16.8906 25 17.0781L24.3906 17.6875L23.7813 17.0781C23.5938 16.8906 23.3125 16.8906 23.125 17.0781C22.9375 17.2656 22.9375 17.5469 23.125 17.7344L23.7344 18.3438L23.125 18.9531C22.9375 19.1406 22.9375 19.4219 23.125 19.6094C23.2188 19.7031 23.3594 19.75 23.4531 19.75C23.5469 19.75 23.6875 19.7031 23.7813 19.6094L24.3906 19L25 19.6094C25.0938 19.7031 25.2344 19.75 25.3281 19.75C25.4219 19.75 25.5625 19.7031 25.6563 19.6094C25.8438 19.4219 25.8438 19.1406 25.6563 18.9531L25.0938 18.3438L25.7031 17.7344C25.8438 17.5469 25.8438 17.2656 25.6563 17.0781Z" fill="white" stroke="white" stroke-width="0.22"/>
</svg>
