<svg width="30" height="34" viewBox="0 0 30 34" fill="none" xmlns="http://www.w3.org/2000/svg">
<path d="M2.39416 19.7117H18.9781C19.6938 21.2317 20.8003 22.1166 22.4341 22.1166C24.4379 22.1166 25.6543 20.7387 26.2324 18.8198C27.3165 18.6515 27.5347 17.1697 26.543 16.7016C27.1749 14.8647 26.5168 13.2152 24.3559 12.5545C24.0451 12.4593 23.7471 12.3895 23.4552 12.3314C23.4552 10.118 23.4552 8.48413 23.4552 5.29408C23.4552 4.50153 22.8106 3.85695 22.018 3.85695H16.2956V2.35965C16.2956 1.61002 15.6829 1 14.9298 1H9.48425C8.73115 1 8.11845 1.61002 8.11845 2.35965V3.85695H2.39416C1.60162 3.85695 0.957031 4.50153 0.957031 5.29408V18.2746C0.957031 19.0671 1.60162 19.7117 2.39416 19.7117ZM26.0664 18.2443C25.9174 18.2126 25.7632 18.3036 25.7225 18.4579C25.2669 20.1929 24.2278 21.5277 22.4341 21.5277C20.6304 21.5277 19.6032 20.1843 19.1434 18.4629C19.1097 18.3368 18.9969 18.2478 18.8666 18.2443C18.255 18.2283 18.155 17.3816 18.7113 17.2017C18.7129 17.2022 18.7156 17.2027 18.7173 17.2031C20.4535 17.6308 22.6057 16.8347 24.1311 15.8715C24.5135 16.5351 25.1687 16.9303 25.9369 17.1364C26.003 17.1542 26.0682 17.1793 26.1231 17.1845C26.765 17.2472 26.7399 18.2284 26.0664 18.2443ZM25.9755 16.5394C25.1256 16.2792 24.649 15.7342 24.5442 15.3628C24.5204 15.2704 24.4529 15.1952 24.364 15.1614C24.3636 15.1613 24.3644 15.1616 24.364 15.1614C24.3632 15.1612 24.3617 15.1602 24.361 15.1599C24.2724 15.1257 24.1719 15.1373 24.0922 15.1909C22.6553 16.1576 20.6978 16.9537 18.9986 16.658C18.8945 13.265 20.9494 12.1297 24.1835 13.1173C26.0046 13.6744 26.5241 14.9689 25.9755 16.5394ZM18.416 16.6893C17.4378 17.1334 17.5808 18.5706 18.6285 18.8056C18.6606 18.9122 18.6998 19.0174 18.7376 19.1228H2.39416C1.92638 19.1228 1.54598 18.7424 1.54598 18.2746V12.0356H10.4877V13.329C10.4877 13.4916 10.6197 13.6235 10.7823 13.6235H13.6316C13.7942 13.6235 13.9261 13.4916 13.9261 13.329V12.0356H22.8663V12.2356C20.0732 11.9067 18.3131 13.426 18.416 16.6893ZM11.0767 13.0345V10.7742H13.3371V13.0345H11.0767ZM8.70746 2.35965C8.70746 1.93478 9.05598 1.58895 9.48432 1.58895H14.9299C15.3582 1.58895 15.7067 1.93478 15.7067 2.35965V3.85695H14.5603V3.17942C14.5603 2.69707 14.1676 2.30444 13.6853 2.30444H10.729C10.2467 2.30444 9.85405 2.69707 9.85405 3.17942V3.85695H8.70754L8.70746 2.35965ZM10.4429 3.85695V3.17942C10.4429 3.01915 10.5686 2.89339 10.7289 2.89339H13.6852C13.8454 2.89339 13.9712 3.01915 13.9712 3.17942V3.85695H10.4429ZM1.54598 5.29408C1.54598 4.8263 1.92638 4.44589 2.39416 4.44589C15.0553 4.45148 20.8136 4.44646 22.0181 4.44589C22.4859 4.44589 22.8663 4.8263 22.8663 5.29408V11.4467H13.926V10.4797C13.926 10.3171 13.7941 10.1852 13.6315 10.1852H10.7822C10.6196 10.1852 10.4877 10.3171 10.4877 10.4797V11.4467H1.54598L1.54598 5.29408Z" fill="white"/>
<path d="M24.364 15.1614C24.4529 15.1952 24.5204 15.2704 24.5442 15.3628C24.649 15.7342 25.1256 16.2792 25.9755 16.5394C26.5241 14.9689 26.0046 13.6744 24.1835 13.1173C20.9494 12.1297 18.8945 13.265 18.9986 16.658C20.6978 16.9537 22.6553 16.1576 24.0922 15.1909C24.1719 15.1373 24.2724 15.1257 24.361 15.1599C24.3617 15.1602 24.3632 15.1612 24.364 15.1614ZM24.364 15.1614C24.3636 15.1613 24.3644 15.1616 24.364 15.1614ZM2.39416 19.7117H18.9781C19.6938 21.2317 20.8003 22.1166 22.4341 22.1166C24.4379 22.1166 25.6543 20.7387 26.2324 18.8198C27.3165 18.6515 27.5347 17.1697 26.543 16.7016C27.1749 14.8647 26.5168 13.2152 24.3559 12.5545C24.0451 12.4593 23.7471 12.3895 23.4552 12.3314C23.4552 10.118 23.4552 8.48413 23.4552 5.29408C23.4552 4.50153 22.8106 3.85695 22.018 3.85695H16.2956V2.35965C16.2956 1.61002 15.6829 1 14.9298 1H9.48425C8.73115 1 8.11845 1.61002 8.11845 2.35965V3.85695H2.39416C1.60162 3.85695 0.957031 4.50153 0.957031 5.29408V18.2746C0.957031 19.0671 1.60162 19.7117 2.39416 19.7117ZM26.0664 18.2443C25.9174 18.2126 25.7632 18.3036 25.7225 18.4579C25.2669 20.1929 24.2278 21.5277 22.4341 21.5277C20.6304 21.5277 19.6032 20.1843 19.1434 18.4629C19.1097 18.3368 18.9969 18.2478 18.8666 18.2443C18.255 18.2283 18.155 17.3816 18.7113 17.2017C18.7129 17.2022 18.7156 17.2027 18.7173 17.2031C20.4535 17.6308 22.6057 16.8347 24.1311 15.8715C24.5135 16.5351 25.1687 16.9303 25.9369 17.1364C26.003 17.1542 26.0682 17.1793 26.1231 17.1845C26.765 17.2472 26.7399 18.2284 26.0664 18.2443ZM18.416 16.6893C17.4378 17.1334 17.5808 18.5706 18.6285 18.8056C18.6606 18.9122 18.6998 19.0174 18.7376 19.1228H2.39416C1.92638 19.1228 1.54598 18.7424 1.54598 18.2746V12.0356H10.4877V13.329C10.4877 13.4916 10.6197 13.6235 10.7823 13.6235H13.6316C13.7942 13.6235 13.9261 13.4916 13.9261 13.329V12.0356H22.8663V12.2356C20.0732 11.9067 18.3131 13.426 18.416 16.6893ZM11.0767 13.0345V10.7742H13.3371V13.0345H11.0767ZM8.70746 2.35965C8.70746 1.93478 9.05598 1.58895 9.48432 1.58895H14.9299C15.3582 1.58895 15.7067 1.93478 15.7067 2.35965V3.85695H14.5603V3.17942C14.5603 2.69707 14.1676 2.30444 13.6853 2.30444H10.729C10.2467 2.30444 9.85405 2.69707 9.85405 3.17942V3.85695H8.70754L8.70746 2.35965ZM10.4429 3.85695V3.17942C10.4429 3.01915 10.5686 2.89339 10.7289 2.89339H13.6852C13.8454 2.89339 13.9712 3.01915 13.9712 3.17942V3.85695H10.4429ZM1.54598 5.29408C1.54598 4.8263 1.92638 4.44589 2.39416 4.44589C15.0553 4.45148 20.8136 4.44646 22.0181 4.44589C22.4859 4.44589 22.8663 4.8263 22.8663 5.29408V11.4467H13.926V10.4797C13.926 10.3171 13.7941 10.1852 13.6315 10.1852H10.7822C10.6196 10.1852 10.4877 10.3171 10.4877 10.4797V11.4467H1.54598L1.54598 5.29408Z" stroke="white" stroke-width="0.3"/>
<path d="M6.2613 17.3266H3.34293V14.7652C3.34293 14.6026 3.21101 14.4707 3.04842 14.4707C2.88582 14.4707 2.75391 14.6026 2.75391 14.7652V17.621C2.75391 17.7836 2.88582 17.9155 3.04842 17.9155H6.26123C6.42383 17.9155 6.55574 17.7836 6.55574 17.621C6.55574 17.4584 6.42383 17.3266 6.2613 17.3266Z" fill="white" stroke="white" stroke-width="0.3"/>
<path d="M26.9405 22.4004H25.0248C24.8956 22.4004 24.7817 22.4844 24.7434 22.6078C24.4738 23.479 23.5225 24.0875 22.4301 24.0875C21.3411 24.0875 20.3921 23.479 20.1225 22.6078C20.0842 22.4844 19.9703 22.4004 19.8411 22.4004H17.9255C16.4105 22.4004 15.1777 23.6327 15.1777 25.1477V28.9418C15.1777 29.1044 15.3096 29.2363 15.4722 29.2363H29.3937C29.5563 29.2363 29.6882 29.1044 29.6882 28.9418V25.1477C29.6882 23.6328 28.4554 22.4004 26.9405 22.4004ZM29.0992 28.6474H26.8761V27.1348C26.8761 26.9722 26.7441 26.8402 26.5815 26.8402C26.419 26.8402 26.287 26.9722 26.287 27.1348V28.6474H18.5788V27.1348C18.5788 26.9722 18.4469 26.8402 18.2843 26.8402C18.1217 26.8402 17.9898 26.9722 17.9898 27.1348V28.6474H15.7666V25.1478C15.7666 23.9576 16.7352 22.9894 17.9254 22.9894H19.6351C20.055 23.9928 21.1704 24.6765 22.43 24.6765C23.6927 24.6765 24.8104 23.9928 25.2306 22.9894H26.9403C28.1305 22.9894 29.0991 23.9576 29.0991 25.1478L29.0992 28.6474Z" fill="white" stroke="white" stroke-width="0.3"/>
<path d="M11.7996 26.0025L10.7057 25.7632C10.6129 25.4572 10.4948 25.1724 10.3537 24.9131L10.9503 23.9757C11.0239 23.8599 11.0079 23.7084 10.9113 23.6106L9.71109 22.3974C9.61367 22.2992 9.46147 22.2813 9.34377 22.356L8.39166 22.9603C8.11058 22.8081 7.82993 22.6907 7.55345 22.6094L7.30305 21.5166C7.27237 21.3828 7.15311 21.2881 7.01582 21.2881H5.32143C5.18337 21.2881 5.06418 21.3836 5.0342 21.5181L4.78996 22.6086C4.51079 22.6892 4.23056 22.8053 3.94064 22.9606L2.99391 22.3563C2.87734 22.282 2.72436 22.2984 2.62616 22.3973L1.426 23.6105C1.32936 23.7083 1.31324 23.8598 1.3869 23.9756L1.98356 24.913C1.84245 25.1726 1.72432 25.4572 1.63115 25.7631L0.543739 26.0024C0.408785 26.032 0.3125 26.1516 0.3125 26.29V27.9978C0.3125 28.1363 0.408714 28.2559 0.543739 28.2854L1.63157 28.5247C1.72319 28.8245 1.84132 29.1091 1.98469 29.374L1.38655 30.3196C1.31296 30.4357 1.32978 30.5872 1.42642 30.685L2.62659 31.8916C2.72478 31.9898 2.87812 32.0063 2.99434 31.9319L3.94446 31.323C4.21437 31.4714 4.497 31.5899 4.78918 31.6769L5.0342 32.7701C5.06411 32.9047 5.18337 33.0001 5.32143 33.0001H7.01582C7.15311 33.0001 7.27237 32.9054 7.30305 32.7716L7.5538 31.6761C7.84364 31.5891 8.12472 31.4709 8.39279 31.323L9.34292 31.9319C9.45949 32.0062 9.61247 31.9898 9.71066 31.8916L10.9108 30.685C11.0075 30.5872 11.0243 30.4357 10.9507 30.3196L10.3526 29.374C10.4937 29.1121 10.6118 28.8276 10.7053 28.5251L11.7997 28.2854C11.935 28.2559 12.0313 28.1363 12.0313 27.9978V26.29C12.0312 26.1517 11.935 26.032 11.7996 26.0025ZM11.4422 27.7609L10.4081 27.9872C10.3007 28.0106 10.2156 28.0919 10.1869 28.1977C10.0837 28.5773 9.93915 28.9251 9.75626 29.2318C9.6995 29.3269 9.70105 29.4461 9.7605 29.5401L10.3273 30.4362L9.46034 31.3078L8.55928 30.7304C8.46497 30.6701 8.34415 30.6682 8.24752 30.7269C7.92925 30.9202 7.58801 31.0643 7.2337 31.1545C7.12674 31.1817 7.04388 31.2664 7.019 31.3737L6.78126 32.4113H5.55727L5.32532 31.3753C5.30114 31.2668 5.21758 31.1809 5.10942 31.154C4.75242 31.0647 4.40927 30.9209 4.08988 30.7269C3.99366 30.6682 3.87285 30.6706 3.77812 30.7304L2.87706 31.3078L2.01014 30.4362L2.57689 29.5401C2.63634 29.4461 2.63783 29.3269 2.58113 29.2318C2.39514 28.92 2.25064 28.5726 2.15089 28.1988C2.12254 28.0926 2.037 28.0109 1.92962 27.9872L0.90159 27.7613V26.5266L1.92962 26.3008C2.037 26.277 2.12247 26.1953 2.15089 26.0891C2.25368 25.7045 2.39782 25.3579 2.57958 25.0585C2.63783 24.9626 2.6367 24.8418 2.57654 24.7475L2.01021 23.8575L2.8779 22.9806L3.77211 23.5516C3.86493 23.6114 3.98263 23.6141 4.07772 23.5585C4.43698 23.3511 4.77292 23.2127 5.10532 23.1352C5.21539 23.1095 5.30086 23.0228 5.32539 22.9128L5.55734 21.8771H6.78126L7.019 22.9143C7.04431 23.0236 7.12907 23.1091 7.23794 23.1348C7.56652 23.2131 7.90741 23.3549 8.25133 23.5574C8.34606 23.6129 8.46455 23.6114 8.5585 23.552L9.45921 22.9803L10.3273 23.8576L9.761 24.7476C9.70077 24.8419 9.69964 24.9627 9.75796 25.0585C9.93971 25.358 10.0839 25.7046 10.1866 26.0892C10.215 26.1958 10.3005 26.2774 10.4083 26.3008L11.4424 26.5271L11.4422 27.7609Z" fill="white" stroke="white" stroke-width="0.3"/>
<path d="M6.17203 24.4199C4.67163 24.4199 3.45117 25.6404 3.45117 27.1408C3.45117 28.6447 4.67163 29.8681 6.17203 29.8681C7.67244 29.8681 8.89289 28.6446 8.89289 27.1408C8.89289 25.6404 7.67243 24.4199 6.17203 24.4199ZM6.17203 29.2792C4.9964 29.2792 4.04012 28.3198 4.04012 27.1408C4.04012 25.9651 4.9964 25.0089 6.17203 25.0089C7.34767 25.0089 8.30394 25.9651 8.30394 27.1408C8.30394 28.3199 7.34767 29.2792 6.17203 29.2792Z" fill="white" stroke="white" stroke-width="0.3"/>
</svg>
