<svg width="16" height="11" viewBox="0 0 16 11" fill="none" xmlns="http://www.w3.org/2000/svg">
<path d="M0.811596 4.43555L0.812313 4.43478L5.03227 0.235184C5.34842 -0.0794369 5.85975 -0.078262 6.17445 0.237931C6.48909 0.554062 6.48788 1.06541 6.17173 1.38005L3.33845 4.1996H15.1926C15.6386 4.1996 16.0002 4.56117 16.0002 5.00722C16.0002 5.45326 15.6386 5.81484 15.1926 5.81484H3.3385L6.1717 8.63438C6.48783 8.94904 6.48906 9.46039 6.1744 9.77652C5.85972 10.0927 5.34834 10.0938 5.03224 9.77927L0.812267 5.57967L0.811535 5.57889C0.495251 5.2632 0.496258 4.7502 0.811596 4.43555Z" fill="white"/>
</svg>
