<svg width="21" height="21" viewBox="0 0 21 21" fill="none" xmlns="http://www.w3.org/2000/svg">
<path d="M8.75744 1.04049C8.68413 1.06492 8.59454 1.1138 8.55381 1.16267C8.4805 1.24412 8.47236 1.34186 8.45607 2.6451L8.43163 4.03793L8.26873 4.09494C8.17913 4.12752 7.92663 4.23341 7.70671 4.3393L7.30759 4.53479L6.37089 3.60623C5.45048 2.68582 5.44234 2.67767 5.26314 2.67767C5.09209 2.67767 5.08395 2.68582 3.91104 3.82615C3.25942 4.46147 2.6974 5.0235 2.66482 5.07237C2.59151 5.1864 2.58337 5.39003 2.64039 5.50407C2.66482 5.54479 3.07208 5.96019 3.5445 6.43262L4.4079 7.28787L4.24499 7.63811C4.15539 7.8336 4.01692 8.18384 3.93547 8.42819L3.78071 8.86804L2.53449 8.88433L1.28828 8.90062L1.15795 9.03909L1.01948 9.16941L1.0032 10.6763C0.995051 11.5152 1.0032 12.2809 1.01948 12.3786C1.03578 12.4764 1.09279 12.6067 1.14166 12.6637L1.2394 12.7777L2.43675 12.8022L3.62596 12.8266L3.73184 13.128C3.78886 13.2909 3.91918 13.5923 4.01692 13.804L4.21241 14.1787L3.4549 14.9199C3.0395 15.3272 2.67296 15.7019 2.64853 15.7507C2.59151 15.8648 2.59151 16.0195 2.64853 16.1417C2.67296 16.1987 3.23498 16.7689 3.89475 17.4124C5.09209 18.5771 5.10024 18.5853 5.27129 18.5853C5.44234 18.5853 5.45863 18.569 6.21613 17.8196L6.98178 17.054L7.28316 17.2332C7.4542 17.3309 7.78001 17.4857 8.01622 17.5834L8.44792 17.7626L8.47236 18.8948L8.49679 20.027L8.61083 20.1247C8.74929 20.2388 8.6597 20.2388 10.7856 20.2306H12.1296L12.2517 20.1084L12.3739 19.9863L12.3902 18.8867C12.3984 18.2839 12.3984 17.7708 12.4065 17.7545C12.4065 17.7382 12.4472 17.7219 12.4879 17.7219C12.602 17.7219 13.6038 17.3716 13.9704 17.2087L14.3043 17.054L15.0781 17.8196C15.8356 18.5771 15.8519 18.5853 16.023 18.5853C16.194 18.5853 16.2103 18.569 17.3832 17.4287C18.0348 16.7933 18.5969 16.2232 18.6294 16.1662C18.7027 16.0358 18.7027 15.8729 18.6457 15.7589C18.6213 15.71 18.2548 15.3435 17.8394 14.9281L17.0819 14.1787L17.2448 13.7552C17.3344 13.519 17.4402 13.2176 17.481 13.0873C17.5217 12.9569 17.5787 12.7533 17.6113 12.6311L17.6765 12.4031L18.8412 12.3868L20.006 12.3705L20.1363 12.2402L20.2666 12.1098L20.2748 10.4971C20.2748 9.60926 20.2666 8.82731 20.2503 8.75401C20.2259 8.6807 20.1689 8.58296 20.1037 8.53408C19.9978 8.45263 19.9408 8.45263 18.7516 8.45263H17.4565L17.4077 8.31417C17.3588 8.19199 17.1796 7.8336 16.9597 7.43448L16.8619 7.25529L17.709 6.41633C18.1733 5.95205 18.5806 5.53665 18.605 5.49592C18.662 5.38189 18.662 5.21899 18.5887 5.08866C18.5561 5.0235 17.9941 4.46147 17.3425 3.818C16.1696 2.67767 16.1533 2.66138 15.9822 2.66138C15.8112 2.66138 15.7949 2.67767 14.8826 3.58179C14.3695 4.0868 13.9378 4.5022 13.9215 4.5022C13.9052 4.5022 13.7586 4.43704 13.5957 4.35559C13.4328 4.27414 13.1884 4.16011 13.0581 4.11123L12.8138 4.01349L12.7893 2.62066C12.7649 1.06492 12.773 1.0975 12.4635 1.01605C12.2843 0.991615 8.93664 0.991615 8.75744 1.04049ZM11.9341 3.19082C11.9585 4.79543 11.9178 4.68954 12.5613 4.86874C12.6916 4.90132 13.05 5.06422 13.3758 5.21899C13.8401 5.45519 13.9704 5.50407 14.0681 5.48777C14.1577 5.47148 14.4428 5.21899 15.07 4.61624C15.5587 4.14381 15.966 3.76099 15.9904 3.76099C16.0474 3.76099 17.5869 5.25971 17.5869 5.30858C17.5869 5.33301 17.2285 5.69955 16.7886 6.13125C16.3488 6.5548 15.9578 6.96206 15.9252 7.02722C15.8275 7.21456 15.8519 7.32045 16.0637 7.63811C16.3651 8.10239 16.5443 8.44449 16.6664 8.78659C16.8538 9.31602 16.7805 9.28345 18.1652 9.29974L19.3462 9.31602V10.4075V11.5071H18.2548C17.4728 11.5071 17.1307 11.5234 17.0656 11.5641C16.9352 11.6293 16.8701 11.7759 16.7642 12.2402C16.6502 12.7533 16.3976 13.4945 16.2103 13.8611C16.1289 14.0158 16.0637 14.1869 16.0637 14.2357C16.0637 14.3986 16.2022 14.5615 16.8945 15.2294C17.2692 15.5878 17.5787 15.9055 17.5787 15.9381C17.5787 15.9951 16.0393 17.4857 15.9822 17.4857C15.9578 17.4857 15.632 17.1843 15.2492 16.8178C14.8663 16.4512 14.5324 16.1336 14.4917 16.1091C14.3776 16.0358 14.2147 16.0766 13.8808 16.2558C13.4328 16.5001 12.8871 16.7037 12.2517 16.8748C11.9667 16.9562 11.6979 17.0458 11.649 17.0784C11.4942 17.1762 11.4698 17.3879 11.4698 18.3979V19.3509H10.3865H9.30317L9.28687 18.2839L9.27059 17.2169L9.1647 17.1191C9.09953 17.0621 8.9122 16.9725 8.69227 16.9074C8.25243 16.777 7.78816 16.5571 7.34017 16.2802C6.89218 15.9951 6.81888 15.9951 6.46863 16.3291C6.31388 16.4675 5.97992 16.7933 5.71113 17.054L5.23056 17.5264L4.91289 17.2169C4.01692 16.3535 3.6341 15.9625 3.6341 15.9218C3.6341 15.8974 3.95176 15.5797 4.32644 15.2132C5.01063 14.5615 5.14911 14.3986 5.14911 14.2276C5.14911 14.1787 5.01879 13.9018 4.86402 13.6004C4.60338 13.1035 4.36717 12.4845 4.36717 12.3053C4.36717 12.2564 4.31015 12.1669 4.24499 12.0935L4.12281 11.9551L2.98248 11.9388L1.84215 11.9144L1.83401 10.9939C1.83401 10.4889 1.84215 10.0002 1.85844 9.91063L1.89102 9.74772L3.04764 9.73958C4.03321 9.73143 4.22055 9.72328 4.302 9.66627C4.42419 9.58482 4.42419 9.57667 4.6441 8.88433C4.74185 8.5911 4.92918 8.11053 5.0758 7.81731C5.22241 7.51593 5.33644 7.24714 5.33644 7.21456C5.33644 7.0598 5.18169 6.88061 4.41604 6.13939C3.97619 5.71584 3.61781 5.3493 3.61781 5.32487C3.61781 5.29228 4.52193 4.38817 5.01879 3.91575L5.21427 3.73655L6.11839 4.59994C6.76186 5.22713 7.04694 5.47963 7.13654 5.49592C7.24243 5.52035 7.37275 5.46334 7.83703 5.22713C8.15469 5.06422 8.52123 4.90947 8.65155 4.87688C9.03437 4.771 9.11582 4.72212 9.19728 4.5918C9.27059 4.46962 9.27873 4.36373 9.27873 3.16638V1.8713L10.582 1.87945L11.8771 1.88759L11.9341 3.19082Z" fill="#DB69A2" stroke="#DB69A2" stroke-width="0.5"/>
<path d="M10.1101 8.18349C8.73351 8.50118 7.73164 9.77996 7.85384 11.0832C7.91899 11.7511 8.17964 12.2887 8.69279 12.8018C9.26295 13.3639 9.86571 13.6326 10.5988 13.6326C11.063 13.6408 11.3237 13.5756 11.788 13.3557C12.912 12.8181 13.5799 11.5719 13.3519 10.4234C13.1482 9.41344 12.3826 8.5663 11.3807 8.25683C11.0142 8.1346 10.444 8.10204 10.1101 8.18349ZM11.0793 9.0469C12.0567 9.25866 12.6676 10.1546 12.521 11.1646C12.464 11.5393 12.3663 11.7918 12.1464 12.0851C11.5844 12.8344 10.3381 13.0055 9.50731 12.4516C9.24666 12.2724 9.15706 12.1828 8.97786 11.8895C8.72539 11.4742 8.65205 10.9366 8.7661 10.4316C9.01045 9.39715 9.97972 8.81066 11.0793 9.0469Z" fill="#DB69A2" stroke="#DB69A2" stroke-width="0.5"/>
</svg>
