<svg width="512" height="512" viewBox="0 0 512 512" fill="none" xmlns="http://www.w3.org/2000/svg">
<path d="M467.36 189.44C458.024 188.084 449.114 184.639 441.294 179.362C433.473 174.085 426.944 167.111 422.193 158.961C417.441 150.811 414.589 141.694 413.849 132.289C413.11 122.884 414.501 113.433 417.92 104.64C420.094 98.8914 420.414 92.607 418.836 86.6674C417.258 80.7279 413.861 75.4312 409.12 71.5198C388.193 53.9464 364.372 40.1413 338.72 30.7198C332.879 28.5499 326.502 28.2788 320.498 29.9451C314.493 31.6114 309.168 35.13 305.28 39.9998C299.429 47.4823 291.95 53.534 283.412 57.696C274.873 61.858 265.499 64.0211 256 64.0211C246.502 64.0211 237.127 61.858 228.589 57.696C220.05 53.534 212.572 47.4823 206.72 39.9998C202.833 35.13 197.507 31.6114 191.503 29.9451C185.499 28.2788 179.122 28.5499 173.28 30.7198C149.595 39.4181 127.45 51.841 107.68 67.5198C102.697 71.4648 99.1077 76.9017 97.4378 83.0342C95.7679 89.1668 96.1052 95.6729 98.4003 101.6C102.092 110.625 103.618 120.39 102.854 130.112C102.091 139.833 99.0594 149.24 94.0035 157.579C88.9477 165.917 82.0079 172.954 73.741 178.126C65.4741 183.298 56.1102 186.461 46.4003 187.36C40.0965 188.034 34.1756 190.714 29.5093 195.006C24.8431 199.298 21.6781 204.974 20.4803 211.2C17.5011 225.947 16.0003 240.955 16.0003 256C15.9784 268.595 16.9952 281.171 19.0403 293.6C20.0582 300.025 23.1643 305.936 27.8784 310.419C32.5926 314.901 38.6522 317.706 45.1203 318.4C55.0435 319.331 64.5991 322.626 72.9876 328.008C81.3761 333.39 88.3533 340.703 93.3352 349.336C98.3172 357.968 101.159 367.668 101.623 377.624C102.086 387.58 100.158 397.502 96.0003 406.56C93.2792 412.452 92.6042 419.084 94.0826 425.403C95.5609 431.722 99.1079 437.367 104.16 441.44C124.962 458.694 148.554 472.275 173.92 481.6C177.164 482.723 180.568 483.318 184 483.36C188.707 483.35 193.343 482.211 197.519 480.04C201.695 477.868 205.289 474.727 208 470.88C213.703 462.571 221.347 455.78 230.27 451.096C239.192 446.412 249.123 443.976 259.2 444C268.964 444.012 278.591 446.304 287.313 450.693C296.035 455.082 303.612 461.446 309.44 469.28C313.317 474.491 318.809 478.274 325.06 480.04C331.311 481.805 337.97 481.453 344 479.04C367.195 469.705 388.789 456.802 408 440.8C412.826 436.81 416.262 431.392 417.815 425.326C419.367 419.26 418.956 412.858 416.64 407.04C412.877 398.131 411.236 388.469 411.847 378.817C412.458 369.165 415.305 359.787 420.161 351.424C425.018 343.06 431.752 335.94 439.832 330.625C447.912 325.311 457.117 321.947 466.72 320.8C472.947 319.939 478.738 317.118 483.255 312.745C487.771 308.373 490.778 302.676 491.84 296.48C494.41 283.134 495.802 269.589 496 256C496.003 241.666 494.664 227.364 492 213.28C490.92 207.221 487.958 201.656 483.535 197.376C479.111 193.097 473.452 190.32 467.36 189.44ZM336 256C336 271.822 331.308 287.29 322.518 300.445C313.727 313.601 301.233 323.855 286.615 329.91C271.997 335.965 255.912 337.549 240.393 334.463C224.875 331.376 210.62 323.757 199.432 312.568C188.244 301.38 180.624 287.126 177.538 271.607C174.451 256.089 176.035 240.003 182.09 225.385C188.145 210.767 198.399 198.273 211.555 189.482C224.711 180.692 240.178 176 256 176C277.218 176 297.566 184.428 312.569 199.431C327.572 214.434 336 234.782 336 256Z" fill="#9E2469"/>
</svg>
