<svg width="20" height="18" viewBox="0 0 20 18" fill="none" xmlns="http://www.w3.org/2000/svg">
<path fill-rule="evenodd" clip-rule="evenodd" d="M18.7151 7.943C19.2991 8.528 19.2991 9.473 18.7151 10.059L15.8321 12.95C15.4421 13.34 14.8021 13.34 14.4121 12.95C14.2248 12.7632 14.1196 12.5095 14.1196 12.245C14.1196 11.9805 14.2248 11.7268 14.4121 11.54C14.9224 11.0293 15.489 10.5781 16.1011 10.195L16.4881 9.953L16.2811 9.747C15.5464 9.91583 14.7949 10.001 14.0411 10.001L6.12007 10.001C5.56779 10.001 5.12007 9.55328 5.12007 9.001C5.12007 8.44871 5.56779 8.001 6.12007 8.001H14.0411C14.7954 8.001 15.5468 8.08624 16.2815 8.25511L16.4881 8.049L16.1021 7.808C15.4896 7.42399 14.9226 6.97177 14.4121 6.46C14.2248 6.27316 14.1196 6.01951 14.1196 5.755C14.1196 5.49049 14.2248 5.23684 14.4121 5.05C14.8021 4.66 15.4421 4.66 15.8321 5.05L18.7151 7.943ZM11.1221 13C10.5698 13 10.1221 13.4477 10.1221 14V15.5C10.1221 15.7761 9.89821 16 9.62207 16H2.62207C2.34593 16 2.12207 15.7761 2.12207 15.5V2.5C2.12207 2.22386 2.34593 2 2.62207 2H9.62207C9.89821 2 10.1221 2.22386 10.1221 2.5V4.005C10.1221 4.55728 10.5698 5.005 11.1221 5.005C11.6744 5.005 12.1221 4.55728 12.1221 4.005V2.5C12.1221 1.11929 11.0028 0 9.62207 0H2.62207C1.24136 0 0.12207 1.11929 0.12207 2.5V15.5C0.12207 16.8807 1.24136 18 2.62207 18L9.62207 18C11.0028 18 12.1221 16.8807 12.1221 15.5V14C12.1221 13.4477 11.6744 13 11.1221 13Z" fill="white"/>
</svg>
