<svg width="25" height="25" viewBox="0 0 512 512" fill="none" xmlns="http://www.w3.org/2000/svg">
<path d="M498.626 221.41L444.406 167.19C439.976 162.882 434.028 160.492 427.849 160.535C421.67 160.579 415.757 163.053 411.388 167.423C407.02 171.793 404.547 177.707 404.506 183.886C404.464 190.065 406.856 196.012 411.166 200.44L440.326 229.6H327.626C324.482 229.509 321.352 230.049 318.42 231.188C315.489 232.328 312.816 234.044 310.56 236.236C308.304 238.427 306.511 241.048 305.286 243.945C304.061 246.842 303.43 249.955 303.43 253.1C303.43 256.245 304.061 259.359 305.286 262.255C306.511 265.152 308.304 267.774 310.56 269.965C312.816 272.156 315.489 273.873 318.42 275.012C321.352 276.152 324.482 276.692 327.626 276.6H441.376L412.216 305.77C410.033 307.953 408.302 310.544 407.121 313.396C405.939 316.247 405.332 319.304 405.332 322.39C405.332 325.477 405.939 328.533 407.121 331.385C408.302 334.237 410.033 336.828 412.216 339.01C416.624 343.418 422.602 345.895 428.836 345.895C431.922 345.895 434.979 345.287 437.83 344.105C440.682 342.924 443.273 341.193 445.456 339.01L498.626 285.84C502.858 281.609 506.215 276.585 508.506 271.056C510.796 265.526 511.975 259.6 511.975 253.615C511.975 247.63 510.796 241.704 508.506 236.175C506.215 230.646 502.858 225.622 498.626 221.39V221.41Z" fill="white"/>
<path d="M368.776 306.73C362.796 306.832 357.064 309.143 352.685 313.218C348.306 317.292 345.589 322.843 345.056 328.8C344.186 340.25 343.316 344.1 342.236 352.63C340.669 364.051 335.4 374.642 327.236 382.78C319.085 391.053 308.464 396.451 296.976 398.16L296.296 398.25C289.296 399.25 282.796 400.13 276.026 400.93C277.346 374.65 278.186 344.27 278.396 314.12C278.776 264.26 277.396 212.82 274.666 179.62C272.622 156.405 265.73 133.876 254.437 113.49C243.267 93.41 228.746 77.63 213.526 69.28L213.056 69.03C199.786 61.77 188.546 55.62 169.146 47.44C177.406 47.17 185.446 47 196.146 47C248.876 47.21 267.536 50.38 293.466 54.29L294.106 54.39C305.53 56.3381 316.023 61.9091 324.036 70.28C332.177 78.5781 337.489 89.2347 339.216 100.73C341.986 120.82 344.216 143.73 345.556 176.8C346.046 189.26 356.556 199.43 369.336 199.73C382.476 200.03 392.886 190.04 392.286 177.52C390.746 145 388.196 120.92 384.866 99.18C381.596 77.91 370.746 57.08 354.766 40.44C338.786 23.8 318.456 12.25 297.276 8.54L296.626 8.43C270.766 4.13 250.426 0.280001 196.226 0C142.036 0.319999 122.976 4.11 97.0761 8.39L96.4261 8.51C75.2461 12.21 54.8661 23.79 38.8661 40.4C22.8661 57.01 12.0361 77.87 8.76605 99.14C3.91605 130.45 0.406053 179.47 0.0360532 227.36C-0.333947 275.25 2.16605 324.21 6.51605 355.42C8.45365 368.716 13.0776 381.479 20.1061 392.93C22.0561 396.93 24.1561 400.93 26.4061 404.75C38.0761 424.66 53.0661 440.81 68.5061 449.87L68.9761 450.15C87.7961 461.15 102.717 470.04 141.607 486.65C180.387 503.05 194.606 506.35 212.736 510.65L213.187 510.76C228.007 514.21 241.996 509.45 252.836 497.6C263.336 486.12 270.426 468.52 272.736 448.01C282.246 446.88 290.736 445.6 299.926 444.17L300.586 444.06C322.176 440.69 342.856 429.54 358.896 413.31C374.936 397.08 385.576 376.52 388.506 355.31C389.766 346.13 390.746 341.62 391.726 329.83C392.796 317 382.256 306.46 368.776 306.73Z" fill="white"/>
</svg>
