<svg width="15" height="14" viewBox="0 0 15 14" fill="none" xmlns="http://www.w3.org/2000/svg">
<path d="M3.97053 4.64917H5.46733V9.08942C5.46733 9.53991 5.8326 9.90472 6.28263 9.90472H8.50806C8.95807 9.90472 9.32337 9.53994 9.32337 9.08942V4.64917H10.8196C11.0675 4.64917 11.2904 4.49992 11.3857 4.27085C11.48 4.04271 11.4275 3.77897 11.2524 3.60383L7.82799 0.179015C7.58882 -0.0596718 7.20136 -0.0596718 6.96168 0.179015L3.53786 3.60383C3.36269 3.77897 3.31021 4.04226 3.40504 4.27085C3.5003 4.49947 3.72265 4.64917 3.97053 4.64917Z" fill="white"/>
<path d="M14.0548 6.31335C13.6491 6.31335 13.3199 6.64257 13.3199 7.04874V10.1237C13.3199 11.0448 12.57 11.7942 11.6489 11.7942H3.1413C2.22012 11.7942 1.47078 11.0448 1.47078 10.1237V7.04874C1.47078 6.64257 1.14111 6.31335 0.735389 6.31335C0.329184 6.31335 0 6.64257 0 7.04878V10.1237C0 11.8558 1.40916 13.265 3.1413 13.265H11.6489C13.381 13.265 14.7902 11.8558 14.7902 10.1237V7.04878C14.7902 6.64257 14.461 6.31335 14.0548 6.31335Z" fill="white"/>
</svg>
