<svg width="14" height="14" viewBox="0 0 14 14" fill="none" xmlns="http://www.w3.org/2000/svg">
<path d="M0 5.03906V7.64766C3.08245 7.64766 5.58516 10.155 5.58516 13.2329H8.19382C8.19382 8.7196 4.51786 5.03906 0 5.03906Z" fill="white"/>
<path d="M0 0V2.788C5.76004 2.788 10.4481 7.47607 10.4481 13.2361H13.2361C13.2315 5.93944 7.29666 0 0 0Z" fill="white"/>
<path d="M1.50479 10.2266C0.727276 10.2266 0.101562 10.8568 0.101562 11.6298C0.101562 12.4073 0.727276 13.033 1.50479 13.033C2.2823 13.033 2.90802 12.4027 2.90802 11.6298C2.90802 10.8522 2.2777 10.2266 1.50479 10.2266Z" fill="white"/>
</svg>
